<svg id="OBJECTS" xmlns="http://www.w3.org/2000/svg" xmlns:xlink="http://www.w3.org/1999/xlink" viewBox="0 0 703.15 481.33">
  <defs>
    <style>
      .cls-1 {
        fill: #ffa768;
      }

      .cls-2 {
        fill: none;
        stroke: #40adbf;
        stroke-miterlimit: 10;
        stroke-width: 1.26px;
      }

      .cls-3 {
        fill: #a5f9ff;
      }

      .cls-4, .cls-8 {
        fill: #fff;
      }

      .cls-5 {
        fill: #15bdcf;
      }

      .cls-6 {
        fill: #ffe591;
      }

      .cls-7 {
        fill: #b080e4;
      }

      .cls-14, .cls-7 {
        opacity: 0.1;
      }

      .cls-8 {
        opacity: 0.4;
      }

      .cls-14, .cls-9 {
        fill: #a64d16;
      }

      .cls-10 {
        fill: #ffa666;
      }

      .cls-11 {
        fill: #fff49f;
      }

      .cls-12 {
        fill: #8190ba;
      }

      .cls-13 {
        fill: #82ebff;
      }

      .cls-15 {
        clip-path: url(#clip-path);
      }

      .cls-16 {
        fill: #52adc4;
      }
    </style>
    <clipPath id="clip-path" transform="translate(-48.42)">
      <path class="cls-1" d="M715.13,181.57c28.32,1.13,30.55,5.33,31.14,8.86,0,0,2,11.21,3.54,24.36h0s-1.38,5.53-7,2.32c0,0-3.74,5.45-7.55.28,0,0-4.34,5.46-8.62.53,0,0-4.64,3.39-7.5-.48,0,0-4.28,4.69-8.14.87,0,0-4.58,4.4-8.32.23,0,0-5.7,3-8.39-.78,0,0-3.58,3.74-6.78.34,0,0-6,2.08-7.64-1.85l-1-.39a167.13,167.13,0,0,0,2.25-27.32S681.79,180.24,715.13,181.57Z"/>
    </clipPath>
  </defs>
  <title>bg-deco-2</title>
  <g>
    <line class="cls-2" x1="228.74" x2="228.74" y2="159.88"/>
    <line class="cls-2" x1="431.52" x2="431.52" y2="143.06"/>
    <line class="cls-2" x1="580.14" x2="580.14" y2="103.2"/>
    <line class="cls-2" x1="644.37" x2="644.37" y2="124.02"/>
    <line class="cls-2" x1="669.56" x2="669.56" y2="185.07"/>
    <line class="cls-2" x1="533.54" x2="533.54" y2="302.2"/>
    <line class="cls-2" x1="324.46" x2="324.46" y2="362.66"/>
    <line class="cls-2" x1="349.65" x2="349.65" y2="127.13"/>
    <line class="cls-2" x1="456.71" x2="456.71" y2="321.1"/>
    <line class="cls-2" x1="599.03" x2="599.03" y2="399.61"/>
    <line class="cls-2" x1="124.2" x2="124.2" y2="120.99"/>
    <line class="cls-2" x1="54.93" x2="54.93" y2="102.83"/>
    <line class="cls-2" x1="159.47" x2="159.47" y2="319.84"/>
    <line class="cls-2" x1="86" x2="86" y2="276.27"/>
    <g>
      <path class="cls-3" d="M439.53,182.5l-3.75-.2a58.38,58.38,0,0,0-6.94,0h0c-7.53.5-11,2.63-11.62,4.29-1.93,4.93,9.44,18.73,35.07,30.78l4.82,2.27-2.31,5.83c-2.42,6.16-7.61,10.1-12.63,13.91-6,4.56-11.2,8.5-11.48,15.57-0.49,12.26,11.76,16.69,11.88,16.74l0.39,0.15a22.33,22.33,0,0,0,9,1.37,15.24,15.24,0,0,0,11.06-5.58c4.6-5.38,3.47-11.79,2.16-19.22-1.09-6.21-2.22-12.62.19-18.78l2.27-5.89,5.05,1.56c12.76,3.94,24.76,5.78,33.79,5.17,7.54-.5,11-2.63,11.63-4.3,1-2.5-1.95-8.5-10.69-15.78l-2.88-2.4L501,205.55a147.24,147.24,0,0,0-57.16-22.41Z" transform="translate(-48.42)"/>
      <g>
        <path class="cls-4" d="M440.79,182.42l-3.75-.2a58.36,58.36,0,0,0-6.94,0h0c-7.53.5-11,2.63-11.62,4.29-1.93,4.93,9.44,18.73,35.07,30.78l4.82,2.27-2.31,5.83c-2.42,6.16-7.61,10.1-12.63,13.91-6,4.56-11.2,8.5-11.48,15.57-0.49,12.26,11.76,16.69,11.88,16.74l0.39,0.15a22.33,22.33,0,0,0,9,1.37,15.24,15.24,0,0,0,11.06-5.58c4.6-5.38,3.47-11.79,2.16-19.22-1.09-6.21-2.22-12.62.19-18.78l2.27-5.89,5.05,1.56c12.76,3.94,24.76,5.78,33.79,5.17,7.54-.5,11-2.63,11.63-4.3,1-2.5-1.95-8.5-10.69-15.78l-2.88-2.4-3.59-2.46a147.24,147.24,0,0,0-57.16-22.41Z" transform="translate(-48.42)"/>
        <g>
          <path class="cls-5" d="M436.67,180.47l4.25,0.51,4.25,0.51c0-.22,2.85-22.11,17-30.54,7.45-4.45,17-4.42,28.49.07s18.5,11,20.94,19.31c4.64,15.79-8.17,33.76-8.3,33.94l3.46,2.51,3.46,2.51c0.63-.87,15.4-21.49,9.6-41.33-3.22-11-12-19.4-26-24.91s-26.19-5.33-36,.57C440,154.24,436.79,179.4,436.67,180.47Z" transform="translate(-48.42)"/>
          <ellipse class="cls-1" cx="468.94" cy="206.32" rx="21.86" ry="59.88" transform="translate(57.25 567.59) rotate(-68.59)"/>
          <g>
            <path class="cls-6" d="M426.28,254.66C425.62,271.25,442,277,442,277s15.86,6.91,26.66-5.71-1.12-28.3,3.33-39.62,6.5-18.78-3.34-22.63-13.39,3-17.83,14.33S426.94,238.06,426.28,254.66Z" transform="translate(-48.42)"/>
            <path class="cls-7" d="M442,277a26.51,26.51,0,0,0,6.36,1.63s-16.81-9.18-14.59-22.74,14.17-15.08,19-26.59,13.17-20.7,21.35-16.42h0a11.81,11.81,0,0,0-5.49-3.84c-9.84-3.86-13.39,3-17.83,14.33s-23.83,14.73-24.49,31.32S442,277,442,277Z" transform="translate(-48.42)"/>
            <ellipse class="cls-8" cx="453.65" cy="263.82" rx="11.85" ry="9.43" transform="matrix(0.96, -0.26, 0.26, 0.96, -101.96, 129.07)"/>
          </g>
        </g>
      </g>
    </g>
    <g>
      <path class="cls-5" d="M236,209.62c0.95,6.22,1.75,13.52,1.36,18.88-0.25,3.53,2.37,13.13,9.85,20.4,6.25,6.08,14,8.69,23.06,7.78,9.34-.94,21.42-5.56,34-13,20.21-11.93,33.95-26.3,35.55-33.3,1.55-6.78-.57-17.43-7.55-23.81-6.18-5.65-15.06-6.81-25.68-3.35l-14.3,4.66,6.64-13.49a25.3,25.3,0,0,0,2.44-8.26l0.56-4.81,4.79-.73a6,6,0,0,0,1-.24l-10-.53,9-9.91a19.44,19.44,0,0,0,3.65-5.86l-0.33.34a11.71,11.71,0,0,1-2.36,1.85c-5.68,3.35-11.84.56-12.52,0.23l2.12-4.39-3.46,3.54a25.54,25.54,0,0,0-30.24-2.93c-12.13,7.16-16.36,22.54-9.42,34.28A24.62,24.62,0,0,0,276,189l0.9-.22,1.55,0.4-1.22,4.74,0.76,5.94,0.4,1.62a70.41,70.41,0,0,0-14,5.89C257.49,211,245.69,211.88,236,209.62Z" transform="translate(-48.42)"/>
      <g>
        <path class="cls-4" d="M234.78,210.34c0.95,6.22,1.75,13.52,1.36,18.88-0.25,3.53,2.37,13.13,9.85,20.4,6.25,6.08,14,8.69,23.06,7.78,9.34-.94,21.42-5.56,34-13,20.21-11.93,33.95-26.3,35.55-33.3,1.55-6.78-.57-17.42-7.55-23.81-6.18-5.65-15.06-6.81-25.68-3.35l-14.3,4.66,6.64-13.49a25.3,25.3,0,0,0,2.44-8.26l0.56-4.81,4.79-.73a6,6,0,0,0,1-.24l-10-.53,9-9.91a19.42,19.42,0,0,0,3.65-5.85l-0.33.34a11.71,11.71,0,0,1-2.36,1.85c-5.68,3.35-11.84.56-12.52,0.23l2.12-4.39-3.46,3.54a25.54,25.54,0,0,0-30.24-2.93C250.3,150.6,246.07,166,253,177.72a24.62,24.62,0,0,0,21.82,11.95l0.9-.22,1.55,0.4-1.22,4.74,0.76,5.94,0.4,1.62a70.41,70.41,0,0,0-14,5.89C256.28,211.76,244.47,212.6,234.78,210.34Z" transform="translate(-48.42)"/>
        <g>
          <ellipse class="cls-6" cx="275" cy="164.73" rx="31.89" ry="31.07" transform="translate(-93.98 162.7) rotate(-30.56)"/>
          <path class="cls-6" d="M275.69,196a74.49,74.49,0,0,0-15.46,6.45c-9.14,4.89-28.61,3.22-34-3.25,0,0,3.43,19.22,3.53,29.57,0.12,12.16,11.44,37.81,39.88,34.95s71.3-34.5,75.12-51.19-9-45.14-41.39-34.61C303.42,177.92,287.47,194.24,275.69,196Z" transform="translate(-48.42)"/>
          <ellipse class="cls-9" cx="285.92" cy="149.3" rx="3.02" ry="6.21" transform="translate(-62.23 268.47) rotate(-49.25)"/>
          <path class="cls-10" d="M296.77,141.5s4.6,2.22,7.62-.82,6-9.51,10.13-6.86,2.52,13.7-4.24,21.12c0,0,6.89.36,7.68,3.19s-1.33,5.85-8.85,8.77c0,0-6.73,3-10.08-2.28S303.88,148.19,296.77,141.5Z" transform="translate(-48.42)"/>
          <g>
            <path class="cls-10" d="M263,226.06a57.36,57.36,0,0,0,13.5-13.48c5.47-7.79,19.67-16.55,29.71-5s-5.24,42.59-29,42.57c0,0-10.7,5.36-17.77-5.65,0,0-9-3.63-11.22-15.79A16.61,16.61,0,0,0,263,226.06Z" transform="translate(-48.42)"/>
            <path class="cls-9" d="M259.46,244.49s17.73-9.14,21.93-19.4c0,0-5.74,10.86-23.65,18.47Z" transform="translate(-48.42)"/>
            <path class="cls-9" d="M277.23,250.14s16-12.54,17.79-19.87c0,0-2.5,6.8-20,20.67Z" transform="translate(-48.42)"/>
          </g>
        </g>
      </g>
    </g>
    <g>
      <path class="cls-3" d="M234.46,426l1.88,4.69a9.35,9.35,0,0,0,3.06,4.1,10.25,10.25,0,0,0,7.69,1.71,18.56,18.56,0,0,0,11.84-7.55c5.08-6.8,5.35-15.73.61-19.91l-2.65-2.34,0.8-3.44c0.15-.64.28-1.31,0.39-2L260,389.06l8.31,9.11a7.66,7.66,0,0,0,6.78,2.23h0a6.26,6.26,0,0,0,4-1.91c2.51-3.54-.76-12.69-17.46-27.76-10.75-9.7-21.2-12-25.18-12.54L234.8,358l-7.18-5.79,5.8-4.6A34.93,34.93,0,0,0,246.3,315.3l0-.15-0.67-4.63L250,308.8a9.51,9.51,0,1,0-9.52-16.2l-3.64,3-3.72-2.87a34.77,34.77,0,0,0-49.19,6.88l-2.8,3.79-4.32-1.88a9.51,9.51,0,1,0-4.7,18.18l4.68,0.45,0.67,5.05A34.93,34.93,0,0,0,199,352.61l13.1,5.22-12.9,5.7c-3.69,1.63-13.1,6.77-20.72,19.2-11.76,19.18-12.31,28.88-8.9,31.57a6.29,6.29,0,0,0,4.38.7,7.53,7.53,0,0,0,6.19-4.81l5.1-14,5.91,13.72c0.33,0.77.73,1.57,1.24,2.5l1.74,3.17-2,3c-3.62,5.36-.9,14,6.06,19.16a18.56,18.56,0,0,0,13.49,3.89,10.25,10.25,0,0,0,6.89-3.82,9.37,9.37,0,0,0,1.78-4.82l0.47-5.09,5.11-.27c0.77,0,1.3-.09,1.48-0.11l1-.15c0.14,0,.51-0.1,1.06-0.22Z" transform="translate(-48.42)"/>
      <g>
        <path class="cls-4" d="M233.16,426.17l1.88,4.69A9.35,9.35,0,0,0,238.1,435a10.25,10.25,0,0,0,7.69,1.71,18.56,18.56,0,0,0,11.84-7.55c5.08-6.8,5.35-15.73.61-19.91l-2.65-2.34,0.8-3.44c0.15-.64.28-1.31,0.39-2l1.91-12.18,8.31,9.11a7.66,7.66,0,0,0,6.78,2.23h0a6.27,6.27,0,0,0,4-1.91c2.51-3.54-.76-12.69-17.46-27.76-10.75-9.7-21.2-12-25.18-12.54l-1.63-.22-7.18-5.79,5.8-4.6A34.93,34.93,0,0,0,245,315.49l0-.15-0.67-4.63,4.35-1.72a9.51,9.51,0,1,0-9.52-16.2l-3.64,3-3.72-2.87a34.77,34.77,0,0,0-49.19,6.88l-2.8,3.79-4.32-1.88a9.51,9.51,0,1,0-4.7,18.18l4.68,0.45,0.67,5.05a34.93,34.93,0,0,0,21.61,27.43l13.1,5.22-12.9,5.7c-3.69,1.63-13.1,6.77-20.72,19.2-11.76,19.18-12.31,28.88-8.9,31.57a6.29,6.29,0,0,0,4.38.7,7.53,7.53,0,0,0,6.19-4.81l5.1-14,5.91,13.72c0.33,0.77.73,1.57,1.24,2.5l1.74,3.17-2,3c-3.62,5.36-.9,14,6.06,19.16a18.56,18.56,0,0,0,13.49,3.89A10.25,10.25,0,0,0,217.3,438a9.37,9.37,0,0,0,1.78-4.82l0.47-5.09,5.11-.27c0.77,0,1.3-.09,1.48-0.11l1-.15c0.14,0,.51-0.1,1.06-0.22Z" transform="translate(-48.42)"/>
        <g>
          <g>
            <path class="cls-1" d="M197.72,357.45s-14.55,4.43-25.55,22.37-15.57,33-7.51,39.31c5.34,4.2,18.12,2.34,20.4-8.87,1-5.05,1.18-14.85,4.42-23.62a59.71,59.71,0,0,1,6.79-13.57Z" transform="translate(-48.42)"/>
            <path class="cls-1" d="M233.44,352.29s15.21,0.13,30.83,14.23,24.26,27.22,18.32,35.58c-3.93,5.54-16.72,7.37-22.08-2.74-2.42-4.55-5.33-13.91-10.92-21.4a59.68,59.68,0,0,0-10.35-11.1Z" transform="translate(-48.42)"/>
            <path class="cls-11" d="M226.28,345.46l-10.89,4.14-11.61-.89s-30,33.48-20.29,61.21,43.4,23.62,43.4,23.62l1.22-.18s33.5-5.6,34.94-34.93S226.28,345.46,226.28,345.46Z" transform="translate(-48.42)"/>
            <g>
              <ellipse class="cls-1" cx="204.19" cy="428.16" rx="18.07" ry="22.29" transform="translate(-309.41 335.3) rotate(-53.21)"/>
              <ellipse class="cls-11" cx="204.19" cy="428.16" rx="11.78" ry="14.53" transform="translate(-309.41 335.33) rotate(-53.22)"/>
            </g>
            <g>
              <ellipse class="cls-1" cx="247.9" cy="421.84" rx="22.29" ry="18.07" transform="translate(-286.82 367.78) rotate(-53.22)"/>
              <ellipse class="cls-11" cx="247.9" cy="421.85" rx="14.53" ry="11.78" transform="translate(-286.82 367.78) rotate(-53.22)"/>
            </g>
          </g>
          <g>
            <path class="cls-1" d="M260.44,297.94a15.42,15.42,0,0,0-25-9.74,40.69,40.69,0,0,0-57.56,8.05,15.43,15.43,0,1,0-7.62,29.5c0,0.17,0,.34.06,0.52a40.71,40.71,0,0,0,80.59-11.63l0-.15A15.44,15.44,0,0,0,260.44,297.94Z" transform="translate(-48.42)"/>
            <g>
              <ellipse class="cls-9" cx="196.77" cy="328.13" rx="3.23" ry="3.93" transform="translate(-93.29 31.49) rotate(-8.22)"/>
              <ellipse class="cls-9" cx="225.81" cy="323.94" rx="3.23" ry="3.93" transform="translate(-92.39 35.59) rotate(-8.22)"/>
            </g>
            <path class="cls-11" d="M233.26,335.5c-5-8.39-18-9.28-22.42-8.7s-15.58,5.08-18,14.53c-2.76,11,13.43,15.42,22.65,14.09C224.42,354.14,239,345.22,233.26,335.5Z" transform="translate(-48.42)"/>
            <path class="cls-9" d="M211.69,328.82c-1.88.27-6.82,1.88-6.33,5.25,0.43,3,5.83,5,7.83,5.11,1.89-.65,6.49-4.15,6.06-7.12C218.76,328.69,213.57,328.55,211.69,328.82Z" transform="translate(-48.42)"/>
            <path class="cls-9" d="M228.88,339.39c0,0.45-1.07,10.79-13.3,12.18V351.5l-0.58.12-0.59.05v0.06c-12.12,2.12-16-7.5-16.2-7.92l-1.13.4c0,0.11,4.26,10.55,16.88,8.73,0.39-.06.8-0.14,1.2-0.22s0.83-.07,1.21-0.12c12.62-1.82,13.71-13,13.72-13.15Z" transform="translate(-48.42)"/>
            <rect class="cls-9" x="213.61" y="339.1" width="1.12" height="13.74" transform="translate(-95.65 34.14) rotate(-8.21)"/>
            <path class="cls-11" d="M174.27,302.73s-9.67-1.56-10.81,5.39c-1.38,8.43,7.38,10.14,7.38,10.14Z" transform="translate(-48.42)"/>
            <path class="cls-11" d="M240.38,293.18s8.84-4.23,11.89,2.11c3.71,7.69-4.21,11.81-4.21,11.81Z" transform="translate(-48.42)"/>
          </g>
        </g>
      </g>
    </g>
    <g>
      <path class="cls-12" d="M68,128.07c-4.6,1.78-7.33,5.65-8.34,11.83C59.29,142,58.7,144.8,58,148c-4,18.74-11.45,53.62,4.7,72.87,8.34,9.94,22.48,14.63,42,13.93,9.27-.33,17.32-1.79,23.92-4.33,37.12-14.3,23.2-62.44,16.51-85.57-0.91-3.14-1.69-5.84-2.19-8-1.38-5.83-5.07-12.44-14.71-11.88,1.25,11.26-1.12,21.48-6.71,28.55a25,25,0,0,1-10.72,8,26.71,26.71,0,0,1-8.66,1.73,25.16,25.16,0,0,1-20-8.3c-6.08-6.66-9.17-16.67-8.72-28A16.79,16.79,0,0,0,68,128.07Z" transform="translate(-48.42)"/>
      <g>
        <path class="cls-4" d="M68.36,129.06c-4.6,1.78-7.33,5.65-8.34,11.83-0.35,2.14-.94,4.89-1.62,8.08-4,18.74-11.45,53.62,4.7,72.87,8.34,9.94,22.48,14.63,42,13.94,9.27-.33,17.32-1.79,23.92-4.33,37.12-14.3,23.2-62.43,16.51-85.57-0.91-3.14-1.69-5.84-2.19-8C142,132.11,138.3,125.5,128.66,126c1.25,11.26-1.12,21.48-6.71,28.55a25,25,0,0,1-10.72,8,26.73,26.73,0,0,1-8.66,1.74,25.16,25.16,0,0,1-20-8.3c-6.08-6.66-9.17-16.67-8.72-28A16.78,16.78,0,0,0,68.36,129.06Z" transform="translate(-48.42)"/>
        <g>
          <path class="cls-5" d="M148,136.83c-4.68-19.72-23.2-15.08-23.2-15.08,6.36,39.69-22.35,39.37-22.35,39.37s-28.12,2.45-25.08-37.69c0,0-18.81-3.31-22.08,16.69s-30,103.27,50,100.43S152.69,156.55,148,136.83Z" transform="translate(-48.42)"/>
          <path class="cls-6" d="M126.33,121.44c-4.57-22.93-25.89-22.72-26.1-22.71v0c-0.22,0-21.5,1.31-24.42,24.5-1.62,12.87,1.26,24.42,7.91,31.69a23.59,23.59,0,0,0,18.77,7.78h0a23.6,23.6,0,0,0,18.17-9.1C126.81,145.88,128.86,134.16,126.33,121.44Zm-8.13,30.2a21.31,21.31,0,0,1-32.14,1.14c-6-6.58-8.6-17.21-7.1-29.15,2.56-20.28,20.25-21.66,21.38-21.72s18.88,0.1,22.87,20.15C125.56,133.86,123.73,144.64,118.2,151.64Z" transform="translate(-48.42)"/>
          <g>
            <path class="cls-6" d="M108.35,103.2c-2.68.1-6.31-.2-8.36-2.16L98.87,100l1-1.15c0.47-.53,11.63-13,20.19-13.31a7.48,7.48,0,0,1,6.23,2.75,5.68,5.68,0,0,1,1.08,6.28C125.65,98.45,117.87,102.86,108.35,103.2Zm-4.74-3.68a13.7,13.7,0,0,0,4.63.5c6.91-.25,14.81-3.53,16.26-6.76a2.58,2.58,0,0,0-.63-2.95,4.23,4.23,0,0,0-3.67-1.6C114.93,88.89,107.37,95.62,103.6,99.52Z" transform="translate(-48.42)"/>
            <path class="cls-6" d="M72.25,96.52a5.68,5.68,0,0,1,.64-6.34,7.47,7.47,0,0,1,6-3.18c8.56-.3,20.57,11.34,21.08,11.84l1.1,1.07L100,101c-1.91,2.1-5.5,2.65-8.18,2.74C82.34,104.12,74.27,100.28,72.25,96.52ZM79,90.17A4.24,4.24,0,0,0,75.47,92a2.58,2.58,0,0,0-.42,3c1.67,3.12,9.78,5.83,16.7,5.59a13.62,13.62,0,0,0,4.58-.83C92.3,96.16,84.28,90,79,90.17Z" transform="translate(-48.42)"/>
          </g>
        </g>
      </g>
    </g>
    <g>
      <path class="cls-13" d="M187,147.21a31.66,31.66,0,0,1-1.9-33.1,31.67,31.67,0,1,0,32.3,46.36A31.66,31.66,0,0,1,187,147.21Z" transform="translate(-48.42)"/>
      <g>
        <path class="cls-12" d="M178.68,121a27.16,27.16,0,0,0,11.82,51.63,27,27,0,0,0,15.5-4.88,27.44,27.44,0,0,0,3.36-2.76A36.18,36.18,0,0,1,178.68,121Z" transform="translate(-48.42)"/>
        <g>
          <path class="cls-4" d="M177.68,121a27.16,27.16,0,0,0,11.82,51.63,27,27,0,0,0,15.5-4.88,27.34,27.34,0,0,0,3.36-2.76A36.18,36.18,0,0,1,177.68,121Z" transform="translate(-48.42)"/>
          <path class="cls-3" d="M187,147.21a31.66,31.66,0,0,1-1.9-33.1,31.67,31.67,0,1,0,32.3,46.36A31.66,31.66,0,0,1,187,147.21Z" transform="translate(-48.42)"/>
        </g>
      </g>
    </g>
    <g>
      <path class="cls-9" d="M547.81,425l-0.38,1,0.38-1h0Zm7.07-96.58a30.22,30.22,0,0,0,12,24.91l3.16,2.38-2.62,6.89,7.2,2.74,2.54-6.68,4.11,0.52A30.37,30.37,0,0,0,610.13,346l0.24-.37,0.38-.61,0.39-.65,0.34-.61,0.36-.66,0.27-.54c0.15-.3.27-0.58,0.4-0.86l0.21-.45c0.19-.44.38-0.88,0.55-1.33l0-.07A30,30,0,0,0,615.24,329v-0.13a30,30,0,0,0-.86-6.78l0-.13c-0.11-.45-0.24-0.92-0.38-1.39s-0.34-1.06-.51-1.53l0-.06c-0.19-.51-0.37-1-0.56-1.43A30.15,30.15,0,0,0,572.13,302L572,302q-0.7.33-1.39,0.71l-0.12.07c-0.41.23-.82,0.46-1.22,0.71l-0.1.06c-0.45.28-.83,0.52-1.2,0.78l-0.11.08c-0.42.29-.83,0.59-1.24,0.9l-0.1.08a30,30,0,0,0-5.5,5.55l-0.11.14a30.29,30.29,0,0,0-4,7.23l-0.14.39c-0.26.69-.5,1.44-0.74,2.27l0,0.16c-0.21.75-.39,1.52-0.55,2.31l-5.2-.88,5.16,1.05a29.64,29.64,0,0,0-.52,4.73v0.1Z" transform="translate(-48.42)"/>
      <g>
        <path class="cls-4" d="M546.54,425l-0.38,1,0.38-1h0Zm7.07-96.58a30.22,30.22,0,0,0,12,24.91l3.16,2.38-2.62,6.89,7.21,2.74,2.54-6.68,4.11,0.52A30.37,30.37,0,0,0,608.87,346l0.24-.37,0.38-.61,0.39-.65,0.34-.61,0.35-.67,0.27-.54c0.15-.3.27-0.58,0.4-0.86l0.21-.45c0.19-.44.37-0.88,0.55-1.33l0-.07A30.06,30.06,0,0,0,614,329v-0.13a30.05,30.05,0,0,0-.86-6.78l0-.13c-0.11-.45-0.24-0.92-0.38-1.39s-0.34-1.06-.51-1.53l0-.06c-0.19-.51-0.37-1-0.56-1.43A30.15,30.15,0,0,0,570.86,302l-0.09,0q-0.7.33-1.39,0.71l-0.12.07q-0.62.34-1.22,0.7l-0.1.06c-0.45.28-.83,0.52-1.2,0.78l-0.11.08q-0.63.43-1.24,0.9l-0.1.08a29.92,29.92,0,0,0-5.5,5.55l-0.11.14a30.36,30.36,0,0,0-4,7.23l-0.14.39c-0.26.69-.51,1.44-0.74,2.27l0,0.16c-0.21.75-.39,1.52-0.55,2.31l-5.2-.88,5.16,1.05a29.8,29.8,0,0,0-.52,4.74v0.1Z" transform="translate(-48.42)"/>
        <g>
          <rect class="cls-6" x="564.57" y="354.97" width="10.3" height="18.24" transform="matrix(0.36, -0.93, 0.93, 0.36, -21.51, 767.22)"/>
          <rect class="cls-6" x="542.11" y="382.3" width="39.02" height="8.12" transform="translate(-47.52 774.03) rotate(-69.19)"/>
          <path class="cls-6" d="M556.66,398.45a14.74,14.74,0,1,0,8.54,19A14.74,14.74,0,0,0,556.66,398.45Zm-8.24,21.65a8.42,8.42,0,1,1,10.86-4.88A8.42,8.42,0,0,1,548.42,420.11Z" transform="translate(-48.42)"/>
          <g>
            <circle class="cls-5" cx="583.79" cy="329.24" r="35.46" transform="translate(20.12 757.88) rotate(-69.18)"/>
            <g>
              <g>
                <g>
                  <circle class="cls-3" cx="555.48" cy="339.2" r="2.38" transform="translate(-7.45 737.81) rotate(-69.18)"/>
                  <circle class="cls-3" cx="564.99" cy="346.12" r="2.38" transform="translate(-7.83 751.11) rotate(-69.17)"/>
                </g>
                <circle class="cls-3" cx="575.33" cy="350.81" r="2.38" transform="translate(-5.59 763.74) rotate(-69.17)"/>
                <g>
                  <circle class="cls-3" cx="597.85" cy="355.31" r="2.38" transform="translate(4.72 787.71) rotate(-69.17)"/>
                  <circle class="cls-3" cx="586.15" cy="354.16" r="2.38" transform="translate(-1.61 776.21) rotate(-69.19)"/>
                </g>
              </g>
              <path class="cls-3" d="M568.52,297.25a35.75,35.75,0,0,0-6.37,3.9c26.52,25.12,56.41,21.48,56.47,21.48a35.51,35.51,0,0,0-2.17-7.15A71.33,71.33,0,0,1,568.52,297.25Z" transform="translate(-48.42)"/>
              <path class="cls-3" d="M619.24,328.93l-0.3-.83c-0.5-1.38-2.23-1.22-3-.32l-5.46,6-4-8.64a1.77,1.77,0,0,0-2.34-.89L594,330.38l-5.44-10a1.83,1.83,0,0,0-2.34-.89L575,323.08q-0.88-4.47-1.77-8.94a1.78,1.78,0,0,0-2-1.46L562,315.45q-0.18-4.38-.36-8.76a1.77,1.77,0,0,0-2-1.46l-2.34.49A35,35,0,0,0,554,310l4.23-.89q0.18,4.47.37,8.94a1.76,1.76,0,0,0,2,1.46l9.48-2.85,1.77,9a1.81,1.81,0,0,0,2.48,1.33L586,323.2l5.63,10.38a1.78,1.78,0,0,0,2.34.89l10-6.09,4.31,9.26a1.8,1.8,0,0,0,3,.32l5.28-5.8,1.74,4.76A35.15,35.15,0,0,0,619.24,328.93Z" transform="translate(-48.42)"/>
              <path class="cls-3" d="M550.59,316.81a35.39,35.39,0,0,0-2.24,11.43,109.3,109.3,0,0,0,62.47,24,35.28,35.28,0,0,0,6.11-10.35h0C580.42,341.9,555.77,321.51,550.59,316.81Z" transform="translate(-48.42)"/>
            </g>
          </g>
          <line class="cls-10" x1="526.46" y1="363.01" x2="518.88" y2="360.12"/>
        </g>
      </g>
    </g>
    <g>
      <path class="cls-13" d="M626.28,136.46a39.78,39.78,0,0,1,35.35-22.07A39.8,39.8,0,1,0,630,178,39.78,39.78,0,0,1,626.28,136.46Z" transform="translate(-48.42)"/>
      <g>
        <path class="cls-12" d="M650.84,110.41a34.13,34.13,0,0,0-49.79,44.18,33.92,33.92,0,0,0,14.72,14.14,34.5,34.5,0,0,0,5.07,2A45.47,45.47,0,0,1,650.84,110.41Z" transform="translate(-48.42)"/>
        <g>
          <path class="cls-4" d="M649.58,110.41a34.13,34.13,0,0,0-49.79,44.18,33.92,33.92,0,0,0,14.72,14.14,34.52,34.52,0,0,0,5.07,2A45.47,45.47,0,0,1,649.58,110.41Z" transform="translate(-48.42)"/>
          <path class="cls-6" d="M626.28,136.46a39.78,39.78,0,0,1,35.35-22.07A39.8,39.8,0,1,0,630,178,39.78,39.78,0,0,1,626.28,136.46Z" transform="translate(-48.42)"/>
        </g>
      </g>
    </g>
    <g>
      <path class="cls-3" d="M434.79,435.89c2.67,4.63,1.91,9.5-.47,11.13l4.53,7.19-35,20.18L399.65,467c-2.89,1.64-7.62-.73-10.12-5.07l-26-45.18c-2.66-4.63-1.91-9.49.46-11.13L358,396l-1.55.89-3.67-6.36,7.87-4.54L358,381.18a5.15,5.15,0,0,1-.59-3.33c0.15-1.07.36-2.16,0.57-3.27,1.09-5.79,2.59-13.72-3.26-20.48-2.26-2.61-2.87-4.69-2.7-5.68,0-.2.13-0.79,1.44-1.55s1.86-.53,2-0.46c0.94,0.35,2.43,1.92,3.56,5.19,2.92,8.44,10.53,11.12,16.09,13.08,1.06,0.37,2.11.74,3.11,1.14a5.14,5.14,0,0,1,2.59,2.18l2.88,4.71,7.93-4.57,3.67,6.36-2.24,1.29,5.61,9.85c2.89-1.63,7.62.74,10.11,5.08Z" transform="translate(-48.42)"/>
      <g>
        <path class="cls-4" d="M433.07,435.43c2.67,4.63,1.91,9.5-.47,11.13l4.53,7.19-35,20.18-4.22-7.39c-2.89,1.64-7.62-.74-10.12-5.07l-26-45.18c-2.66-4.63-1.91-9.49.46-11.13l-6-9.58-1.55.89L351,390.11l7.87-4.54-2.63-4.85a5.15,5.15,0,0,1-.59-3.33c0.15-1.07.36-2.16,0.57-3.27,1.09-5.79,2.59-13.72-3.26-20.48-2.26-2.61-2.87-4.69-2.7-5.68,0-.2.13-0.79,1.44-1.55s1.85-.53,2-0.46c0.94,0.35,2.43,1.92,3.56,5.19,2.92,8.44,10.53,11.12,16.09,13.08,1.06,0.37,2.11.74,3.11,1.14a5.14,5.14,0,0,1,2.59,2.18l2.88,4.71,7.93-4.57,3.67,6.36-2.24,1.29,5.61,9.85c2.89-1.63,7.62.74,10.11,5.08Z" transform="translate(-48.42)"/>
        <g>
          <g>
            <path class="cls-11" d="M378.65,360.11c-5.94-2.4-13.49-3.66-16-10.82s-7.57-11.37-13.8-7.78-5.14,10.11-.18,15.84,2.27,12.9,1.37,19.24a11.53,11.53,0,0,0,4.51,10.68L369,376.48l16.59-7.12A11.53,11.53,0,0,0,378.65,360.11Z" transform="translate(-48.42)"/>
            <path class="cls-14" d="M362.68,349.29c-2.47-7.16-7.57-11.37-13.8-7.78,0,0,5.73-2.69,10,5.08s6.5,11.37,13.32,14c4,1.53,6.79,6.86,8.37,11l5.09-2.18a11.53,11.53,0,0,0-7-9.25C372.71,357.71,365.16,356.45,362.68,349.29Z" transform="translate(-48.42)"/>
            <path class="cls-8" d="M350.32,344.73c1.59,0.67,2.38,2.87,1.77,4.92s-2.41,3.15-4,2.48-2.38-2.87-1.76-4.91S348.72,344.05,350.32,344.73Z" transform="translate(-48.42)"/>
          </g>
          <g>
            <g>
              <path class="cls-1" d="M393.58,362.68a3.18,3.18,0,0,0-4.32-1.16L346,386.45a3.17,3.17,0,0,0-1.16,4.32l6.17,10.7a3.18,3.18,0,0,0,4.32,1.16l43.23-24.93a3.18,3.18,0,0,0,1.16-4.32Z" transform="translate(-48.42)"/>
              <g>
                <g>
                  <g>
                    <path class="cls-11" d="M356.34,396.94a1.42,1.42,0,0,1-.52,1.95h0a1.42,1.42,0,0,1-1.94-.52l-5.3-9.18a1.42,1.42,0,0,1,.52-1.95h0a1.43,1.43,0,0,1,1.95.52Z" transform="translate(-48.42)"/>
                    <path class="cls-11" d="M361.83,393.78a1.42,1.42,0,0,1-.52,1.94h0a1.42,1.42,0,0,1-1.95-.52l-5.3-9.18a1.42,1.42,0,0,1,.52-1.94h0a1.42,1.42,0,0,1,1.95.52Z" transform="translate(-48.42)"/>
                  </g>
                  <g>
                    <path class="cls-11" d="M367.31,390.62a1.43,1.43,0,0,1-.52,1.95h0a1.42,1.42,0,0,1-1.95-.52l-5.3-9.18a1.43,1.43,0,0,1,.52-1.95h0a1.42,1.42,0,0,1,1.95.52Z" transform="translate(-48.42)"/>
                    <path class="cls-11" d="M372.8,387.45a1.43,1.43,0,0,1-.52,1.95h0a1.43,1.43,0,0,1-1.95-.52l-5.3-9.19a1.42,1.42,0,0,1,.52-1.95h0a1.42,1.42,0,0,1,1.94.52Z" transform="translate(-48.42)"/>
                  </g>
                </g>
                <g>
                  <g>
                    <path class="cls-11" d="M378.28,384.29a1.43,1.43,0,0,1-.52,1.95h0a1.43,1.43,0,0,1-1.95-.52l-5.3-9.19a1.43,1.43,0,0,1,.52-1.95h0a1.43,1.43,0,0,1,1.95.52Z" transform="translate(-48.42)"/>
                    <path class="cls-11" d="M383.76,381.13a1.42,1.42,0,0,1-.52,1.95h0a1.42,1.42,0,0,1-1.94-.52l-5.3-9.18a1.43,1.43,0,0,1,.52-1.95h0a1.42,1.42,0,0,1,1.95.52Z" transform="translate(-48.42)"/>
                  </g>
                  <g>
                    <path class="cls-11" d="M389.25,378a1.43,1.43,0,0,1-.52,1.95h0a1.42,1.42,0,0,1-1.94-.52l-5.3-9.19a1.42,1.42,0,0,1,.52-1.95h0a1.42,1.42,0,0,1,1.94.52Z" transform="translate(-48.42)"/>
                    <path class="cls-11" d="M394.73,374.8a1.43,1.43,0,0,1-.52,1.95h0a1.42,1.42,0,0,1-1.95-.52L387,367a1.42,1.42,0,0,1,.52-1.95h0a1.42,1.42,0,0,1,1.95.52Z" transform="translate(-48.42)"/>
                  </g>
                </g>
              </g>
            </g>
            <path class="cls-1" d="M444.36,451.21c1.17,2,.75,4.48-0.93,5.45l-42.08,24.27c-1.68,1-4,.1-5.18-1.92s-0.75-4.48.93-5.45l42.08-24.27C440.86,448.32,443.19,449.19,444.36,451.21Z" transform="translate(-48.42)"/>
            <path class="cls-3" d="M438,432.6c4.16,7.24,2.91,15.77-2.81,19.05l-34.39,19.78c-5.71,3.29-13.72.09-17.88-7.15l-26-45.18c-4.16-7.24-2.91-15.77,2.81-19.05l34.39-19.78c5.71-3.29,13.72-.09,17.88,7.15Z" transform="translate(-48.42)"/>
          </g>
        </g>
      </g>
    </g>
    <g>
      <path class="cls-3" d="M713.25,190.34c-16.27-.65-23.13,1.11-25.77,2.22-0.44,24.46-5.94,48.22-14.25,61.22-0.53.83-1.17,1.79-1.88,2.87-5.67,8.59-18.94,28.71-15.36,41.8,1.23,4.48,4.5,8,10,10.66,8.45,4.12,15.5,4.38,22.21.82,8.07-4.29,14.48-13.48,19.62-20.86,2.17-3.11,4.22-6.05,6.22-8.39a107,107,0,0,1,11.51-11c8.08-7,15.06-13,16.15-22.22,1.56-13.11-2.7-42.36-4.7-53.95C735.32,192.71,729.74,191,713.25,190.34Z" transform="translate(-48.42)"/>
      <g>
        <path class="cls-4" d="M714.81,189.51c-16.27-.65-23.13,1.11-25.77,2.22C688.6,216.19,683.1,240,674.79,253c-0.53.83-1.17,1.79-1.88,2.87-5.67,8.59-18.94,28.71-15.36,41.8,1.23,4.48,4.5,8,10,10.65,8.45,4.12,15.5,4.38,22.21.82,8.07-4.29,14.48-13.48,19.62-20.86,2.17-3.11,4.22-6.05,6.22-8.39a107,107,0,0,1,11.51-11c8.08-7,15.06-13,16.15-22.22,1.56-13.11-2.7-42.36-4.7-53.95C736.88,191.88,731.3,190.17,714.81,189.51Z" transform="translate(-48.42)"/>
        <g>
          <path class="cls-6" d="M746.27,190.43s7,39.47,4.92,57.11S731.83,273.15,721.67,285s-25.06,46.27-57.58,30.41-3.48-55.06,4-66.76,13-35.53,13-60.15c0,0,.68-8.29,34-7C743.45,182.69,745.68,186.89,746.27,190.43Z" transform="translate(-48.42)"/>
          <g>
            <g>
              <path class="cls-1" d="M650.69,281.87c37.4,2.41,43,34.1,43,34.14-7.88,4.25-17.52,5.3-29.6-.59-15.69-7.65-17-20.74-13.4-33.55h0Z" transform="translate(-48.42)"/>
              <path class="cls-1" d="M716.2,247.1c6.4-8.51,34.95-18.27,34.95-18.27h0a107.52,107.52,0,0,1,0,18.71c-1.92,16.18-16.6,24.24-26.86,34.62h0S709.8,255.61,716.2,247.1Z" transform="translate(-48.42)"/>
            </g>
            <g>
              <path class="cls-1" d="M715.13,181.57c28.32,1.13,30.55,5.33,31.14,8.86,0,0,2,11.21,3.54,24.36h0s-1.38,5.53-7,2.32c0,0-3.74,5.45-7.55.28,0,0-4.34,5.46-8.62.53,0,0-4.64,3.39-7.5-.48,0,0-4.28,4.69-8.14.87,0,0-4.58,4.4-8.32.23,0,0-5.7,3-8.39-.78,0,0-3.58,3.74-6.78.34,0,0-6,2.08-7.64-1.85l-1-.39a167.13,167.13,0,0,0,2.25-27.32S681.79,180.24,715.13,181.57Z" transform="translate(-48.42)"/>
              <g class="cls-15">
                <g>
                  <path class="cls-6" d="M742.34,218.83l1.55-.15c0-1.08-.78-26.54-5.53-37.61l-1.41.78C741.58,192.63,742.34,218.57,742.34,218.83Z" transform="translate(-48.42)"/>
                  <path class="cls-6" d="M734.51,219.33l1.55,0c0-.24.84-24-3.69-39.07l-1.48.61C735.34,195.66,734.51,219.09,734.51,219.33Z" transform="translate(-48.42)"/>
                  <path class="cls-6" d="M725.57,220.08l1.52,0.21c0.18-1.07,4.33-26.35-1-40.63l-1.44.71C729.81,194.21,725.61,219.82,725.57,220.08Z" transform="translate(-48.42)"/>
                  <path class="cls-6" d="M717.81,219.77l1.52,0.21c0.18-1,4.36-25.71-1.26-40.63l-1.44.71C722.08,194.55,717.86,219.52,717.81,219.77Z" transform="translate(-48.42)"/>
                  <path class="cls-6" d="M709.35,221l1.51,0.28c0.22-1,5.22-25.52.14-41.88l-1.47.62C714.47,195.93,709.4,220.73,709.35,221Z" transform="translate(-48.42)"/>
                  <path class="cls-6" d="M700.73,221.46l1.49,0.36c0.28-1.07,6.72-26.42,1.92-42.14l-1.47.61C707.32,195.54,700.79,221.21,700.73,221.46Z" transform="translate(-48.42)"/>
                  <path class="cls-6" d="M692,220.89l1.5,0.31c0.27-1.17,6.57-28.92,2.53-40.62l-1.45.67C698.5,192.47,692.11,220.6,692,220.89Z" transform="translate(-48.42)"/>
                  <path class="cls-6" d="M685,221.47l1.5,0.33c0.24-1,5.93-25.29,1.78-39.25l-1.47.6C690.82,196.66,685.06,221.23,685,221.47Z" transform="translate(-48.42)"/>
                </g>
              </g>
            </g>
          </g>
        </g>
      </g>
    </g>
    <g>
      <path class="cls-12" d="M128.1,278.6a5.25,5.25,0,0,0-4.06,2.27c-0.75,1.08-1.1,3.62.17,7.52a135.14,135.14,0,0,0,5.26,12.84,135.71,135.71,0,0,0,13.47-3.31c3.9-1.27,5.75-3.05,6.18-4.29a5,5,0,0,0-1.17-5.27,7.25,7.25,0,0,0-1.24-.83,5.43,5.43,0,0,0-3.74-.31,3.07,3.07,0,0,0-1.09.43l-6.44,4.15-0.34-1.18-1.52.65-0.46-8.07a3,3,0,0,0-.28-1.12,5.32,5.32,0,0,0-2.48-2.86,7.47,7.47,0,0,0-1.43-.51A3.57,3.57,0,0,0,128.1,278.6Z" transform="translate(-48.42)"/>
      <g>
        <path class="cls-4" d="M128.1,277.34a5.25,5.25,0,0,0-4.06,2.27c-0.75,1.08-1.1,3.62.17,7.52A135.15,135.15,0,0,0,129.47,300a135.71,135.71,0,0,0,13.47-3.31c3.9-1.27,5.75-3.05,6.18-4.29A5,5,0,0,0,148,287.1a7.24,7.24,0,0,0-1.24-.83,5.43,5.43,0,0,0-3.74-.31,3.07,3.07,0,0,0-1.09.43l-6.44,4.15-0.34-1.18-1.52.65-0.46-8.07a3,3,0,0,0-.28-1.12,5.32,5.32,0,0,0-2.48-2.86,7.47,7.47,0,0,0-1.43-.51A3.57,3.57,0,0,0,128.1,277.34Z" transform="translate(-48.42)"/>
        <path class="cls-6" d="M154.48,294.22a10.58,10.58,0,0,0-2.9-11.48,12.92,12.92,0,0,0-2.29-1.52,11,11,0,0,0-7.4-.83,8.69,8.69,0,0,0-3.08,1.23h0a8.73,8.73,0,0,0-.82-3.22,11,11,0,0,0-5-5.49,13,13,0,0,0-2.58-1,10.58,10.58,0,0,0-11,4.42c-1.79,2.57-2.44,6.78-.56,12.52A147.63,147.63,0,0,0,126,305.74l0.32,0.5,0.59,0A147.89,147.89,0,0,0,144.7,302C150.44,300.18,153.45,297.18,154.48,294.22Z" transform="translate(-48.42)"/>
      </g>
    </g>
    <g>
      <path class="cls-12" d="M389.46,136.89l4.64,1.71,1.22,4.79,3.06-3.89,4.94,0.32-2.75-4.11,1.83-4.6-4.76,1.34-3.81-3.16-0.19,4.94Z" transform="translate(-48.42)"/>
      <g>
        <path class="cls-4" d="M388.2,136.8l4.64,1.71,1.22,4.79,3.06-3.89,4.93,0.32-2.75-4.11,1.83-4.6-4.76,1.34-3.81-3.16-0.19,4.94Z" transform="translate(-48.42)"/>
        <polygon class="cls-6" points="339.21 118.12 349.22 126.43 361.74 122.89 356.93 134.98 364.16 145.8 351.18 144.96 343.13 155.18 339.91 142.57 327.7 138.07 338.7 131.12 339.21 118.12"/>
      </g>
    </g>
    <g>
      <path class="cls-12" d="M498.83,329.91l3.1,3.85-1.42,4.74,4.62-1.76,4.07,2.81L509,334.62l3.93-3-4.77-1.3-1.64-4.67-2.71,4.14Z" transform="translate(-48.42)"/>
      <g>
        <path class="cls-4" d="M497.8,329.19l3.1,3.85-1.42,4.74,4.62-1.76,4.07,2.81-0.24-4.94,3.93-3-4.77-1.3-1.64-4.67-2.71,4.14Z" transform="translate(-48.42)"/>
        <polygon class="cls-3" points="458.49 312.87 462.8 325.15 475.36 328.56 465.02 336.45 465.66 349.45 454.96 342.05 442.79 346.68 446.52 334.21 438.36 324.07 451.37 323.77 458.49 312.87"/>
      </g>
    </g>
    <g>
      <path class="cls-16" d="M682.83,131.86a5.25,5.25,0,0,0-.42,4.63c0.47,1.23,2.37,3,6.31,4.1a135.29,135.29,0,0,0,13.57,2.9,136,136,0,0,0,4.86-13c1.15-3.93.72-6.47-.06-7.53a5,5,0,0,0-5-2,7.25,7.25,0,0,0-1.39.56,5.44,5.44,0,0,0-2.37,2.91,3,3,0,0,0-.26,1.14l-0.2,7.66-1.17-.39-0.32,1.62-6.92-4.17a3,3,0,0,0-1.08-.4,5.32,5.32,0,0,0-3.76.43,7.55,7.55,0,0,0-1.23.89A3.58,3.58,0,0,0,682.83,131.86Z" transform="translate(-48.42)"/>
      <g>
        <path class="cls-4" d="M681.57,131.86a5.25,5.25,0,0,0-.42,4.63c0.47,1.23,2.37,3,6.31,4.1A135.52,135.52,0,0,0,701,143.5a135.33,135.33,0,0,0,4.86-13c1.15-3.93.73-6.47-.06-7.53a5,5,0,0,0-5-2,7.22,7.22,0,0,0-1.39.56,5.43,5.43,0,0,0-2.37,2.91,3.09,3.09,0,0,0-.26,1.14l-0.2,7.66-1.17-.39-0.32,1.62-6.92-4.17a3.06,3.06,0,0,0-1.08-.4,5.32,5.32,0,0,0-3.76.43,7.42,7.42,0,0,0-1.23.89A3.51,3.51,0,0,0,681.57,131.86Z" transform="translate(-48.42)"/>
        <path class="cls-3" d="M710.38,119.6a10.58,10.58,0,0,0-11.11-4.08,12.93,12.93,0,0,0-2.55,1,11,11,0,0,0-4.86,5.64,8.69,8.69,0,0,0-.72,3.24h0A8.73,8.73,0,0,0,688,124.3a11,11,0,0,0-7.37,1.06,12.89,12.89,0,0,0-2.24,1.59,10.58,10.58,0,0,0-2.55,11.56c1.11,2.93,4.22,5.83,10,7.53a147.86,147.86,0,0,0,17.94,3.61l0.59,0,0.31-.51a147.68,147.68,0,0,0,6.62-17.06C713,126.3,712.25,122.12,710.38,119.6Z" transform="translate(-48.42)"/>
      </g>
    </g>
    <g>
      <path class="cls-12" d="M638,398.83a5.25,5.25,0,0,0-1.28,4.47c0.23,1.29,1.78,3.34,5.43,5.21A135.9,135.9,0,0,0,655,413.9a135.74,135.74,0,0,0,7.21-11.85c1.87-3.65,1.92-6.22,1.35-7.4a5,5,0,0,0-4.54-2.91,7.2,7.2,0,0,0-1.47.29,5.42,5.42,0,0,0-2.87,2.41,3.08,3.08,0,0,0-.46,1.07L652.56,403l-1.07-.6-0.62,1.53-6-5.4a3.07,3.07,0,0,0-1-.59,5.33,5.33,0,0,0-3.78-.28,7.4,7.4,0,0,0-1.38.64A3.57,3.57,0,0,0,638,398.83Z" transform="translate(-48.42)"/>
      <g>
        <path class="cls-4" d="M637.16,397.93a5.25,5.25,0,0,0-1.28,4.47c0.23,1.29,1.78,3.34,5.43,5.21A135.78,135.78,0,0,0,654.09,413a135.82,135.82,0,0,0,7.21-11.85c1.87-3.65,1.92-6.22,1.35-7.4a5,5,0,0,0-4.54-2.91,7.2,7.2,0,0,0-1.47.29,5.42,5.42,0,0,0-2.87,2.41,3.09,3.09,0,0,0-.47,1.07l-1.63,7.48-1.07-.6L650,403l-6-5.4a3.06,3.06,0,0,0-1-.59,5.33,5.33,0,0,0-3.78-.28,7.49,7.49,0,0,0-1.38.64A3.58,3.58,0,0,0,637.16,397.93Z" transform="translate(-48.42)"/>
        <path class="cls-6" d="M667.76,391.29a10.58,10.58,0,0,0-10.15-6.09,12.93,12.93,0,0,0-2.69.53,11,11,0,0,0-5.83,4.63,8.69,8.69,0,0,0-1.31,3h0a8.7,8.7,0,0,0-2.85-1.7,11,11,0,0,0-7.44-.34,13,13,0,0,0-2.5,1.14,10.58,10.58,0,0,0-4.67,10.88c0.55,3.08,3.05,6.52,8.43,9.27a147.59,147.59,0,0,0,16.94,6.9l0.58,0.13,0.4-.44a147.55,147.55,0,0,0,9.7-15.51C669.1,398.36,669.12,394.11,667.76,391.29Z" transform="translate(-48.42)"/>
      </g>
    </g>
  </g>
</svg>
