<svg id="Layer_3" data-name="Layer 3" xmlns="http://www.w3.org/2000/svg" viewBox="0 0 1500.15 1500.15">
  <defs>
    <style>
      .cls-1 {
        fill: #fff;
      }

      .cls-2 {
        fill: #e7839f;
      }

      .cls-3 {
        fill: #c6baa8;
      }

      .cls-4 {
        fill: #fdfcf5;
      }

      .cls-5 {
        fill: #b2a290;
      }

      .cls-6 {
        fill: #dad3c6;
      }

      .cls-7 {
        fill: #f7f5e8;
      }

      .cls-8 {
        fill: #646060;
      }
    </style>
  </defs>
  <title>icon-1-red</title>
  <rect class="cls-1" width="1500.15" height="1500.15"/>
  <g>
    <polygon class="cls-2" points="1425.19 1425.19 1390.19 1425.19 1390.19 1415.19 1415.19 1415.19 1415.19 1390.19 1425.19 1390.19 1425.19 1425.19"/>
    <path class="cls-2" d="M1399.15,1518.85h-61v-10h61v10Zm-121.93,0h-61v-10h61v10Zm-121.93,0h-61v-10h61v10Zm-121.93,0h-61v-10h61v10Zm-121.93,0h-61v-10h61v10Zm-121.93,0h-61v-10h61v10Zm-121.93,0h-61v-10h61v10Zm-121.93,0h-61v-10h61v10Zm-121.93,0h-61v-10h61v10Zm-121.93,0h-61v-10h61v10Z" transform="translate(-69.93 -93.65)"/>
    <polygon class="cls-2" points="109.96 1425.19 74.96 1425.19 74.96 1390.19 84.96 1390.19 84.96 1415.19 109.96 1415.19 109.96 1425.19"/>
    <path class="cls-2" d="M154.88,1422.88h-10v-61h10v61Zm0-121.93h-10v-61h10v61Zm0-121.93h-10v-61h10v61Zm0-121.93h-10v-61h10v61Zm0-121.93h-10v-61h10v61Zm0-121.93h-10v-61h10v61Zm0-121.93h-10v-61h10v61Zm0-121.93h-10v-61h10v61Zm0-121.93h-10v-61h10v61Zm0-121.93h-10v-61h10v61Z" transform="translate(-69.93 -93.65)"/>
    <polygon class="cls-2" points="84.96 109.96 74.96 109.96 74.96 74.96 109.96 74.96 109.96 84.96 84.96 84.96 84.96 109.96"/>
    <path class="cls-2" d="M1399.15,178.61h-61v-10h61v10Zm-121.93,0h-61v-10h61v10Zm-121.93,0h-61v-10h61v10Zm-121.93,0h-61v-10h61v10Zm-121.93,0h-61v-10h61v10Zm-121.93,0h-61v-10h61v10Zm-121.93,0h-61v-10h61v10Zm-121.93,0h-61v-10h61v10Zm-121.93,0h-61v-10h61v10Zm-121.93,0h-61v-10h61v10Z" transform="translate(-69.93 -93.65)"/>
    <polygon class="cls-2" points="1425.19 109.96 1415.19 109.96 1415.19 84.96 1390.19 84.96 1390.19 74.96 1425.19 74.96 1425.19 109.96"/>
    <path class="cls-2" d="M1495.12,1422.88h-10v-61h10v61Zm0-121.93h-10v-61h10v61Zm0-121.93h-10v-61h10v61Zm0-121.93h-10v-61h10v61Zm0-121.93h-10v-61h10v61Zm0-121.93h-10v-61h10v61Zm0-121.93h-10v-61h10v61Zm0-121.93h-10v-61h10v61Zm0-121.93h-10v-61h10v61Zm0-121.93h-10v-61h10v61Z" transform="translate(-69.93 -93.65)"/>
  </g>
  <path class="cls-3" d="M1165.77,946.6l-0.58-1.7a96.47,96.47,0,0,0-5.18-12.37c-43.13-85.32-123.36-120.74-147.47-129.76a95.13,95.13,0,0,0-11.52-3.54,741.89,741.89,0,0,0-196.2-19.18,741.78,741.78,0,0,0-196.19,19.18,94.89,94.89,0,0,0-11.51,3.54c-24.11,9-104.34,44.44-147.47,129.76a96.47,96.47,0,0,0-5.18,12.37c-0.18.53-.38,1.1-0.58,1.7-38.89,115.79,4.92,243.9,107.45,310.3,46.34,30,110.15,47.77,186.88,56.25a442.57,442.57,0,0,0,66.61,4.35,666.6,666.6,0,0,0,66.61-4.35c81.57-11.06,140.54-26.24,186.89-56.25C1160.86,1190.5,1204.66,1062.39,1165.77,946.6Z" transform="translate(-69.93 -93.65)"/>
  <ellipse class="cls-4" cx="734.91" cy="974.86" rx="197.69" ry="163.82"/>
  <path class="cls-5" d="M554,1132.9a6.16,6.16,0,0,1-5.34-5.74c-1.91-32,.18-62.65,6.23-91.1a268.07,268.07,0,0,1,22-63.85c16.7-33.5,34.41-49.61,35.16-50.27a6.16,6.16,0,0,1,8.24,9.17c-0.21.19-17,15.63-32.67,47.22-14.44,29.2-30.79,78.6-26.63,148.09A6.17,6.17,0,0,1,554,1132.9Z" transform="translate(-69.93 -93.65)"/>
  <path class="cls-5" d="M1067.26,1132.9a6.16,6.16,0,0,0,5.34-5.74c1.91-32-.18-62.65-6.23-91.1a268.07,268.07,0,0,0-22-63.85c-16.7-33.5-34.41-49.61-35.16-50.27a6.16,6.16,0,0,0-8.24,9.17c0.21,0.19,17,15.63,32.67,47.22,14.44,29.2,30.79,78.6,26.63,148.09A6.17,6.17,0,0,0,1067.26,1132.9Z" transform="translate(-69.93 -93.65)"/>
  <g>
    <ellipse class="cls-6" cx="529.19" cy="1173.86" rx="125.72" ry="150.86" transform="matrix(0.82, -0.58, 0.58, 0.82, -651.07, 428.17)"/>
    <ellipse class="cls-7" cx="546.41" cy="1226.89" rx="73.41" ry="88.08" transform="translate(-678.55 447.88) rotate(-35.31)"/>
  </g>
  <g>
    <ellipse class="cls-6" cx="1076.49" cy="1173.86" rx="150.86" ry="125.72" transform="translate(-573.56 1280.16) rotate(-54.69)"/>
    <ellipse class="cls-7" cx="1059.27" cy="1226.89" rx="88.08" ry="73.41" transform="translate(-624.1 1288.49) rotate(-54.69)"/>
  </g>
  <ellipse class="cls-6" cx="727.77" cy="541.46" rx="278.8" ry="222.58"/>
  <ellipse class="cls-6" cx="536.57" cy="459.7" rx="104.09" ry="83.1" transform="translate(-230.8 252.93) rotate(-31.38)"/>
  <ellipse class="cls-6" cx="1068.07" cy="457.87" rx="83.1" ry="104.09" transform="translate(-80.98 795.38) rotate(-44.98)"/>
  <g>
    <path class="cls-2" d="M777.86,405.79s-35.32-33.17-57.57-42.47c0,0-33.69-13.56-52.67,22.69,0,0-23.69,43.25,4.47,79.93,0,0,28.24,42.17,67.9,8,0,0,35.55-31,40.53-38C780.51,435.91,769.24,426.45,777.86,405.79Z" transform="translate(-69.93 -93.65)"/>
    <path class="cls-2" d="M796.45,403.56s33.1-35.38,54.71-46.09c0,0,32.74-15.7,54,19.25,0,0,26.43,41.63.69,80.05,0,0-25.47,43.9-67.25,12.31,0,0-37.47-28.64-42.89-35.29C795.74,433.79,806.38,423.63,796.45,403.56Z" transform="translate(-69.93 -93.65)"/>
    <rect class="cls-2" x="772.29" y="404.34" width="30.71" height="30.71" rx="6.56" ry="6.56" transform="translate(-107.37 -14.18) rotate(-5.64)"/>
  </g>
  <ellipse class="cls-4" cx="728.63" cy="578.07" rx="128.97" ry="88.93"/>
  <ellipse class="cls-8" cx="728.63" cy="551" rx="53.85" ry="25.27"/>
  <circle class="cls-8" cx="755.6" cy="569.1" r="6.81" transform="translate(43.25 1169.78) rotate(-84.21)"/>
  <circle class="cls-8" cx="842.41" cy="569.1" r="6.81" transform="translate(40.93 1181.39) rotate(-78.02)"/>
  <path class="cls-8" d="M781.88,733.83a112.33,112.33,0,0,1-29.27-8,84.88,84.88,0,0,1-31-22.62c-14.1-16.46-17-32.93-17.07-33.62l2.16-.36c0,0.16,2.9,16.64,16.65,32.65C736,716.65,760.8,734,807,733a108.59,108.59,0,0,0,36.69-9.42c17.44-8,39.7-24.49,46.77-57.94l2.14,0.45c-3.21,15.17-9.7,28.25-19.32,38.88a87.12,87.12,0,0,1-28.75,20.63,110.9,110.9,0,0,1-37.46,9.58A157.25,157.25,0,0,1,781.88,733.83Z" transform="translate(-69.93 -93.65)"/>
  <ellipse class="cls-7" cx="538.51" cy="459.21" rx="80.55" ry="62.7" transform="matrix(0.83, -0.56, 0.56, 0.83, -234.73, 286.75)"/>
  <ellipse class="cls-7" cx="1068.22" cy="454.81" rx="62.7" ry="80.55" transform="translate(-78.77 794.59) rotate(-44.98)"/>
</svg>
