<svg id="Layer_6" data-name="Layer 6" xmlns="http://www.w3.org/2000/svg" viewBox="0 0 1500.15 1500.15">
  <defs>
    <style>
      .cls-1 {
        fill: #fff;
      }

      .cls-2 {
        fill: #e7839f;
      }
    </style>
  </defs>
  <title>icon-4-red</title>
  <rect class="cls-1" width="1500.15" height="1500.15"/>
  <g>
    <polygon class="cls-2" points="1425.19 1425.19 1390.19 1425.19 1390.19 1415.19 1415.19 1415.19 1415.19 1390.19 1425.19 1390.19 1425.19 1425.19"/>
    <path class="cls-2" d="M1399.15,3169.44h-61v-10h61v10Zm-121.93,0h-61v-10h61v10Zm-121.93,0h-61v-10h61v10Zm-121.93,0h-61v-10h61v10Zm-121.93,0h-61v-10h61v10Zm-121.93,0h-61v-10h61v10Zm-121.93,0h-61v-10h61v10Zm-121.93,0h-61v-10h61v10Zm-121.93,0h-61v-10h61v10Zm-121.93,0h-61v-10h61v10Z" transform="translate(-69.93 -1744.25)"/>
    <polygon class="cls-2" points="109.96 1425.19 74.96 1425.19 74.96 1390.19 84.96 1390.19 84.96 1415.19 109.96 1415.19 109.96 1425.19"/>
    <path class="cls-2" d="M154.88,3073.48h-10v-61h10v61Zm0-121.93h-10v-61h10v61Zm0-121.93h-10v-61h10v61Zm0-121.93h-10v-61h10v61Zm0-121.93h-10v-61h10v61Zm0-121.93h-10v-61h10v61Zm0-121.93h-10v-61h10v61Zm0-121.93h-10v-61h10v61Zm0-121.93h-10v-61h10v61Zm0-121.93h-10v-61h10v61Z" transform="translate(-69.93 -1744.25)"/>
    <polygon class="cls-2" points="84.96 109.96 74.96 109.96 74.96 74.96 109.96 74.96 109.96 84.96 84.96 84.96 84.96 109.96"/>
    <path class="cls-2" d="M1399.15,1829.21h-61v-10h61v10Zm-121.93,0h-61v-10h61v10Zm-121.93,0h-61v-10h61v10Zm-121.93,0h-61v-10h61v10Zm-121.93,0h-61v-10h61v10Zm-121.93,0h-61v-10h61v10Zm-121.93,0h-61v-10h61v10Zm-121.93,0h-61v-10h61v10Zm-121.93,0h-61v-10h61v10Zm-121.93,0h-61v-10h61v10Z" transform="translate(-69.93 -1744.25)"/>
    <polygon class="cls-2" points="1425.19 109.96 1415.19 109.96 1415.19 84.96 1390.19 84.96 1390.19 74.96 1425.19 74.96 1425.19 109.96"/>
    <path class="cls-2" d="M1495.12,3073.48h-10v-61h10v61Zm0-121.93h-10v-61h10v61Zm0-121.93h-10v-61h10v61Zm0-121.93h-10v-61h10v61Zm0-121.93h-10v-61h10v61Zm0-121.93h-10v-61h10v61Zm0-121.93h-10v-61h10v61Zm0-121.93h-10v-61h10v61Zm0-121.93h-10v-61h10v61Zm0-121.93h-10v-61h10v61Z" transform="translate(-69.93 -1744.25)"/>
  </g>
  <path class="cls-2" d="M600.19,2393.45s-60.74,18.78-104,55.69a104,104,0,0,0-36.28,85.48c1.14,18.48,3.54,36.8,19.47,67.14,0,0,22,40.91,45.63,152.37,0,0,41.58,172.65,109.53,176.84,0,0,86.15,8.79,86.15-102.59,0,0-2.35-77.77-42.07-126.42-16.59-20.32-26.6-45.33-27.15-71.56q0-.57,0-1.14a53.2,53.2,0,0,1,17.59-40c20.66-18.73,58.77-55.34,79.5-88.07,0,0,25.52-42.54-35.58-93.59C713,2407.63,665.17,2371,600.19,2393.45Z" transform="translate(-69.93 -1744.25)"/>
  <ellipse class="cls-2" cx="392.66" cy="688.81" rx="18.76" ry="24.07"/>
  <ellipse class="cls-2" cx="438.93" cy="646.46" rx="21.61" ry="29.87"/>
  <ellipse class="cls-2" cx="491.28" cy="610.77" rx="23.98" ry="29.37"/>
  <ellipse class="cls-2" cx="560.6" cy="588.35" rx="26.78" ry="34.48"/>
  <ellipse class="cls-2" cx="649.79" cy="585.28" rx="40.07" ry="60.16"/>
  <g>
    <path class="cls-2" d="M960.83,2213.78s60.74,18.78,104,55.69a104,104,0,0,1,36.28,85.48c-1.14,18.48-3.54,36.8-19.47,67.14,0,0-22,40.91-45.63,152.37,0,0-41.58,172.65-109.53,176.84,0,0-86.15,8.79-86.15-102.59,0,0,2.35-77.77,42.07-126.42C899,2502,909,2477,909.51,2450.73q0-.57,0-1.14a53.2,53.2,0,0,0-17.59-40c-20.66-18.73-58.77-55.34-79.5-88.07,0,0-25.52-42.54,35.58-93.59C848,2228,895.86,2191.35,960.83,2213.78Z" transform="translate(-69.93 -1744.25)"/>
    <ellipse class="cls-2" cx="1028.51" cy="509.13" rx="18.76" ry="24.07"/>
    <ellipse class="cls-2" cx="982.25" cy="466.79" rx="21.61" ry="29.87"/>
    <ellipse class="cls-2" cx="929.89" cy="431.09" rx="23.98" ry="29.37"/>
    <ellipse class="cls-2" cx="860.57" cy="408.68" rx="26.78" ry="34.48"/>
    <ellipse class="cls-2" cx="771.38" cy="405.61" rx="40.07" ry="60.16"/>
  </g>
</svg>
