<svg id="Layer_7" data-name="Layer 7" xmlns="http://www.w3.org/2000/svg" viewBox="0 0 1500.15 1500.15">
  <defs>
    <style>
      .cls-1 {
        fill: #fff;
      }

      .cls-2 {
        fill: #e7839f;
      }

      .cls-3 {
        fill: #e9bbbd;
      }
    </style>
  </defs>
  <title>icon-6-red</title>
  <rect class="cls-1" width="1500.15" height="1500.15"/>
  <g>
    <polygon class="cls-2" points="1425.19 1425.19 1390.19 1425.19 1390.19 1415.19 1415.19 1415.19 1415.19 1390.19 1425.19 1390.19 1425.19 1425.19"/>
    <path class="cls-2" d="M4759.15,3169.44h-61v-10h61v10Zm-121.93,0h-61v-10h61v10Zm-121.93,0h-61v-10h61v10Zm-121.93,0h-61v-10h61v10Zm-121.93,0h-61v-10h61v10Zm-121.93,0h-61v-10h61v10Zm-121.93,0h-61v-10h61v10Zm-121.93,0h-61v-10h61v10Zm-121.93,0h-61v-10h61v10Zm-121.93,0h-61v-10h61v10Z" transform="translate(-3429.92 -1744.25)"/>
    <polygon class="cls-2" points="109.96 1425.19 74.96 1425.19 74.96 1390.19 84.96 1390.19 84.96 1415.19 109.96 1415.19 109.96 1425.19"/>
    <path class="cls-2" d="M3514.88,3073.48h-10v-61h10v61Zm0-121.93h-10v-61h10v61Zm0-121.93h-10v-61h10v61Zm0-121.93h-10v-61h10v61Zm0-121.93h-10v-61h10v61Zm0-121.93h-10v-61h10v61Zm0-121.93h-10v-61h10v61Zm0-121.93h-10v-61h10v61Zm0-121.93h-10v-61h10v61Zm0-121.93h-10v-61h10v61Z" transform="translate(-3429.92 -1744.25)"/>
    <polygon class="cls-2" points="84.96 109.96 74.96 109.96 74.96 74.96 109.96 74.96 109.96 84.96 84.96 84.96 84.96 109.96"/>
    <path class="cls-2" d="M4759.15,1829.21h-61v-10h61v10Zm-121.93,0h-61v-10h61v10Zm-121.93,0h-61v-10h61v10Zm-121.93,0h-61v-10h61v10Zm-121.93,0h-61v-10h61v10Zm-121.93,0h-61v-10h61v10Zm-121.93,0h-61v-10h61v10Zm-121.93,0h-61v-10h61v10Zm-121.93,0h-61v-10h61v10Zm-121.93,0h-61v-10h61v10Z" transform="translate(-3429.92 -1744.25)"/>
    <polygon class="cls-2" points="1425.19 109.96 1415.19 109.96 1415.19 84.96 1390.19 84.96 1390.19 74.96 1425.19 74.96 1425.19 109.96"/>
    <path class="cls-2" d="M4855.12,3073.48h-10v-61h10v61Zm0-121.93h-10v-61h10v61Zm0-121.93h-10v-61h10v61Zm0-121.93h-10v-61h10v61Zm0-121.93h-10v-61h10v61Zm0-121.93h-10v-61h10v61Zm0-121.93h-10v-61h10v61Zm0-121.93h-10v-61h10v61Zm0-121.93h-10v-61h10v61Zm0-121.93h-10v-61h10v61Z" transform="translate(-3429.92 -1744.25)"/>
  </g>
  <path class="cls-2" d="M3825.67,2408.54c-1.59-15.34,1.71-28.56,4.9-41.35,1.58-6.33,3.21-12.88,4.22-19.62,3-20.18.67-40.16-7.21-61.09-3.1-8.24-7.84-15.42-12.43-22.35-7.82-11.84-15.91-24.08-16.2-41.49-0.5-30.12,15-53,29.95-75.08q2-3,4-6c10.16-15.18,23.76-37.87,24.45-59.68,0.34-10.71-1.39-17.75-5.3-21.52-4.07-3.93-11.61-5.38-23.71-4.57l-1-15c16.86-1.14,27.7,1.56,35.14,8.74,7.12,6.87,10.35,17.6,9.87,32.78-0.8,25.38-14.84,49.43-27,67.56q-2,3-4.06,6c-14.29,21.11-27.79,41-27.37,66.42,0.22,13,6.48,22.51,13.72,33.47,5,7.63,10.25,15.52,13.95,25.34,8.8,23.38,11.42,45.82,8,68.6-1.12,7.45-2.84,14.35-4.5,21-3,12.06-5.85,23.45-4.53,36.18Z" transform="translate(-3429.92 -1744.25)"/>
  <path class="cls-2" d="M4575.59,2395.49l-14.84-2.2c1.81-12.22,5.51-24.15,9.09-35.68,7.25-23.39,14.11-45.48,5.34-68.22-3.37-8.73-9.63-15.53-16.27-22.74-10.43-11.32-22.25-24.15-20.76-45.24,1.24-17.56,7.1-34.84,12.76-51.56,3.34-9.87,6.5-19.19,8.76-28.53,5.33-22,4-52.87-11-72.35-8.28-10.78-19.69-16.42-33.9-16.74l0.34-15c18.7,0.43,34.42,8.24,45.45,22.6,19.22,25,19.36,61.44,13.64,85-2.42,10-5.84,20.06-9.14,29.81-5.36,15.82-10.9,32.17-12,47.8-1,14.62,6.85,23.18,16.83,34,7.29,7.92,14.84,16.11,19.23,27.5,10.65,27.61,2.69,53.26-5,78.06C4580.6,2373.55,4577.23,2384.41,4575.59,2395.49Z" transform="translate(-3429.92 -1744.25)"/>
  <path class="cls-3" d="M4208.56,2491.55l-14.94-1.33c0.93-10.42-1.38-20-3.81-30.16-3.47-14.45-7.05-29.4-1-46.72,4.45-12.76,10.09-23.78,15.54-34.45,10.78-21.09,20.09-39.3,17.57-65.17-2.57-26.41-16.6-48.63-31.45-72.16-4.27-6.76-8.68-13.75-12.74-20.77-20.1-34.76-36.89-69.41-21.77-111.13,4.58-12.63,12.27-31.27,22.87-48.31,1.74-2.8,3.77-5.52,5.73-8.15,5-6.75,9.8-13.13,9.2-19.76l14.94-1.35c1.12,12.35-5.92,21.78-12.12,30.09-1.86,2.49-3.61,4.84-5,7.1-9.92,15.93-17.17,33.54-21.5,45.5-12.94,35.7,1.7,65.74,20.65,98.51,3.91,6.77,8.25,13.63,12.44,20.27,15.13,24,30.79,48.77,33.7,78.72,2.94,30.24-7.79,51.23-19.14,73.45-5.22,10.21-10.62,20.78-14.73,32.56-4.59,13.17-1.8,24.81,1.43,38.28C4207,2467.44,4209.7,2478.69,4208.56,2491.55Z" transform="translate(-3429.92 -1744.25)"/>
  <path class="cls-2" d="M4252.58,2427.12a213.8,213.8,0,0,1,137.3,46.77,174,174,0,0,0-67.64-12.4c-96.73,1.62-173.91,81.73-172.36,178.94s81.24,174.7,178,173.08a173.67,173.67,0,0,0,88.83-26,214.53,214.53,0,0,1-157.23,72.42c-118.93,2-216.89-93.28-218.81-212.77S4133.65,2429.12,4252.58,2427.12Z" transform="translate(-3429.92 -1744.25)"/>
  <path class="cls-3" d="M4559.64,2391.2l-28.51,60.27-88.26,14.23s57.63,54.82,64.92,61.74c-1.56,10-13.81,88.78-13.81,88.78l78.5-43c9,4.55,79.74,40.62,79.74,40.62s-14.55-78.38-16.4-88.31l63.1-63.64-88.66-11.61-40.74-80Z" transform="translate(-3429.92 -1744.25)"/>
  <path class="cls-3" d="M3824.92,2402.87L3797,2462l-86.57,14s56.52,53.77,63.68,60.56c-1.53,9.79-13.54,87.08-13.54,87.08l77-42.15c8.8,4.47,78.21,39.84,78.21,39.84s-14.27-76.88-16.09-86.62l61.89-62.42-87-11.39-40-78.44Z" transform="translate(-3429.92 -1744.25)"/>
  <rect class="cls-2" x="267.08" y="263.52" width="1001.19" height="59.81" rx="29.9" ry="29.9"/>
</svg>
