<svg id="Layer_10" data-name="Layer 10" xmlns="http://www.w3.org/2000/svg" viewBox="0 0 1500.15 1500.15">
  <defs>
    <style>
      .cls-1 {
        fill: #fff;
      }

      .cls-2 {
        fill: #e7839f;
      }

      .cls-3 {
        fill: #f9bac2;
      }

      .cls-4 {
        fill: #fde2cb;
      }
    </style>
  </defs>
  <title>icon-9-red</title>
  <rect class="cls-1" width="1500.15" height="1500.15"/>
  <g>
    <polygon class="cls-2" points="1425.19 1425.19 1390.19 1425.19 1390.19 1415.19 1415.19 1415.19 1415.19 1390.19 1425.19 1390.19 1425.19 1425.19"/>
    <path class="cls-2" d="M4759.15,4820h-61v-10h61v10Zm-121.93,0h-61v-10h61v10Zm-121.93,0h-61v-10h61v10Zm-121.93,0h-61v-10h61v10Zm-121.93,0h-61v-10h61v10Zm-121.93,0h-61v-10h61v10Zm-121.93,0h-61v-10h61v10Zm-121.93,0h-61v-10h61v10Zm-121.93,0h-61v-10h61v10Zm-121.93,0h-61v-10h61v10Z" transform="translate(-3429.92 -3394.84)"/>
    <polygon class="cls-2" points="109.96 1425.19 74.96 1425.19 74.96 1390.19 84.96 1390.19 84.96 1415.19 109.96 1415.19 109.96 1425.19"/>
    <path class="cls-2" d="M3514.88,4724.07h-10v-61h10v61Zm0-121.93h-10v-61h10v61Zm0-121.93h-10v-61h10v61Zm0-121.93h-10v-61h10v61Zm0-121.93h-10v-61h10v61Zm0-121.93h-10v-61h10v61Zm0-121.93h-10v-61h10v61Zm0-121.93h-10v-61h10v61Zm0-121.93h-10v-61h10v61Zm0-121.93h-10v-61h10v61Z" transform="translate(-3429.92 -3394.84)"/>
    <polygon class="cls-2" points="84.96 109.96 74.96 109.96 74.96 74.96 109.96 74.96 109.96 84.96 84.96 84.96 84.96 109.96"/>
    <path class="cls-2" d="M4759.15,3479.8h-61v-10h61v10Zm-121.93,0h-61v-10h61v10Zm-121.93,0h-61v-10h61v10Zm-121.93,0h-61v-10h61v10Zm-121.93,0h-61v-10h61v10Zm-121.93,0h-61v-10h61v10Zm-121.93,0h-61v-10h61v10Zm-121.93,0h-61v-10h61v10Zm-121.93,0h-61v-10h61v10Zm-121.93,0h-61v-10h61v10Z" transform="translate(-3429.92 -3394.84)"/>
    <polygon class="cls-2" points="1425.19 109.96 1415.19 109.96 1415.19 84.96 1390.19 84.96 1390.19 74.96 1425.19 74.96 1425.19 109.96"/>
    <path class="cls-2" d="M4855.12,4724.07h-10v-61h10v61Zm0-121.93h-10v-61h10v61Zm0-121.93h-10v-61h10v61Zm0-121.93h-10v-61h10v61Zm0-121.93h-10v-61h10v61Zm0-121.93h-10v-61h10v61Zm0-121.93h-10v-61h10v61Zm0-121.93h-10v-61h10v61Zm0-121.93h-10v-61h10v61Zm0-121.93h-10v-61h10v61Z" transform="translate(-3429.92 -3394.84)"/>
  </g>
  <path class="cls-3" d="M3928.86,4450.26l-1,31.3c0.22,0,134.4-5.87,164.18,114.26a112.15,112.15,0,0,1,3.55,18.18h32.22C4108.85,4436,3928.86,4450.26,3928.86,4450.26Z" transform="translate(-3429.92 -3394.84)"/>
  <path class="cls-2" d="M4603,4041.46l79.17-158.66-256.34-128.05c-0.53,1.26-36,84.77-112.63,131.72a199.3,199.3,0,0,1-106.26,29h-1a199.88,199.88,0,0,1-106.43-29c-77-47.18-112.53-131.28-112.72-131.74L3730.46,3882.8l79.16,158.66,133.6-38.57-14.36,447.59c0.5,0,180-14.23,198.94,163.52h157c18.94-177.77,198.48-163.56,198.94-163.52l-14.35-447.59Z" transform="translate(-3429.92 -3394.84)"/>
  <path class="cls-3" d="M4483.79,4450.26l1,31.3c-0.22,0-134.4-5.87-164.18,114.26a112.15,112.15,0,0,0-3.55,18.18h-32.22C4303.81,4436,4483.79,4450.26,4483.79,4450.26Z" transform="translate(-3429.92 -3394.84)"/>
  <path class="cls-3" d="M4390.15,3736.93c-0.39,1.58-.79,3.13-1.2,4.67a205.78,205.78,0,0,1-24.42,57.62l-1,1.63c-0.32.5-.64,1-1,1.51-52.56,80.73-145.09,84-156.2,84.1-11.11-.1-103.64-3.36-156.2-84.1-0.33-.5-0.65-1-1-1.51l-1-1.63a205.77,205.77,0,0,1-24.42-57.62c-0.41-1.54-.81-3.1-1.2-4.67l-35.61,17.79s35.55,84.44,112.78,131.75a210.63,210.63,0,0,0,213.31,0c77.22-47.31,112.78-131.75,112.78-131.75Z" transform="translate(-3429.92 -3394.84)"/>
  <g>
    <path class="cls-4" d="M4198.6,4163.54s7.81-43.37-6.67-73.23-22.17-58.57-53.09-57c0,0-8.74,11.77-8.69,22.67,0,0-3.66,5.73-1.39,12.2,0,0-3.24,2.41-2,10.39,0,0-7.71,7.23-3.28,10l-1.55,5s-5.15,2.69-2.67,7.75-6.62,9.56.12,15.76c0,0-6.75,14.79,34.26,30.78S4189.2,4183.07,4198.6,4163.54Z" transform="translate(-3429.92 -3394.84)"/>
    <path class="cls-4" d="M4201.09,4164.72s39.73-19.05,72.38-13,62.36,5.84,69.07,36.05c0,0-9,11.56-19.54,14.4,0,0-4.55,5.07-11.39,4.58,0,0-1.47,3.77-9.51,4.65,0,0-4.91,9.37-8.74,5.82l-4.44,2.82s-1.23,5.69-6.77,4.64-7.46,8.91-15.22,4.07c0,0-12.48,10.44-38.77-24.86S4184.75,4179,4201.09,4164.72Z" transform="translate(-3429.92 -3394.84)"/>
    <path class="cls-4" d="M4192.49,4175.09s-12.61-47.87-66.13-53.35c0,0-3.47,4-6.47,3.49s-14.47-1.36-13.36,6.45-16.7-3-16.61,5.32c0,0,4.28,6.71-3.22,10.73s-19.32-.9-7.46,8.38c0,0,6.05,12.51-16.06,10.65s-26.36,1.88-25.56,5,2,5,11.85,1.73,24.65-5.42,26.27,6.62c0,0-1.38,5.48-8.81,7.42s-2.84,8.69,2.17,3.77,16.56-3.24,14.09,3.41-7.33,20.74,12.93,5.21c0,0,4.82-1.57,5.07,3.74,0,0,2.54.27,1.42,3.2s16.64,0.47,25.56-7.9c0,0,5.19-3.62,5.73-1.16,0,0,5.11-5.88,12.23-7.86s33.55-9.14,36.11-6S4192.49,4175.09,4192.49,4175.09Z" transform="translate(-3429.92 -3394.84)"/>
    <path class="cls-4" d="M4193.32,4173.52s48.66,9.14,58,62.14c0,0-3.71,3.73-3,6.7s2.4,14.33-5.48,13.8,4.23,16.43-4.11,16.94c0,0-7-3.78-10.47,4s2.3,19.21-7.81,8c0,0-12.92-5.15-9.49,16.78s0,26.43-3.17,25.85-5.16-1.66-2.57-11.7,3.64-25-8.49-25.72c0,0-5.36,1.76-6.77,9.31s-8.47,3.46-3.91-1.9,2-16.74-4.4-13.8-20.17,8.77-6.13-12.53c0,0,1.23-4.92-4.1-4.79,0,0-.45-2.51-3.29-1.19s-1.66-16.57,6.06-26.06c0,0,3.24-5.45.74-5.81,0,0,5.5-5.52,7-12.74s6.72-34.12,3.38-36.45S4193.32,4173.52,4193.32,4173.52Z" transform="translate(-3429.92 -3394.84)"/>
    <path class="cls-4" d="M4188.79,4174.58s9.45-13.31,12-12.78,4.74,0.26-8.45,17.07c0,0-5.6,9.16-7.79,8.58,0,0-3.07,2.3-1.92-1.22,0,0-1.75-1.42,2-5.47C4184.69,4180.75,4187.21,4176.09,4188.79,4174.58Z" transform="translate(-3429.92 -3394.84)"/>
    <path class="cls-4" d="M4329.72,4086.36c-3.4-2.62-8.44-1.77-11.36,2a9.38,9.38,0,0,0-.92,1.41c-26.85-3.87-56.34,18.13-76.9,37.79a350,350,0,0,0-40.47,47l0.58,0.46a357.92,357.92,0,0,1,40.44-47c20.33-19.51,49.55-41.23,76-37.57a7.84,7.84,0,0,0,2.09,9.26c3.43,2.69,8.47,1.89,11.34-1.84S4333.06,4089,4329.72,4086.36Z" transform="translate(-3429.92 -3394.84)"/>
    <path class="cls-4" d="M4225.78,4122.15c14.37-23.73,29.52-56.89,21.39-83a10,10,0,0,0,7.13-3.9c3.06-4,2.9-9.3-.47-12s-8.66-1.53-11.75,2.38-2.9,9.37.5,12a6.25,6.25,0,0,0,3.73,1.49c8.33,25.83-6.79,59.07-21.14,82.62a328.29,328.29,0,0,1-34.87,46.9l0.56,0.54A345.32,345.32,0,0,0,4225.78,4122.15Z" transform="translate(-3429.92 -3394.84)"/>
  </g>
</svg>
