<svg id="Layer_5" data-name="Layer 5" xmlns="http://www.w3.org/2000/svg" viewBox="0 0 1500.15 1500.15">
  <defs>
    <style>
      .cls-1 {
        fill: #fff;
      }

      .cls-2 {
        fill: #e7839f;
      }

      .cls-3 {
        fill: #e9bbbd;
      }

      .cls-4 {
        fill: #dad3c6;
      }
    </style>
  </defs>
  <title>icon-2-red</title>
  <rect class="cls-1" width="1500.15" height="1500.15"/>
  <g>
    <polygon class="cls-2" points="1425.19 1425.19 1390.19 1425.19 1390.19 1415.19 1415.19 1415.19 1415.19 1390.19 1425.19 1390.19 1425.19 1425.19"/>
    <path class="cls-2" d="M3079.15,1518.85h-61v-10h61v10Zm-121.93,0h-61v-10h61v10Zm-121.93,0h-61v-10h61v10Zm-121.93,0h-61v-10h61v10Zm-121.93,0h-61v-10h61v10Zm-121.93,0h-61v-10h61v10Zm-121.93,0h-61v-10h61v10Zm-121.93,0h-61v-10h61v10Zm-121.93,0h-61v-10h61v10Zm-121.93,0h-61v-10h61v10Z" transform="translate(-1749.93 -93.65)"/>
    <polygon class="cls-2" points="109.96 1425.19 74.96 1425.19 74.96 1390.19 84.96 1390.19 84.96 1415.19 109.96 1415.19 109.96 1425.19"/>
    <path class="cls-2" d="M1834.88,1422.88h-10v-61h10v61Zm0-121.93h-10v-61h10v61Zm0-121.93h-10v-61h10v61Zm0-121.93h-10v-61h10v61Zm0-121.93h-10v-61h10v61Zm0-121.93h-10v-61h10v61Zm0-121.93h-10v-61h10v61Zm0-121.93h-10v-61h10v61Zm0-121.93h-10v-61h10v61Zm0-121.93h-10v-61h10v61Z" transform="translate(-1749.93 -93.65)"/>
    <polygon class="cls-2" points="84.96 109.96 74.96 109.96 74.96 74.96 109.96 74.96 109.96 84.96 84.96 84.96 84.96 109.96"/>
    <path class="cls-2" d="M3079.15,178.61h-61v-10h61v10Zm-121.93,0h-61v-10h61v10Zm-121.93,0h-61v-10h61v10Zm-121.93,0h-61v-10h61v10Zm-121.93,0h-61v-10h61v10Zm-121.93,0h-61v-10h61v10Zm-121.93,0h-61v-10h61v10Zm-121.93,0h-61v-10h61v10Zm-121.93,0h-61v-10h61v10Zm-121.93,0h-61v-10h61v10Z" transform="translate(-1749.93 -93.65)"/>
    <polygon class="cls-2" points="1425.19 109.96 1415.19 109.96 1415.19 84.96 1390.19 84.96 1390.19 74.96 1425.19 74.96 1425.19 109.96"/>
    <path class="cls-2" d="M3175.12,1422.88h-10v-61h10v61Zm0-121.93h-10v-61h10v61Zm0-121.93h-10v-61h10v61Zm0-121.93h-10v-61h10v61Zm0-121.93h-10v-61h10v61Zm0-121.93h-10v-61h10v61Zm0-121.93h-10v-61h10v61Zm0-121.93h-10v-61h10v61Zm0-121.93h-10v-61h10v61Zm0-121.93h-10v-61h10v61Z" transform="translate(-1749.93 -93.65)"/>
  </g>
  <path class="cls-3" d="M2500.63,832.63c-132.93,0-240.7,107.29-240.7,239.65s107.77,239.64,240.7,239.64,240.71-107.29,240.71-239.64S2633.57,832.63,2500.63,832.63Zm0,384.12c-80.14,0-145.11-64.68-145.11-144.47s65-144.48,145.11-144.48,145.12,64.68,145.12,144.48S2580.78,1216.75,2500.63,1216.75Z" transform="translate(-1749.93 -93.65)"/>
  <path class="cls-4" d="M2660,484.77c-7-64.2-52.27-104.45-52.27-104.45s-37.9-37.34-106.89-40.55c-69.32,3.21-107,40.55-107,40.55s-45.36,40.25-52.39,104.45,31,110.52,31,110.52c19.48,23.64,22,35.14,22,35.14,39.61,66.12,38.65,101.33,38.65,101.33,5.43,62-20.92,80.24-20.92,80.24h177.05s-26.35-18.27-20.92-80.24c0,0-1-35.33,38.65-101.45,0,0,2.56-11.44,22-35.07C2629,595.23,2667,549,2660,484.77Z" transform="translate(-1749.93 -93.65)"/>
  <path class="cls-2" d="M2785.07,866.17H2216.2a33.64,33.64,0,0,1-33.54-33.54h0a33.64,33.64,0,0,1,33.54-33.54h568.87a33.64,33.64,0,0,1,33.54,33.54h0A33.64,33.64,0,0,1,2785.07,866.17Z" transform="translate(-1749.93 -93.65)"/>
  <path class="cls-1" d="M2377.59,502.67s5.47-104,91.48-117.31C2469.07,385.36,2415.12,405,2377.59,502.67Z" transform="translate(-1749.93 -93.65)"/>
</svg>
