<svg id="Layer_1" data-name="Layer 1" xmlns="http://www.w3.org/2000/svg" viewBox="0 0 1500.15 1500.15">
  <defs>
    <style>
      .cls-1 {
        fill: #fff;
      }

      .cls-2 {
        fill: #e7839f;
      }

      .cls-3 {
        fill: #c6baa8;
      }

      .cls-4 {
        fill: #fdfcf5;
      }
    </style>
  </defs>
  <title>icon-8-red</title>
  <rect class="cls-1" width="1500.15" height="1500.15"/>
  <g>
    <polygon class="cls-2" points="1425.19 1425.19 1390.19 1425.19 1390.19 1415.19 1415.19 1415.19 1415.19 1390.19 1425.19 1390.19 1425.19 1425.19"/>
    <path class="cls-2" d="M3079.15,4820h-61v-10h61v10Zm-121.93,0h-61v-10h61v10Zm-121.93,0h-61v-10h61v10Zm-121.93,0h-61v-10h61v10Zm-121.93,0h-61v-10h61v10Zm-121.93,0h-61v-10h61v10Zm-121.93,0h-61v-10h61v10Zm-121.93,0h-61v-10h61v10Zm-121.93,0h-61v-10h61v10Zm-121.93,0h-61v-10h61v10Z" transform="translate(-1749.93 -3394.84)"/>
    <polygon class="cls-2" points="109.96 1425.19 74.96 1425.19 74.96 1390.19 84.96 1390.19 84.96 1415.19 109.96 1415.19 109.96 1425.19"/>
    <path class="cls-2" d="M1834.88,4724.07h-10v-61h10v61Zm0-121.93h-10v-61h10v61Zm0-121.93h-10v-61h10v61Zm0-121.93h-10v-61h10v61Zm0-121.93h-10v-61h10v61Zm0-121.93h-10v-61h10v61Zm0-121.93h-10v-61h10v61Zm0-121.93h-10v-61h10v61Zm0-121.93h-10v-61h10v61Zm0-121.93h-10v-61h10v61Z" transform="translate(-1749.93 -3394.84)"/>
    <polygon class="cls-2" points="84.96 109.96 74.96 109.96 74.96 74.96 109.96 74.96 109.96 84.96 84.96 84.96 84.96 109.96"/>
    <path class="cls-2" d="M3079.15,3479.8h-61v-10h61v10Zm-121.93,0h-61v-10h61v10Zm-121.93,0h-61v-10h61v10Zm-121.93,0h-61v-10h61v10Zm-121.93,0h-61v-10h61v10Zm-121.93,0h-61v-10h61v10Zm-121.93,0h-61v-10h61v10Zm-121.93,0h-61v-10h61v10Zm-121.93,0h-61v-10h61v10Zm-121.93,0h-61v-10h61v10Z" transform="translate(-1749.93 -3394.84)"/>
    <polygon class="cls-2" points="1425.19 109.96 1415.19 109.96 1415.19 84.96 1390.19 84.96 1390.19 74.96 1425.19 74.96 1425.19 109.96"/>
    <path class="cls-2" d="M3175.12,4724.07h-10v-61h10v61Zm0-121.93h-10v-61h10v61Zm0-121.93h-10v-61h10v61Zm0-121.93h-10v-61h10v61Zm0-121.93h-10v-61h10v61Zm0-121.93h-10v-61h10v61Zm0-121.93h-10v-61h10v61Zm0-121.93h-10v-61h10v61Zm0-121.93h-10v-61h10v61Zm0-121.93h-10v-61h10v61Z" transform="translate(-1749.93 -3394.84)"/>
  </g>
  <path class="cls-2" d="M2613.35,4300.08L2737,4450a9.5,9.5,0,0,1-1.28,13.33l-8,6.58a9.5,9.5,0,0,1-13.33-1.28l-123.67-149.93a9.5,9.5,0,0,1,1.28-13.33l8-6.58A9.5,9.5,0,0,1,2613.35,4300.08Z" transform="translate(-1749.93 -3394.84)"/>
  <path class="cls-2" d="M2770.17,4054.7h0a11.59,11.59,0,0,1-5.73-15.3l46.74-102.72a11.59,11.59,0,0,1,15.3-5.73h0a11.59,11.59,0,0,1,5.73,15.3L2785.47,4049A11.59,11.59,0,0,1,2770.17,4054.7Z" transform="translate(-1749.93 -3394.84)"/>
  <rect class="cls-2" x="2211.74" y="4369.02" width="213.29" height="29.27" rx="9.47" ry="9.47" transform="translate(-4288.44 -12.11) rotate(-50.48)"/>
  <path class="cls-3" d="M2831.46,3995c0,103-46.3,196.59-119.53,259.6-3.82,3.28-7.71,6.45-11.67,9.56a347.61,347.61,0,0,1-65.3,40.58q-9.81,4.69-20,8.77l-2,.79q-13.45,5.32-27.44,9.54a353.11,353.11,0,0,1-199.61.92q-15.1-4.4-29.62-10.1-9.31-3.64-18.34-7.81-7.15-3.28-14.12-6.88a347.83,347.83,0,0,1-69.37-47.17q-7.23-6.31-14.1-13a346.51,346.51,0,0,1-29-32q-5.58-7-10.8-14.29a340.9,340.9,0,0,1-48.37-97.14q-3.61-11.59-6.4-23.52a341.43,341.43,0,0,1-8.94-77.82c0-189.87,155.48-343.8,347.27-343.8,7.12,0,14.19.26,21.21,0.67L2484.19,3995h347.27Z" transform="translate(-1749.93 -3394.84)"/>
  <rect class="cls-4" x="380.66" y="593.03" width="353.9" height="9.9" rx="4.92" ry="4.92"/>
  <path class="cls-4" d="M2477.74,3993.18L2184,3823.56a5,5,0,0,1-1.81-6.76h0a5,5,0,0,1,6.76-1.81l293.79,169.62a5,5,0,0,1,1.81,6.76h0A5,5,0,0,1,2477.74,3993.18Z" transform="translate(-1749.93 -3394.84)"/>
  <path class="cls-4" d="M2476,3987.08L2327.15,3690.7a4.9,4.9,0,0,1,2.18-6.58l0.09,0a4.9,4.9,0,0,1,6.58,2.18l148.89,296.38a4.9,4.9,0,0,1-2.18,6.58l-0.09,0A4.9,4.9,0,0,1,2476,3987.08Z" transform="translate(-1749.93 -3394.84)"/>
  <circle class="cls-2" cx="375.61" cy="597.21" r="12.24"/>
  <circle class="cls-2" cx="427.4" cy="419.17" r="12.24"/>
  <circle class="cls-2" cx="576.31" cy="282.36" r="12.24"/>
  <circle class="cls-2" cx="505" cy="1063.7" r="118.01"/>
  <circle class="cls-4" cx="505" cy="1063.7" r="99.97"/>
  <path class="cls-2" d="M2810.75,3941.46h0a11.59,11.59,0,0,1,11.55-11.55h112.85a11.59,11.59,0,0,1,11.55,11.55h0a11.59,11.59,0,0,1-11.55,11.55H2822.3A11.59,11.59,0,0,1,2810.75,3941.46Z" transform="translate(-1749.93 -3394.84)"/>
  <path class="cls-2" d="M2254.93,4458.54h0a4.29,4.29,0,0,1-4.27-4.27V4348.59a4.29,4.29,0,0,1,4.27-4.27h0a4.29,4.29,0,0,1,4.27,4.27v105.67A4.29,4.29,0,0,1,2254.93,4458.54Z" transform="translate(-1749.93 -3394.84)"/>
  <path class="cls-2" d="M2254.93,4458.54h0a4.29,4.29,0,0,1,1.57-5.84l91.58-52.73a4.29,4.29,0,0,1,5.84,1.57h0a4.29,4.29,0,0,1-1.57,5.84l-91.58,52.73A4.29,4.29,0,0,1,2254.93,4458.54Z" transform="translate(-1749.93 -3394.84)"/>
  <path class="cls-2" d="M2254.93,4458.54h0a4.29,4.29,0,0,1,5.84-1.55l91.39,53.06a4.29,4.29,0,0,1,1.55,5.84h0a4.29,4.29,0,0,1-5.84,1.55l-91.39-53.06A4.29,4.29,0,0,1,2254.93,4458.54Z" transform="translate(-1749.93 -3394.84)"/>
  <path class="cls-2" d="M2254.93,4458.54h0a4.29,4.29,0,0,1,4.26,4.29l-0.38,105.67a4.29,4.29,0,0,1-4.29,4.26h0a4.29,4.29,0,0,1-4.26-4.29l0.38-105.67A4.29,4.29,0,0,1,2254.93,4458.54Z" transform="translate(-1749.93 -3394.84)"/>
  <path class="cls-2" d="M2254.93,4458.54h0a4.29,4.29,0,0,1-1.59,5.83l-91.77,52.39a4.29,4.29,0,0,1-5.83-1.59h0a4.29,4.29,0,0,1,1.59-5.83l91.77-52.39A4.29,4.29,0,0,1,2254.93,4458.54Z" transform="translate(-1749.93 -3394.84)"/>
  <path class="cls-2" d="M2254.93,4458.54h0a4.29,4.29,0,0,1-5.85,1.53l-91.19-53.39a4.29,4.29,0,0,1-1.53-5.85h0a4.29,4.29,0,0,1,5.85-1.53l91.19,53.39A4.29,4.29,0,0,1,2254.93,4458.54Z" transform="translate(-1749.93 -3394.84)"/>
  <circle class="cls-2" cx="977.43" cy="1064.4" r="118.01"/>
  <circle class="cls-4" cx="977.43" cy="1064.4" r="99.97"/>
  <path class="cls-2" d="M2727.36,4459.24h0a4.29,4.29,0,0,0,4.27-4.27V4349.29a4.29,4.29,0,0,0-4.27-4.27h0a4.29,4.29,0,0,0-4.27,4.27V4455A4.29,4.29,0,0,0,2727.36,4459.24Z" transform="translate(-1749.93 -3394.84)"/>
  <path class="cls-2" d="M2727.36,4459.24h0a4.29,4.29,0,0,0-1.57-5.84l-91.58-52.73a4.29,4.29,0,0,0-5.84,1.57h0a4.29,4.29,0,0,0,1.57,5.84l91.58,52.73A4.29,4.29,0,0,0,2727.36,4459.24Z" transform="translate(-1749.93 -3394.84)"/>
  <path class="cls-2" d="M2727.36,4459.24h0a4.29,4.29,0,0,0-5.84-1.55l-91.39,53.06a4.29,4.29,0,0,0-1.55,5.84h0a4.29,4.29,0,0,0,5.84,1.55l91.39-53.06A4.29,4.29,0,0,0,2727.36,4459.24Z" transform="translate(-1749.93 -3394.84)"/>
  <path class="cls-2" d="M2727.36,4459.24h0a4.29,4.29,0,0,0-4.26,4.29l0.38,105.67a4.29,4.29,0,0,0,4.29,4.26h0a4.29,4.29,0,0,0,4.26-4.29l-0.38-105.67A4.29,4.29,0,0,0,2727.36,4459.24Z" transform="translate(-1749.93 -3394.84)"/>
  <path class="cls-2" d="M2727.36,4459.24h0a4.29,4.29,0,0,0,1.59,5.83l91.77,52.39a4.29,4.29,0,0,0,5.83-1.59h0A4.29,4.29,0,0,0,2825,4510l-91.77-52.39A4.29,4.29,0,0,0,2727.36,4459.24Z" transform="translate(-1749.93 -3394.84)"/>
  <path class="cls-2" d="M2727.36,4459.24h0a4.29,4.29,0,0,0,5.85,1.53l91.19-53.39a4.29,4.29,0,0,0,1.53-5.85h0a4.29,4.29,0,0,0-5.85-1.53l-91.19,53.39A4.29,4.29,0,0,0,2727.36,4459.24Z" transform="translate(-1749.93 -3394.84)"/>
</svg>
