<svg id="Layer_8" data-name="Layer 8" xmlns="http://www.w3.org/2000/svg" viewBox="0 0 1500.15 1500.15">
  <defs>
    <style>
      .cls-1 {
        fill: #fff;
      }

      .cls-2 {
        fill: #e7839f;
      }

      .cls-3 {
        fill: #f9bac2;
      }

      .cls-4 {
        fill: #dad3c6;
      }
    </style>
  </defs>
  <title>icon-7-red</title>
  <rect class="cls-1" width="1500.15" height="1500.15"/>
  <g>
    <polygon class="cls-2" points="1425.19 1425.19 1390.19 1425.19 1390.19 1415.19 1415.19 1415.19 1415.19 1390.19 1425.19 1390.19 1425.19 1425.19"/>
    <path class="cls-2" d="M1399.15,4820h-61v-10h61v10Zm-121.93,0h-61v-10h61v10Zm-121.93,0h-61v-10h61v10Zm-121.93,0h-61v-10h61v10Zm-121.93,0h-61v-10h61v10Zm-121.93,0h-61v-10h61v10Zm-121.93,0h-61v-10h61v10Zm-121.93,0h-61v-10h61v10Zm-121.93,0h-61v-10h61v10Zm-121.93,0h-61v-10h61v10Z" transform="translate(-69.93 -3394.84)"/>
    <polygon class="cls-2" points="109.96 1425.19 74.96 1425.19 74.96 1390.19 84.96 1390.19 84.96 1415.19 109.96 1415.19 109.96 1425.19"/>
    <path class="cls-2" d="M154.88,4724.07h-10v-61h10v61Zm0-121.93h-10v-61h10v61Zm0-121.93h-10v-61h10v61Zm0-121.93h-10v-61h10v61Zm0-121.93h-10v-61h10v61Zm0-121.93h-10v-61h10v61Zm0-121.93h-10v-61h10v61Zm0-121.93h-10v-61h10v61Zm0-121.93h-10v-61h10v61Zm0-121.93h-10v-61h10v61Z" transform="translate(-69.93 -3394.84)"/>
    <polygon class="cls-2" points="84.96 109.96 74.96 109.96 74.96 74.96 109.96 74.96 109.96 84.96 84.96 84.96 84.96 109.96"/>
    <path class="cls-2" d="M1399.15,3479.8h-61v-10h61v10Zm-121.93,0h-61v-10h61v10Zm-121.93,0h-61v-10h61v10Zm-121.93,0h-61v-10h61v10Zm-121.93,0h-61v-10h61v10Zm-121.93,0h-61v-10h61v10Zm-121.93,0h-61v-10h61v10Zm-121.93,0h-61v-10h61v10Zm-121.93,0h-61v-10h61v10Zm-121.93,0h-61v-10h61v10Z" transform="translate(-69.93 -3394.84)"/>
    <polygon class="cls-2" points="1425.19 109.96 1415.19 109.96 1415.19 84.96 1390.19 84.96 1390.19 74.96 1425.19 74.96 1425.19 109.96"/>
    <path class="cls-2" d="M1495.12,4724.07h-10v-61h10v61Zm0-121.93h-10v-61h10v61Zm0-121.93h-10v-61h10v61Zm0-121.93h-10v-61h10v61Zm0-121.93h-10v-61h10v61Zm0-121.93h-10v-61h10v61Zm0-121.93h-10v-61h10v61Zm0-121.93h-10v-61h10v61Zm0-121.93h-10v-61h10v61Zm0-121.93h-10v-61h10v61Z" transform="translate(-69.93 -3394.84)"/>
  </g>
  <path class="cls-2" d="M1061.37,4071l-72.55,125.66L773.26,4570.08c-24.93,43.18-80.67,58.12-123.86,33.19L559,4551.06c-43.19-24.93-58.12-80.67-33.19-123.86l159.34-276L813.9,3928.17A90.87,90.87,0,0,1,937.76,3895l90.42,52.2A90.93,90.93,0,0,1,1061.37,4071Z" transform="translate(-69.93 -3394.84)"/>
  <path class="cls-3" d="M1115.86,3970.55a30.18,30.18,0,0,1-16.77,23.18,38.21,38.21,0,0,1-8.79,2.85c-12.85,2.58-23.3-.92-31-4.78-2-1-3.75-2-5.35-2.91,0,0-36.78-34.26-71.09-56.77-1.34-.88-2.68-1.74-4-2.58l-4.19-2.15c-36.6-18.54-84.6-33.35-84.6-33.35l-0.89-.52c-7.91-4.65-18.87-12.21-23.9-27.21a38.22,38.22,0,0,1-1.91-9,30.19,30.19,0,0,1,11.74-26.09c3.69-2.89,8.75-6.13,14.24-7.55s13.63-1.31,23.07.08a163.51,163.51,0,0,1,19.89,4.3s46.3,14.48,82.41,36.45l1.34,0.82,1.41,0.77c37,20.37,72.67,53.31,72.67,53.31a147.91,147.91,0,0,1,18,21c3.59,5.24,6.12,10.06,7.22,14.08C1116.81,3959.9,1116.52,3965.91,1115.86,3970.55Z" transform="translate(-69.93 -3394.84)"/>
  <path class="cls-4" d="M1118.9,3892.22a112,112,0,0,1-10.81,48.14,147.91,147.91,0,0,0-18-21s-35.64-32.94-72.67-53.31l-1.41-.77-1.34-.82c-36.11-22-82.41-36.45-82.41-36.45a163.51,163.51,0,0,0-19.89-4.3,115.15,115.15,0,0,1,91.62-45C1067.46,3778.67,1118.9,3829.51,1118.9,3892.22Z" transform="translate(-69.93 -3394.84)"/>
  <path class="cls-4" d="M1131.7,3715.41c25.2,21.4,27.86,56.9,6.46,82.11s-63.31,36-84.81,15.66c-22.47-21.21-27.44-65.67-6-90.88A59.87,59.87,0,0,1,1131.7,3715.41Z" transform="translate(-69.93 -3394.84)"/>
  <path class="cls-1" d="M1049.11,3766.89s2.46-46.75,41.11-52.72C1090.22,3714.17,1066,3723,1049.11,3766.89Z" transform="translate(-69.93 -3394.84)"/>
  <path class="cls-1" d="M596.82,4422.38h0a11,11,0,0,1-4-14.93l233.55-404.52a11,11,0,0,1,14.93-4h0a11,11,0,0,1,4,14.93L611.75,4418.38A11,11,0,0,1,596.82,4422.38Z" transform="translate(-69.93 -3394.84)"/>
  <path class="cls-1" d="M871,4049l-34.26-19.78a4.87,4.87,0,0,1-1.78-6.64h0a4.87,4.87,0,0,1,6.64-1.78l34.26,19.78a4.87,4.87,0,0,1,1.78,6.64h0A4.87,4.87,0,0,1,871,4049Z" transform="translate(-69.93 -3394.84)"/>
  <path class="cls-1" d="M852.66,4080.83l-34.26-19.78a4.87,4.87,0,0,1-1.78-6.64h0a4.87,4.87,0,0,1,6.64-1.78l34.26,19.78a4.87,4.87,0,0,1,1.78,6.64h0A4.87,4.87,0,0,1,852.66,4080.83Z" transform="translate(-69.93 -3394.84)"/>
  <path class="cls-1" d="M834.29,4112.65L800,4092.87a4.87,4.87,0,0,1-1.78-6.64h0a4.87,4.87,0,0,1,6.64-1.78l34.26,19.78a4.87,4.87,0,0,1,1.78,6.64h0A4.87,4.87,0,0,1,834.29,4112.65Z" transform="translate(-69.93 -3394.84)"/>
  <path class="cls-1" d="M815.93,4144.47l-34.26-19.78a4.87,4.87,0,0,1-1.78-6.64h0a4.87,4.87,0,0,1,6.64-1.78l34.26,19.78a4.87,4.87,0,0,1,1.78,6.64h0A4.87,4.87,0,0,1,815.93,4144.47Z" transform="translate(-69.93 -3394.84)"/>
  <path class="cls-1" d="M797.56,4176.28L763.3,4156.5a4.87,4.87,0,0,1-1.78-6.64h0a4.87,4.87,0,0,1,6.64-1.78l34.26,19.78a4.87,4.87,0,0,1,1.78,6.64h0A4.87,4.87,0,0,1,797.56,4176.28Z" transform="translate(-69.93 -3394.84)"/>
  <path class="cls-1" d="M779.19,4208.1l-34.26-19.78a4.87,4.87,0,0,1-1.78-6.64h0a4.87,4.87,0,0,1,6.64-1.78L784,4199.68a4.87,4.87,0,0,1,1.78,6.64h0A4.87,4.87,0,0,1,779.19,4208.1Z" transform="translate(-69.93 -3394.84)"/>
  <path class="cls-1" d="M760.82,4239.91l-34.26-19.78a4.87,4.87,0,0,1-1.78-6.64h0a4.87,4.87,0,0,1,6.64-1.78l34.26,19.78a4.87,4.87,0,0,1,1.78,6.64h0A4.87,4.87,0,0,1,760.82,4239.91Z" transform="translate(-69.93 -3394.84)"/>
  <path class="cls-1" d="M742.45,4271.73L708.19,4252a4.87,4.87,0,0,1-1.78-6.64h0a4.87,4.87,0,0,1,6.64-1.78l34.26,19.78a4.87,4.87,0,0,1,1.78,6.64h0A4.87,4.87,0,0,1,742.45,4271.73Z" transform="translate(-69.93 -3394.84)"/>
  <path class="cls-1" d="M724.08,4303.55l-34.26-19.78a4.87,4.87,0,0,1-1.78-6.64h0a4.87,4.87,0,0,1,6.64-1.78l34.26,19.78a4.87,4.87,0,0,1,1.78,6.64h0A4.87,4.87,0,0,1,724.08,4303.55Z" transform="translate(-69.93 -3394.84)"/>
  <path class="cls-1" d="M705.71,4335.36l-34.26-19.78a4.87,4.87,0,0,1-1.78-6.64h0a4.87,4.87,0,0,1,6.64-1.78l34.26,19.78a4.87,4.87,0,0,1,1.78,6.64h0A4.87,4.87,0,0,1,705.71,4335.36Z" transform="translate(-69.93 -3394.84)"/>
  <path class="cls-1" d="M687.34,4367.18l-34.26-19.78a4.87,4.87,0,0,1-1.78-6.64h0a4.87,4.87,0,0,1,6.64-1.78l34.26,19.78a4.87,4.87,0,0,1,1.78,6.64h0A4.87,4.87,0,0,1,687.34,4367.18Z" transform="translate(-69.93 -3394.84)"/>
  <path class="cls-1" d="M669,4399l-34.26-19.78a4.87,4.87,0,0,1-1.78-6.64h0a4.87,4.87,0,0,1,6.64-1.78l34.26,19.78a4.87,4.87,0,0,1,1.78,6.64h0A4.87,4.87,0,0,1,669,4399Z" transform="translate(-69.93 -3394.84)"/>
  <path class="cls-1" d="M650.6,4430.81L616.34,4411a4.87,4.87,0,0,1-1.78-6.64h0a4.87,4.87,0,0,1,6.64-1.78l34.26,19.78a4.87,4.87,0,0,1,1.78,6.64h0A4.87,4.87,0,0,1,650.6,4430.81Z" transform="translate(-69.93 -3394.84)"/>
</svg>
