<svg id="Layer_1" data-name="Layer 1" xmlns="http://www.w3.org/2000/svg" viewBox="0 0 659.05 634.81">
  <defs>
    <style>
      .cls-1 {
        fill: #7fc7ce;
      }

      .cls-2 {
        fill: #f7b4bd;
      }

      .cls-3 {
        fill: #fff;
      }
    </style>
  </defs>
  <title>logo</title>
  <g>
    <path class="cls-1" d="M433.11,678.65a15.35,15.35,0,1,0-28-10.08l-5.5,3.18,6.43,3.71a15.38,15.38,0,0,0,8,8.56c-4.06,3.25-9.05,9.22-10.25,19.46-2.09,17.92,43.27,42.82,78.86-6.52C482.65,697,441.29,703,433.11,678.65Z" transform="translate(-70.16 -91.08)"/>
    <g>
      <path class="cls-1" d="M419.14,491.2a1.6,1.6,0,0,1-1.6-1.6V488a1.6,1.6,0,0,1,3.2,0v1.6A1.6,1.6,0,0,1,419.14,491.2Z" transform="translate(-70.16 -91.08)"/>
      <path class="cls-1" d="M419.14,643.2a1.6,1.6,0,0,1-1.6-1.6V640a1.6,1.6,0,0,1,3.2,0v1.6A1.6,1.6,0,0,1,419.14,643.2Zm0-8a1.6,1.6,0,0,1-1.6-1.6V632a1.6,1.6,0,0,1,3.2,0v1.6A1.6,1.6,0,0,1,419.14,635.2Zm0-8a1.6,1.6,0,0,1-1.6-1.6V624a1.6,1.6,0,0,1,3.2,0v1.6A1.6,1.6,0,0,1,419.14,627.2Zm0-8a1.6,1.6,0,0,1-1.6-1.6V616a1.6,1.6,0,0,1,3.2,0v1.6A1.6,1.6,0,0,1,419.14,619.2Zm0-8a1.6,1.6,0,0,1-1.6-1.6V608a1.6,1.6,0,0,1,3.2,0v1.6A1.6,1.6,0,0,1,419.14,611.2Zm0-8a1.6,1.6,0,0,1-1.6-1.6V600a1.6,1.6,0,0,1,3.2,0v1.6A1.6,1.6,0,0,1,419.14,603.2Zm0-8a1.6,1.6,0,0,1-1.6-1.6V592a1.6,1.6,0,0,1,3.2,0v1.6A1.6,1.6,0,0,1,419.14,595.2Zm0-8a1.6,1.6,0,0,1-1.6-1.6V584a1.6,1.6,0,0,1,3.2,0v1.6A1.6,1.6,0,0,1,419.14,587.2Zm0-8a1.6,1.6,0,0,1-1.6-1.6V576a1.6,1.6,0,0,1,3.2,0v1.6A1.6,1.6,0,0,1,419.14,579.2Zm0-8a1.6,1.6,0,0,1-1.6-1.6V568a1.6,1.6,0,0,1,3.2,0v1.6A1.6,1.6,0,0,1,419.14,571.2Zm0-8a1.6,1.6,0,0,1-1.6-1.6V560a1.6,1.6,0,0,1,3.2,0v1.6A1.6,1.6,0,0,1,419.14,563.2Zm0-8a1.6,1.6,0,0,1-1.6-1.6V552a1.6,1.6,0,0,1,3.2,0v1.6A1.6,1.6,0,0,1,419.14,555.2Zm0-8a1.6,1.6,0,0,1-1.6-1.6V544a1.6,1.6,0,0,1,3.2,0v1.6A1.6,1.6,0,0,1,419.14,547.2Zm0-8a1.6,1.6,0,0,1-1.6-1.6V536a1.6,1.6,0,0,1,3.2,0v1.6A1.6,1.6,0,0,1,419.14,539.2Zm0-8a1.6,1.6,0,0,1-1.6-1.6V528a1.6,1.6,0,0,1,3.2,0v1.6A1.6,1.6,0,0,1,419.14,531.2Zm0-8a1.6,1.6,0,0,1-1.6-1.6V520a1.6,1.6,0,0,1,3.2,0v1.6A1.6,1.6,0,0,1,419.14,523.2Zm0-8a1.6,1.6,0,0,1-1.6-1.6V512a1.6,1.6,0,0,1,3.2,0v1.6A1.6,1.6,0,0,1,419.14,515.2Zm0-8a1.6,1.6,0,0,1-1.6-1.6V504a1.6,1.6,0,0,1,3.2,0v1.6A1.6,1.6,0,0,1,419.14,507.2Zm0-8a1.6,1.6,0,0,1-1.6-1.6V496a1.6,1.6,0,0,1,3.2,0v1.6A1.6,1.6,0,0,1,419.14,499.2Z" transform="translate(-70.16 -91.08)"/>
      <path class="cls-1" d="M419.14,651.2a1.6,1.6,0,0,1-1.48-1s-0.11-.26-0.3-0.67a1.6,1.6,0,0,1,.78-2.12,1.58,1.58,0,0,1,.48-0.14,1.6,1.6,0,0,1,2.12,1.51v0.8a1.6,1.6,0,0,1-1.29,1.57A1.63,1.63,0,0,1,419.14,651.2Z" transform="translate(-70.16 -91.08)"/>
      <path class="cls-1" d="M416.86,661.79h-0.15c-0.56-.05-1.15-0.14-1.76-0.26a1.6,1.6,0,0,1,.6-3.14c0.5,0.1,1,.17,1.45.21A1.6,1.6,0,0,1,416.86,661.79ZM408.95,660a1.59,1.59,0,0,1-.34,0c-0.51-.11-1-0.21-1.48-0.27a1.6,1.6,0,0,1,.45-3.17c0.55,0.08,1.12.19,1.71,0.32A1.6,1.6,0,0,1,408.95,660Zm12.62-1.38h-0.18a1.6,1.6,0,0,1-1.41-1.77,5.66,5.66,0,0,0,0-.65v-0.78a1.6,1.6,0,1,1,3.2,0v0.78a8.91,8.91,0,0,1-.05,1A1.6,1.6,0,0,1,421.57,658.66Zm-3.09-7.54h-0.16c-0.55-.05-1.11-0.12-1.67-0.2a1.6,1.6,0,0,1,.44-3.17c0.53,0.07,1,.14,1.55.19A1.6,1.6,0,0,1,418.48,651.12Zm6.45-.21a2.18,2.18,0,0,0-2.9-.34,1.6,1.6,0,0,1-1.07-2q0.26-.86.58-1.66a1.6,1.6,0,0,1,3.07.83c0.44-.11.89-0.25,1.36-0.41a1.6,1.6,0,0,1,1,3c-0.58.2-1.14,0.37-1.68,0.51A1.57,1.57,0,0,1,424.93,650.91Zm-14.41-1.34a1.59,1.59,0,0,1-.45-0.06q-0.83-.24-1.62-0.52a1.6,1.6,0,0,1,1-3c0.48,0.16,1,.32,1.47.47A1.6,1.6,0,0,1,410.52,649.57Zm21.86-1.85a1.6,1.6,0,0,1-.79-3c0.46-.26.91-0.52,1.34-0.79a1.6,1.6,0,1,1,1.68,2.72c-0.47.29-1,.58-1.45,0.86A1.58,1.58,0,0,1,432.38,647.72Zm-28.95-1.87a1.6,1.6,0,0,1-1.28-.63,4,4,0,0,1-.89-2.44,1.6,1.6,0,0,1,1.59-1.61,1.67,1.67,0,0,1,1.61,1.59,1,1,0,0,0,.24.52A1.6,1.6,0,0,1,403.44,645.85Zm12.07-.94a1.59,1.59,0,0,1-1.28-.63c-0.3-.39-0.61-0.78-0.95-1.15a1.6,1.6,0,0,1,2.38-2.13c0.39,0.44.76,0.89,1.11,1.35A1.6,1.6,0,0,1,415.51,644.91Zm11-1.22a1.6,1.6,0,0,1-1.13-2.73,16.42,16.42,0,0,1,1.34-1.2,1.6,1.6,0,1,1,2,2.5,12.6,12.6,0,0,0-1.07,1A1.6,1.6,0,0,1,426.52,643.69Zm12.4-.74a1.6,1.6,0,0,1-1.18-2.68,4.38,4.38,0,0,0,.7-0.94,1.6,1.6,0,1,1,2.86,1.43,7.48,7.48,0,0,1-1.21,1.67A1.6,1.6,0,0,1,438.92,643Zm-31.45-2.59a1.6,1.6,0,0,1-.29-3.17,9.67,9.67,0,0,1,1.3-.12,6.4,6.4,0,0,1,.8.05,1.6,1.6,0,0,1-.39,3.18,2.76,2.76,0,0,0-.44,0,3.75,3.75,0,0,0-.69.06A1.51,1.51,0,0,1,407.46,640.36Zm26.05-.53a1.6,1.6,0,0,1-.35-3.16,17,17,0,0,1,1.76-.3,1.6,1.6,0,0,1,.37,3.18,14,14,0,0,0-1.43.24A1.61,1.61,0,0,1,433.51,639.83Z" transform="translate(-70.16 -91.08)"/>
      <path class="cls-1" d="M402.25,663.2a1.6,1.6,0,0,1-1.6-1.6,8.06,8.06,0,0,1,.06-1,1.6,1.6,0,1,1,3.17.4,4.88,4.88,0,0,0,0,.61A1.6,1.6,0,0,1,402.25,663.2Z" transform="translate(-70.16 -91.08)"/>
    </g>
  </g>
  <g>
    <path class="cls-2" d="M547.05,623.41c-2.65-2.54-6.71-3.08-11.11-1.92a27,27,0,0,0-3.93-13,16.21,16.21,0,0,0,3.73-2.69c4.32-4.14,5.72-9.69,3.13-12.39s-8.19-1.55-12.51,2.59a16.26,16.26,0,0,0-2.91,3.72,27,27,0,0,0-3.87-2.08,16.29,16.29,0,0,0,5.15-16.43,6.77,6.77,0,0,0,1.1.11,6.85,6.85,0,1,0-6.55-8.75,16.4,16.4,0,0,0-20-.71,6.85,6.85,0,1,0-6.42,9.46A16.3,16.3,0,0,0,498,597.65a27.08,27.08,0,0,0-4.65,2.58,16,16,0,0,0-2.84-4c-4.14-4.32-9.68-5.72-12.39-3.13s-1.55,8.2,2.59,12.52a15.83,15.83,0,0,0,4.57,3.35,27.06,27.06,0,0,0-3.71,13.68c0,0.12,0,.23,0,0.35-5.86-2.8-11.68-2.87-15.12.42-5.22,5-3,15.81,5,24.14s18.67,11,23.89,6a9.42,9.42,0,0,0,2.73-5.92,26.89,26.89,0,0,0,17.52,1.28,9,9,0,0,0,2.52,4.63c5.22,5,15.92,2.3,23.9-6S552.27,628.41,547.05,623.41Z" transform="translate(-70.16 -91.08)"/>
    <g>
      <path class="cls-2" d="M507.11,470.4a1.6,1.6,0,0,1-1.6-1.6v-1.6a1.6,1.6,0,1,1,3.2,0v1.6A1.6,1.6,0,0,1,507.11,470.4Z" transform="translate(-70.16 -91.08)"/>
      <path class="cls-2" d="M507.11,564.8a1.6,1.6,0,0,1-1.6-1.6v-1.6a1.6,1.6,0,1,1,3.2,0v1.6A1.6,1.6,0,0,1,507.11,564.8Zm0-8a1.6,1.6,0,0,1-1.6-1.6v-1.6a1.6,1.6,0,1,1,3.2,0v1.6A1.6,1.6,0,0,1,507.11,556.8Zm0-8a1.6,1.6,0,0,1-1.6-1.6v-1.6a1.6,1.6,0,1,1,3.2,0v1.6A1.6,1.6,0,0,1,507.11,548.8Zm0-8a1.6,1.6,0,0,1-1.6-1.6v-1.6a1.6,1.6,0,1,1,3.2,0v1.6A1.6,1.6,0,0,1,507.11,540.8Zm0-8a1.6,1.6,0,0,1-1.6-1.6v-1.6a1.6,1.6,0,1,1,3.2,0v1.6A1.6,1.6,0,0,1,507.11,532.8Zm0-8a1.6,1.6,0,0,1-1.6-1.6v-1.6a1.6,1.6,0,1,1,3.2,0v1.6A1.6,1.6,0,0,1,507.11,524.8Zm0-8a1.6,1.6,0,0,1-1.6-1.6v-1.6a1.6,1.6,0,1,1,3.2,0v1.6A1.6,1.6,0,0,1,507.11,516.8Zm0-8a1.6,1.6,0,0,1-1.6-1.6v-1.6a1.6,1.6,0,1,1,3.2,0v1.6A1.6,1.6,0,0,1,507.11,508.8Zm0-8a1.6,1.6,0,0,1-1.6-1.6v-1.6a1.6,1.6,0,1,1,3.2,0v1.6A1.6,1.6,0,0,1,507.11,500.8Zm0-8a1.6,1.6,0,0,1-1.6-1.6v-1.6a1.6,1.6,0,1,1,3.2,0v1.6A1.6,1.6,0,0,1,507.11,492.8Zm0-8a1.6,1.6,0,0,1-1.6-1.6v-1.6a1.6,1.6,0,1,1,3.2,0v1.6A1.6,1.6,0,0,1,507.11,484.8Zm0-8a1.6,1.6,0,0,1-1.6-1.6v-1.6a1.6,1.6,0,1,1,3.2,0v1.6A1.6,1.6,0,0,1,507.11,476.8Z" transform="translate(-70.16 -91.08)"/>
      <path class="cls-2" d="M507.11,569.6a1.6,1.6,0,0,1-1.53-1.12s-0.08-.27-0.23-0.69a1.6,1.6,0,0,1,1-2,1.56,1.56,0,0,1,.39-0.09,1.6,1.6,0,0,1,2,1.55V568a1.6,1.6,0,0,1-1.36,1.58Z" transform="translate(-70.16 -91.08)"/>
      <path class="cls-2" d="M506.54,580.09l-0.22,0c-0.55-.08-1.12-0.18-1.7-0.3a1.6,1.6,0,0,1,.63-3.14c0.52,0.11,1,.2,1.52.27A1.6,1.6,0,0,1,506.54,580.09Zm-8-1.73-0.3,0c-0.52-.1-1-0.18-1.5-0.24a1.6,1.6,0,0,1,.38-3.18c0.55,0.07,1.13.16,1.73,0.27A1.6,1.6,0,0,1,498.54,578.36Zm13.72-.16a1.6,1.6,0,0,1-1.49-2.19,3.45,3.45,0,0,0,.2-1.08,1.6,1.6,0,0,1,3.2.16,6.61,6.61,0,0,1-.43,2.11A1.6,1.6,0,0,1,512.26,578.2Zm0.9-8.1a1.69,1.69,0,0,1-.37,0,1.6,1.6,0,0,1-1.19-1.93q0.21-.88.47-1.7a4.06,4.06,0,0,0,3.58-.48c0.47-.14,1-0.31,1.46-0.5a1.6,1.6,0,0,1,1.12,3c-0.57.21-1.12,0.4-1.65,0.56a1.6,1.6,0,0,1-1.76-.59l-0.11.44A1.6,1.6,0,0,1,513.16,570.1Zm-3.52-.5h-0.12c-0.55,0-1.12-.1-1.69-0.17a1.6,1.6,0,0,1,.37-3.18q0.8,0.09,1.57.15A1.6,1.6,0,0,1,509.63,569.6Zm-8.07-1.36a1.6,1.6,0,0,1-.4,0c-0.55-.14-1.1-0.3-1.64-0.46a1.6,1.6,0,1,1,.92-3.07c0.5,0.15,1,.29,1.52.42A1.6,1.6,0,0,1,501.56,568.24Zm22-2.52a1.6,1.6,0,0,1-.8-3c0.46-.26.91-0.54,1.35-0.81a1.6,1.6,0,0,1,1.7,2.71c-0.47.3-1,.59-1.46,0.88A1.59,1.59,0,0,1,523.57,565.72ZM494,565.11a1.59,1.59,0,0,1-1-.33,6.54,6.54,0,0,1-1.5-1.56,1.6,1.6,0,1,1,2.67-1.76,3.42,3.42,0,0,0,.77.78A1.6,1.6,0,0,1,494,565.11ZM504,563a1.6,1.6,0,0,1-1.33-.71c-0.27-.41-0.57-0.81-0.88-1.19a1.6,1.6,0,1,1,2.48-2c0.38,0.46.73,0.95,1.06,1.44A1.6,1.6,0,0,1,504,563Zm12.74-.16a1.6,1.6,0,0,1-1.21-2.64,15.81,15.81,0,0,1,1.25-1.31,1.6,1.6,0,0,1,2.18,2.34,12.79,12.79,0,0,0-1,1.05A1.6,1.6,0,0,1,516.72,562.82Zm13.34-2a1.6,1.6,0,0,1-1.24-2.6,2,2,0,0,0,.41-0.66,1.66,1.66,0,0,1,1.86-1.28A1.55,1.55,0,0,1,532.4,558a4.62,4.62,0,0,1-1.09,2.21A1.6,1.6,0,0,1,530.06,560.79Zm-34.16-1.7a1.6,1.6,0,0,1-.61-3.08,7,7,0,0,1,2-.52,1.58,1.58,0,0,1,1.74,1.45,1.6,1.6,0,0,1-1.45,1.74,3.8,3.8,0,0,0-1.11.28A1.6,1.6,0,0,1,495.9,559.09Zm27.59-.65a1.6,1.6,0,0,1-.44-3.14,16.51,16.51,0,0,1,1.77-.4,1.6,1.6,0,0,1,.53,3.16,12.62,12.62,0,0,0-1.42.32A1.63,1.63,0,0,1,523.48,558.44Z" transform="translate(-70.16 -91.08)"/>
      <path class="cls-2" d="M491.72,581.6a1.6,1.6,0,0,1-1.6-1.6,7.63,7.63,0,0,1,.06-1,1.6,1.6,0,1,1,3.17.42,4.63,4.63,0,0,0,0,.59A1.6,1.6,0,0,1,491.72,581.6Z" transform="translate(-70.16 -91.08)"/>
    </g>
  </g>
  <g>
    <path class="cls-2" d="M239.62,547.45a15.35,15.35,0,1,1,28-10.08l5.5,3.18-6.43,3.71a15.38,15.38,0,0,1-8,8.56c4.06,3.25,9.05,9.22,10.25,19.46,2.09,17.92-43.27,42.82-78.86-6.52C190.07,565.76,231.43,571.78,239.62,547.45Z" transform="translate(-70.16 -91.08)"/>
    <g>
      <path class="cls-2" d="M249.6,420.8a1.6,1.6,0,0,1-1.6-1.6v-1.6a1.6,1.6,0,1,1,3.2,0v1.6A1.6,1.6,0,0,1,249.6,420.8Z" transform="translate(-70.16 -91.08)"/>
      <path class="cls-2" d="M249.6,515.2a1.6,1.6,0,0,1-1.6-1.6V512a1.6,1.6,0,1,1,3.2,0v1.6A1.6,1.6,0,0,1,249.6,515.2Zm0-8a1.6,1.6,0,0,1-1.6-1.6V504a1.6,1.6,0,1,1,3.2,0v1.6A1.6,1.6,0,0,1,249.6,507.2Zm0-8a1.6,1.6,0,0,1-1.6-1.6V496a1.6,1.6,0,1,1,3.2,0v1.6A1.6,1.6,0,0,1,249.6,499.2Zm0-8a1.6,1.6,0,0,1-1.6-1.6V488a1.6,1.6,0,1,1,3.2,0v1.6A1.6,1.6,0,0,1,249.6,491.2Zm0-8a1.6,1.6,0,0,1-1.6-1.6V480a1.6,1.6,0,1,1,3.2,0v1.6A1.6,1.6,0,0,1,249.6,483.2Zm0-8a1.6,1.6,0,0,1-1.6-1.6V472a1.6,1.6,0,1,1,3.2,0v1.6A1.6,1.6,0,0,1,249.6,475.2Zm0-8a1.6,1.6,0,0,1-1.6-1.6V464a1.6,1.6,0,1,1,3.2,0v1.6A1.6,1.6,0,0,1,249.6,467.2Zm0-8a1.6,1.6,0,0,1-1.6-1.6V456a1.6,1.6,0,1,1,3.2,0v1.6A1.6,1.6,0,0,1,249.6,459.2Zm0-8a1.6,1.6,0,0,1-1.6-1.6V448a1.6,1.6,0,1,1,3.2,0v1.6A1.6,1.6,0,0,1,249.6,451.2Zm0-8a1.6,1.6,0,0,1-1.6-1.6V440a1.6,1.6,0,1,1,3.2,0v1.6A1.6,1.6,0,0,1,249.6,443.2Zm0-8a1.6,1.6,0,0,1-1.6-1.6V432a1.6,1.6,0,1,1,3.2,0v1.6A1.6,1.6,0,0,1,249.6,435.2Zm0-8a1.6,1.6,0,0,1-1.6-1.6V424a1.6,1.6,0,1,1,3.2,0v1.6A1.6,1.6,0,0,1,249.6,427.2Z" transform="translate(-70.16 -91.08)"/>
      <path class="cls-2" d="M249.6,520a1.6,1.6,0,0,1-1.53-1.12s-0.08-.27-0.23-0.69a1.6,1.6,0,0,1,1-2,1.54,1.54,0,0,1,.39-0.09,1.64,1.64,0,0,1,2,1.54v0.8a1.6,1.6,0,0,1-1.36,1.58Z" transform="translate(-70.16 -91.08)"/>
      <path class="cls-2" d="M249,530.49l-0.23,0c-0.55-.08-1.12-0.18-1.71-0.3a1.6,1.6,0,0,1,.63-3.14c0.52,0.11,1,.2,1.52.27A1.6,1.6,0,0,1,249,530.49Zm-8-1.73-0.3,0c-0.52-.1-1-0.18-1.5-0.24a1.6,1.6,0,0,1,.38-3.18c0.55,0.07,1.13.16,1.73,0.27A1.6,1.6,0,0,1,241,528.76Zm13.72-.16a1.57,1.57,0,0,1-.59-0.11,1.6,1.6,0,0,1-.9-2.08,3.43,3.43,0,0,0,.21-1.09,1.62,1.62,0,0,1,1.68-1.52,1.6,1.6,0,0,1,1.52,1.68,6.62,6.62,0,0,1-.43,2.11A1.6,1.6,0,0,1,254.74,528.6Zm0.9-8.1a1.6,1.6,0,0,1-1.56-2c0.13-.59.29-1.16,0.47-1.71a1.6,1.6,0,0,1,3-.15,1.58,1.58,0,0,1,.59-0.33c0.47-.14,1-0.31,1.45-0.5a1.6,1.6,0,0,1,1.12,3c-0.57.21-1.12,0.4-1.65,0.56a1.61,1.61,0,0,1-1.76-.59c0,0.15-.08.29-0.11,0.44A1.6,1.6,0,0,1,255.64,520.5Zm-3.52-.5H252q-0.82-.06-1.7-0.16a1.6,1.6,0,0,1,.38-3.18c0.54,0.06,1.06.11,1.56,0.15A1.6,1.6,0,0,1,252.12,520ZM244,518.64a1.6,1.6,0,0,1-.4,0c-0.55-.14-1.1-0.29-1.64-0.46a1.6,1.6,0,1,1,.92-3.07c0.5,0.15,1,.29,1.52.42A1.6,1.6,0,0,1,244,518.64Zm22-2.52a1.6,1.6,0,0,1-.8-3c0.46-.26.91-0.54,1.35-0.81a1.6,1.6,0,0,1,1.7,2.71c-0.47.3-1,.59-1.46,0.88A1.6,1.6,0,0,1,266.06,516.12Zm-29.53-.61a1.59,1.59,0,0,1-1-.33,6.55,6.55,0,0,1-1.5-1.56,1.6,1.6,0,1,1,2.67-1.76,3.47,3.47,0,0,0,.77.78A1.6,1.6,0,0,1,236.53,515.51Zm9.93-2.13a1.6,1.6,0,0,1-1.33-.71c-0.27-.41-0.57-0.81-0.88-1.2a1.6,1.6,0,1,1,2.48-2c0.38,0.46.73,0.95,1.06,1.44A1.6,1.6,0,0,1,246.46,513.38Zm12.74-.16a1.6,1.6,0,0,1-1.22-2.64,15.1,15.1,0,0,1,1.26-1.31,1.6,1.6,0,1,1,2.18,2.34,13.08,13.08,0,0,0-1,1A1.6,1.6,0,0,1,259.2,513.22Zm13.35-2a1.6,1.6,0,0,1-1.24-2.6,2.06,2.06,0,0,0,.41-0.66,1.64,1.64,0,0,1,1.86-1.28,1.55,1.55,0,0,1,1.31,1.74,4.6,4.6,0,0,1-1.09,2.21A1.6,1.6,0,0,1,272.55,511.19Zm-34.16-1.69a1.6,1.6,0,0,1-.62-3.08,7,7,0,0,1,2.05-.52,1.6,1.6,0,0,1,.28,3.19,3.76,3.76,0,0,0-1.1.29A1.59,1.59,0,0,1,238.39,509.49Zm27.58-.65a1.6,1.6,0,0,1-.45-3.14,16.2,16.2,0,0,1,1.77-.4,1.6,1.6,0,0,1,.53,3.16,12.26,12.26,0,0,0-1.42.32A1.64,1.64,0,0,1,266,508.84Z" transform="translate(-70.16 -91.08)"/>
      <path class="cls-2" d="M234.21,532a1.6,1.6,0,0,1-1.6-1.6,7.64,7.64,0,0,1,.06-1,1.6,1.6,0,1,1,3.17.42,4.65,4.65,0,0,0,0,.59A1.6,1.6,0,0,1,234.21,532Z" transform="translate(-70.16 -91.08)"/>
    </g>
  </g>
  <g>
    <g>
      <path class="cls-1" d="M336,377.6a1.6,1.6,0,0,1-1.6-1.6v-1.6a1.6,1.6,0,1,1,3.2,0V376A1.6,1.6,0,0,1,336,377.6Z" transform="translate(-70.16 -91.08)"/>
      <path class="cls-1" d="M336,529.6a1.6,1.6,0,0,1-1.6-1.6v-1.6a1.6,1.6,0,1,1,3.2,0V528A1.6,1.6,0,0,1,336,529.6Zm0-8a1.6,1.6,0,0,1-1.6-1.6v-1.6a1.6,1.6,0,1,1,3.2,0V520A1.6,1.6,0,0,1,336,521.6Zm0-8a1.6,1.6,0,0,1-1.6-1.6v-1.6a1.6,1.6,0,1,1,3.2,0V512A1.6,1.6,0,0,1,336,513.6Zm0-8a1.6,1.6,0,0,1-1.6-1.6v-1.6a1.6,1.6,0,1,1,3.2,0V504A1.6,1.6,0,0,1,336,505.6Zm0-8a1.6,1.6,0,0,1-1.6-1.6v-1.6a1.6,1.6,0,1,1,3.2,0V496A1.6,1.6,0,0,1,336,497.6Zm0-8a1.6,1.6,0,0,1-1.6-1.6v-1.6a1.6,1.6,0,1,1,3.2,0V488A1.6,1.6,0,0,1,336,489.6Zm0-8a1.6,1.6,0,0,1-1.6-1.6v-1.6a1.6,1.6,0,1,1,3.2,0V480A1.6,1.6,0,0,1,336,481.6Zm0-8a1.6,1.6,0,0,1-1.6-1.6v-1.6a1.6,1.6,0,1,1,3.2,0V472A1.6,1.6,0,0,1,336,473.6Zm0-8a1.6,1.6,0,0,1-1.6-1.6v-1.6a1.6,1.6,0,1,1,3.2,0V464A1.6,1.6,0,0,1,336,465.6Zm0-8a1.6,1.6,0,0,1-1.6-1.6v-1.6a1.6,1.6,0,1,1,3.2,0V456A1.6,1.6,0,0,1,336,457.6Zm0-8a1.6,1.6,0,0,1-1.6-1.6v-1.6a1.6,1.6,0,1,1,3.2,0V448A1.6,1.6,0,0,1,336,449.6Zm0-8a1.6,1.6,0,0,1-1.6-1.6v-1.6a1.6,1.6,0,1,1,3.2,0V440A1.6,1.6,0,0,1,336,441.6Zm0-8a1.6,1.6,0,0,1-1.6-1.6v-1.6a1.6,1.6,0,1,1,3.2,0V432A1.6,1.6,0,0,1,336,433.6Zm0-8a1.6,1.6,0,0,1-1.6-1.6v-1.6a1.6,1.6,0,1,1,3.2,0V424A1.6,1.6,0,0,1,336,425.6Zm0-8a1.6,1.6,0,0,1-1.6-1.6v-1.6a1.6,1.6,0,1,1,3.2,0V416A1.6,1.6,0,0,1,336,417.6Zm0-8a1.6,1.6,0,0,1-1.6-1.6v-1.6a1.6,1.6,0,1,1,3.2,0V408A1.6,1.6,0,0,1,336,409.6Zm0-8a1.6,1.6,0,0,1-1.6-1.6v-1.6a1.6,1.6,0,1,1,3.2,0V400A1.6,1.6,0,0,1,336,401.6Zm0-8a1.6,1.6,0,0,1-1.6-1.6v-1.6a1.6,1.6,0,1,1,3.2,0V392A1.6,1.6,0,0,1,336,393.6Zm0-8a1.6,1.6,0,0,1-1.6-1.6v-1.6a1.6,1.6,0,1,1,3.2,0V384A1.6,1.6,0,0,1,336,385.6Z" transform="translate(-70.16 -91.08)"/>
      <path class="cls-1" d="M336,537.6a1.6,1.6,0,0,1-1.48-1s-0.11-.26-0.3-0.66a1.6,1.6,0,0,1,.77-2.13,1.63,1.63,0,0,1,.48-0.14,1.65,1.65,0,0,1,.52-0.09,1.6,1.6,0,0,1,1.6,1.6V536a1.6,1.6,0,0,1-1.29,1.57A1.63,1.63,0,0,1,336,537.6Z" transform="translate(-70.16 -91.08)"/>
      <path class="cls-1" d="M333.69,548.19h-0.15c-0.56-.05-1.15-0.14-1.76-0.26a1.6,1.6,0,0,1,.6-3.14c0.5,0.1,1,.17,1.45.21A1.6,1.6,0,0,1,333.69,548.19Zm-7.91-1.76a1.67,1.67,0,0,1-.34,0c-0.51-.11-1-0.21-1.48-0.28a1.6,1.6,0,0,1,.45-3.17c0.55,0.08,1.12.19,1.71,0.32A1.6,1.6,0,0,1,325.77,546.43Zm12.62-1.38h-0.18a1.6,1.6,0,0,1-1.41-1.77,5.77,5.77,0,0,0,0-.66v-0.79a1.6,1.6,0,1,1,3.2,0v0.79a9.2,9.2,0,0,1-.05,1A1.6,1.6,0,0,1,338.4,545.05Zm-3.09-7.53h-0.16c-0.54-.05-1.1-0.12-1.67-0.2a1.6,1.6,0,0,1,.44-3.17l1.55,0.19A1.6,1.6,0,0,1,335.31,537.52Zm6.45-.21a2.19,2.19,0,0,0-2.9-.34,1.6,1.6,0,0,1-1.07-2q0.26-.86.58-1.66a1.6,1.6,0,0,1,3.07.83c0.43-.11.89-0.25,1.36-0.42a1.6,1.6,0,0,1,1,3c-0.58.2-1.15,0.37-1.68,0.51A1.59,1.59,0,0,1,341.76,537.31ZM327.35,536a1.63,1.63,0,0,1-.45-0.06c-0.55-.16-1.1-0.34-1.62-0.52a1.6,1.6,0,1,1,1-3c0.47,0.16,1,.32,1.47.47A1.6,1.6,0,0,1,327.35,536Zm21.86-1.85a1.6,1.6,0,0,1-.79-3q0.68-.39,1.35-0.79a1.6,1.6,0,1,1,1.67,2.73c-0.47.29-1,.58-1.45,0.85A1.58,1.58,0,0,1,349.21,534.13Zm-28.95-1.87a1.6,1.6,0,0,1-1.28-.63,3.48,3.48,0,0,1-.89-2.22,1.43,1.43,0,0,1,1.59-1.4h0a1.43,1.43,0,0,1,1.6,1.38,0.72,0.72,0,0,0,.24.41A1.51,1.51,0,0,1,320.26,532.25Zm12.08-.94a1.59,1.59,0,0,1-1.27-.63c-0.3-.39-0.62-0.78-1-1.16a1.6,1.6,0,0,1,2.39-2.13c0.39,0.44.76,0.89,1.11,1.35a1.6,1.6,0,0,1-.31,2.24A1.58,1.58,0,0,1,332.34,531.31Zm11-1.22a1.6,1.6,0,0,1-1.13-2.73,16,16,0,0,1,1.34-1.2,1.6,1.6,0,1,1,2,2.5,12.59,12.59,0,0,0-1.07,1A1.6,1.6,0,0,1,343.35,530.09Zm12.4-.74a1.6,1.6,0,0,1-1.17-2.69,4.29,4.29,0,0,0,.7-0.93,1.6,1.6,0,1,1,2.86,1.43,7.39,7.39,0,0,1-1.21,1.67A1.6,1.6,0,0,1,355.74,529.35Zm-31.45-2.59a1.6,1.6,0,0,1-.29-3.17,7.62,7.62,0,0,1,1.3-.12,6.4,6.4,0,0,1,.8.05,1.6,1.6,0,0,1-.39,3.17,2.47,2.47,0,0,0-.44,0,3.54,3.54,0,0,0-.68.06Zm26.05-.53a1.6,1.6,0,0,1-.35-3.16,17.44,17.44,0,0,1,1.76-.3,1.6,1.6,0,0,1,.37,3.18,13.78,13.78,0,0,0-1.43.24A1.71,1.71,0,0,1,350.35,526.23Z" transform="translate(-70.16 -91.08)"/>
      <path class="cls-1" d="M319.08,549.6a1.6,1.6,0,0,1-1.6-1.6,8.3,8.3,0,0,1,.06-1,1.6,1.6,0,0,1,3.17.39,5.29,5.29,0,0,0,0,.61A1.6,1.6,0,0,1,319.08,549.6Z" transform="translate(-70.16 -91.08)"/>
    </g>
    <g>
      <g>
        <ellipse class="cls-1" cx="266.88" cy="540.94" rx="23.97" ry="23.98"/>
        <circle class="cls-1" cx="266.88" cy="446.34" r="11.55"/>
        <g>
          <g>
            <path class="cls-1" d="M348,609.5S344,606,336,605.86V592.57A17.59,17.59,0,0,1,348,609.5Z" transform="translate(-70.16 -91.08)"/>
            <path class="cls-1" d="M345.81,599.18s-6.36-13.58-6.36-39.18H336v34.8l7.11,8.54Z" transform="translate(-70.16 -91.08)"/>
          </g>
          <g>
            <path class="cls-1" d="M323.91,609.5A27.72,27.72,0,0,1,336,605.86V592.57A17.59,17.59,0,0,0,323.91,609.5Z" transform="translate(-70.16 -91.08)"/>
            <path class="cls-1" d="M328,599.18s6.36-13.58,6.36-39.18h3.16v34.8l-7,8.54Z" transform="translate(-70.16 -91.08)"/>
          </g>
        </g>
        <g>
          <g>
            <path class="cls-1" d="M326.87,533.76a21.07,21.07,0,0,0,9.1,2.75v10A13.27,13.27,0,0,1,326.87,533.76Z" transform="translate(-70.16 -91.08)"/>
            <path class="cls-1" d="M330.42,541.6s4.8,10.4,4.8,29.6h2.35V544.86l-5.23-6.42Z" transform="translate(-70.16 -91.08)"/>
          </g>
          <g>
            <path class="cls-1" d="M345.07,533.76s-2.7,2.61-9.1,2.75v10A13.27,13.27,0,0,0,345.07,533.76Z" transform="translate(-70.16 -91.08)"/>
            <path class="cls-1" d="M343.82,541.6S339,552,339,571.2H336V544.86l5.58-6.42Z" transform="translate(-70.16 -91.08)"/>
          </g>
        </g>
      </g>
      <path class="cls-3" d="M330,650a10.36,10.36,0,0,0,7.56-4.39,22.85,22.85,0,0,0,3.07-19.19c-2.19-7.68,5.92-10.86,9.43-5.59s-3.29,8.55-3.73,16.23S341.39,656.88,330,650Z" transform="translate(-70.16 -91.08)"/>
    </g>
  </g>
  <g>
    <g>
      <path class="cls-1" d="M588.69,372.8a1.6,1.6,0,0,1-1.6-1.6v-1.6a1.6,1.6,0,1,1,3.2,0v1.6A1.6,1.6,0,0,1,588.69,372.8Z" transform="translate(-70.16 -91.08)"/>
      <path class="cls-1" d="M588.69,483.2a1.6,1.6,0,0,1-1.6-1.6V480a1.6,1.6,0,1,1,3.2,0v1.6A1.6,1.6,0,0,1,588.69,483.2Zm0-8a1.6,1.6,0,0,1-1.6-1.6V472a1.6,1.6,0,1,1,3.2,0v1.6A1.6,1.6,0,0,1,588.69,475.2Zm0-8a1.6,1.6,0,0,1-1.6-1.6V464a1.6,1.6,0,1,1,3.2,0v1.6A1.6,1.6,0,0,1,588.69,467.2Zm0-8a1.6,1.6,0,0,1-1.6-1.6V456a1.6,1.6,0,1,1,3.2,0v1.6A1.6,1.6,0,0,1,588.69,459.2Zm0-8a1.6,1.6,0,0,1-1.6-1.6V448a1.6,1.6,0,1,1,3.2,0v1.6A1.6,1.6,0,0,1,588.69,451.2Zm0-8a1.6,1.6,0,0,1-1.6-1.6V440a1.6,1.6,0,1,1,3.2,0v1.6A1.6,1.6,0,0,1,588.69,443.2Zm0-8a1.6,1.6,0,0,1-1.6-1.6V432a1.6,1.6,0,1,1,3.2,0v1.6A1.6,1.6,0,0,1,588.69,435.2Zm0-8a1.6,1.6,0,0,1-1.6-1.6V424a1.6,1.6,0,1,1,3.2,0v1.6A1.6,1.6,0,0,1,588.69,427.2Zm0-8a1.6,1.6,0,0,1-1.6-1.6V416a1.6,1.6,0,1,1,3.2,0v1.6A1.6,1.6,0,0,1,588.69,419.2Zm0-8a1.6,1.6,0,0,1-1.6-1.6V408a1.6,1.6,0,1,1,3.2,0v1.6A1.6,1.6,0,0,1,588.69,411.2Zm0-8a1.6,1.6,0,0,1-1.6-1.6V400a1.6,1.6,0,1,1,3.2,0v1.6A1.6,1.6,0,0,1,588.69,403.2Zm0-8a1.6,1.6,0,0,1-1.6-1.6V392a1.6,1.6,0,1,1,3.2,0v1.6A1.6,1.6,0,0,1,588.69,395.2Zm0-8a1.6,1.6,0,0,1-1.6-1.6V384a1.6,1.6,0,1,1,3.2,0v1.6A1.6,1.6,0,0,1,588.69,387.2Zm0-8a1.6,1.6,0,0,1-1.6-1.6V376a1.6,1.6,0,1,1,3.2,0v1.6A1.6,1.6,0,0,1,588.69,379.2Z" transform="translate(-70.16 -91.08)"/>
      <path class="cls-1" d="M588.69,487.81a1.6,1.6,0,0,1-1.49-1s-0.11-.26-0.28-0.64a1.6,1.6,0,0,1,.77-2.13,1.56,1.56,0,0,1,.49-0.14,1.6,1.6,0,0,1,2.11,1.52v0.8a1.6,1.6,0,0,1-1.3,1.57Z" transform="translate(-70.16 -91.08)"/>
      <path class="cls-1" d="M589.95,494.88a1.6,1.6,0,0,1-1.06-2.8,0.94,0.94,0,0,0,.21-0.49,1.6,1.6,0,1,1,3.14.6,3.93,3.93,0,0,1-1.24,2.29A1.59,1.59,0,0,1,589.95,494.88Zm-6.17-.14a1.54,1.54,0,0,1-.4-0.05l-0.19,0-1.33-.34a1.6,1.6,0,0,1,.74-3.11l1.39,0.35,0.19,0A1.6,1.6,0,0,1,583.77,494.74Zm6.9-6.86-1,0a1.6,1.6,0,0,1-1.53-1.67,1.62,1.62,0,0,1,1.67-1.53h0.21c0.15-.42.32-0.84,0.5-1.24a1.6,1.6,0,0,1,2.12-.79,1.73,1.73,0,0,1,1,2.12,3,3,0,0,0-.25,1.3h0s-0.25.07-.25,0.11a1.71,1.71,0,0,1-1.65,1.68Zm-7.2-1a1.57,1.57,0,0,1-.4-0.05c-0.56-.14-1.1-0.3-1.63-0.47a1.6,1.6,0,0,1,1-3c0.47,0.15.95,0.29,1.44,0.42A1.6,1.6,0,0,1,583.48,486.86Zm13.93-1a1.6,1.6,0,0,1-.73-3c0.45-.23.89-0.47,1.33-0.73a1.6,1.6,0,0,1,1.61,2.77c-0.49.28-1,.55-1.48,0.81A1.58,1.58,0,0,1,597.41,485.87ZM577.1,483.2H577a1.77,1.77,0,0,1-1.52-1.88,3.91,3.91,0,0,1,1.19-2.54,1.6,1.6,0,0,1,2.26-.05,1.57,1.57,0,0,1,0,2.24,1.2,1.2,0,0,0-.26.53A1.76,1.76,0,0,1,577.1,483.2Zm7.75-1.42a1.59,1.59,0,0,1-1.12-.46,6.76,6.76,0,0,0-1-.82,1.6,1.6,0,0,1,1.77-2.66A10,10,0,0,1,586,479,1.6,1.6,0,0,1,584.85,481.78Zm18.92-.65a2.24,2.24,0,1,1,.9-4.32,2.32,2.32,0,0,1,1,1.9,3.16,3.16,0,0,1-.54,1.67A1.6,1.6,0,0,1,603.77,481.14Zm-7.65-.22a1.6,1.6,0,0,1-.85-3,11.94,11.94,0,0,1,1.63-.85,1.6,1.6,0,0,1,1.26,2.94,9,9,0,0,0-1.2.62A1.58,1.58,0,0,1,596.12,480.92Z" transform="translate(-70.16 -91.08)"/>
      <path class="cls-1" d="M576.63,496.47a1.6,1.6,0,0,1-1.6-1.6,5.89,5.89,0,0,1,.1-1.1,1.6,1.6,0,1,1,3.14.6,2.76,2.76,0,0,0,0,.51A1.6,1.6,0,0,1,576.63,496.47Z" transform="translate(-70.16 -91.08)"/>
    </g>
    <g>
      <g>
        <ellipse class="cls-1" cx="519.59" cy="464.42" rx="17.3" ry="17.3"/>
        <circle class="cls-1" cx="519.59" cy="396.15" r="8.33"/>
        <g>
          <g>
            <path class="cls-1" d="M597.39,539.25s-2.3-2.5-8.7-2.63V527A12.69,12.69,0,0,1,597.39,539.25Z" transform="translate(-70.16 -91.08)"/>
            <path class="cls-1" d="M596.08,532s-4.59-10.44-4.59-28h-2.81v24.64l5.28,6.28Z" transform="translate(-70.16 -91.08)"/>
          </g>
          <g>
            <path class="cls-1" d="M580,539.25a19,19,0,0,1,8.7-2.63V527A12.69,12.69,0,0,0,580,539.25Z" transform="translate(-70.16 -91.08)"/>
            <path class="cls-1" d="M583.27,532s4.59-10.44,4.59-28h2.43v24.64l-5.09,6.28Z" transform="translate(-70.16 -91.08)"/>
          </g>
        </g>
        <g>
          <g>
            <path class="cls-1" d="M582.12,484.59a16.91,16.91,0,0,0,6.56,2v7.23A9.58,9.58,0,0,1,582.12,484.59Z" transform="translate(-70.16 -91.08)"/>
            <path class="cls-1" d="M585,490.44s3.46,7.16,3.46,21.56h1.85V492.6l-3.85-4.54Z" transform="translate(-70.16 -91.08)"/>
          </g>
          <g>
            <path class="cls-1" d="M595.25,484.59s-1.77,1.89-6.57,2v7.23A9.58,9.58,0,0,0,595.25,484.59Z" transform="translate(-70.16 -91.08)"/>
            <path class="cls-1" d="M594.65,490.44s-3.46,7.16-3.46,21.56h-2.5V492.6l4.17-4.54Z" transform="translate(-70.16 -91.08)"/>
          </g>
        </g>
      </g>
      <path class="cls-3" d="M584.66,568.45a7.47,7.47,0,0,0,5.46-3.17,16.48,16.48,0,0,0,2.22-13.85c-1.58-5.54,4.27-7.84,6.8-4s-2.37,6.17-2.69,11.71S592.89,573.43,584.66,568.45Z" transform="translate(-70.16 -91.08)"/>
    </g>
  </g>
  <path class="cls-3" d="M377.55,131.2s39-42.75,105.14-36.29,57.49,14.45,57.49,14.45,52.57,5.54,75,36.29,27.67,33.83,27.67,33.83,37.81-6.77,56.87,11.07S732,234.22,720.63,261s-30.13,30.75-30.13,30.75,12,15.07,5.23,43.67-17.53,69.5-92.54,86.11L598.28,423S582,465.47,529.11,475.32,387.69,503,337.89,434.73c0,0-45.5,41.82-107,25.83s-73.78-63.35-73.78-63.35S98.1,412,84,370.76s-18.45-86.1,44.27-107.63l4.53-3.54s14.07-51.9,55.34-40.82c0,0-2.07-78.65,79.54-99.41C339.58,102.75,376,132.27,376,132.27" transform="translate(-70.16 -91.08)"/>
  <path class="cls-1" d="M590,286l-0.45,0a5.4,5.4,0,0,1-4.94-5.83c1.45-17.38-12.42-30-12.57-30.15a5.4,5.4,0,1,1,7.21-8.06c0.74,0.66,18,16.41,16.13,39.1A5.4,5.4,0,0,1,590,286Z" transform="translate(-70.16 -91.08)"/>
  <path class="cls-1" d="M292.51,277.47a5.41,5.41,0,0,1-1.46-10.61c8-2.25,10.15-10,10.17-10.07a5.4,5.4,0,1,1,10.49,2.62c-0.14.57-3.63,13.9-17.74,17.85A5.28,5.28,0,0,1,292.51,277.47Z" transform="translate(-70.16 -91.08)"/>
  <path class="cls-1" d="M339.33,234.69a5.41,5.41,0,0,1-1.45-10.61A15.23,15.23,0,0,0,348.07,214a5.4,5.4,0,0,1,10.47,2.68c-0.14.56-3.63,13.89-17.75,17.85A5.34,5.34,0,0,1,339.33,234.69Z" transform="translate(-70.16 -91.08)"/>
  <path class="cls-1" d="M253.1,289.64a5.38,5.38,0,0,1-3-.92c-13.88-9.37-22-35.86-18.86-61.61,3.81-31.34,22.76-55.47,52-66.2,49.09-18,70.52,8,86.15,27,5.72,7,10.65,13,15.62,15.24,16.43,7.58,20.24,23.61,20.9,33.85,6.17-1.59,13.39-1.45,21.3-1.27,9.22,0.2,19.65.42,30.32-2.13,7.5-1.79,14.24-9.21,21.37-17.06,13.54-14.91,30.42-33.47,61.73-22.87,54.33,18.39,38.71,77,38.55,77.57a5.4,5.4,0,0,1-10.41-2.89h0c0.55-2,13-49.36-31.6-64.44-24.63-8.34-37.09,5.38-50.27,19.9-8.29,9.12-16.11,17.74-26.86,20.31-12,2.87-23.2,2.63-33.05,2.42-10.05-.2-18.73-0.39-23.24,3.22a5.4,5.4,0,0,1-8.73-4.94c0.12-1,2.85-23.83-14.52-31.85-7.21-3.33-13.15-10.55-19.44-18.2C346,176.46,328.89,155.68,286.95,171c-34.63,12.71-43.06,41.39-45,57.36-2.89,23.86,5.1,45.23,14.18,51.35A5.4,5.4,0,0,1,253.1,289.64Z" transform="translate(-70.16 -91.08)"/>
  <path class="cls-1" d="M471.7,279.5a5.48,5.48,0,0,1-.73,0,5.41,5.41,0,0,1-4.63-6.08c4.62-34.22,15.21-39.66,18.34-40.52A5.4,5.4,0,0,1,488,243.11c-0.69.45-7.43,5.46-11,31.7A5.4,5.4,0,0,1,471.7,279.5Z" transform="translate(-70.16 -91.08)"/>
  <path class="cls-1" d="M573.28,277.25a5.45,5.45,0,0,1-2.32-.52l-5.68-2.7a5.41,5.41,0,0,1-.87-0.52c-42.35-31-84.17-14.7-85.94-14a5.4,5.4,0,0,1-4.08-10c2-.81,48.76-19.33,96,15L575.6,267A5.4,5.4,0,0,1,573.28,277.25Z" transform="translate(-70.16 -91.08)"/>
  <path class="cls-1" d="M381,304.94a5.32,5.32,0,0,1-2.19-.47L348.4,291a5.41,5.41,0,0,1-.74-9.47c0.18-.12,17.53-11.43,24.43-22.81,8.62-14.2,27.45-20.13,28.25-20.38a5.41,5.41,0,0,1,3.18,10.33c-0.33.1-15.77,5.06-22.2,15.66-4.89,8.07-13.56,15.69-19.93,20.63l20.18,9c7-1.67,21.15-7,23.16-17a5.4,5.4,0,1,1,10.6,2.13c-4.06,20.25-32.17,25.65-33.36,25.87A5.46,5.46,0,0,1,381,304.94Z" transform="translate(-70.16 -91.08)"/>
  <g>
    <path class="cls-2" d="M395.91,319.21l-10-8.76c1.09-1.19,27.26-28.85,70.25-28.85H596.68v12.8H456.21C419.09,294.4,396.14,319,395.91,319.21Z" transform="translate(-70.16 -91.08)"/>
    <path class="cls-2" d="M395.69,319.22c-0.23-.25-23.44-24.82-60.32-24.82h-97V281.6h97c43,0,69.17,27.64,70.26,28.84l-10,8.94,5-4.65Z" transform="translate(-70.16 -91.08)"/>
  </g>
  <path class="cls-1" d="M270.06,229.16a13,13,0,0,1-6.59-1.63,5.4,5.4,0,0,1,5.42-9.35c1.05,0.55,6-.14,9.66-3.33,2.27-1.95,3.09-3.89,2.44-5.77-2-5.85-9.94-4.15-10.83-3.94a5.4,5.4,0,0,1-2.59-10.49c6.32-1.58,19.42-1.33,23.63,10.92,2.16,6.28-.08,12.94-6,17.81C281.2,226.68,275.38,229.16,270.06,229.16Z" transform="translate(-70.16 -91.08)"/>
  <path class="cls-1" d="M352.39,279.66a18.86,18.86,0,1,1,18.85-18.86A18.87,18.87,0,0,1,352.39,279.66Zm0-26.91a8.05,8.05,0,1,0,8,8.05A8.06,8.06,0,0,0,352.39,252.75Z" transform="translate(-70.16 -91.08)"/>
  <path class="cls-1" d="M453.43,488.47c-73.3,0-106.36-34.37-117.12-49-7.74,9.88-28.88,26.43-83.56,26.43-65.88,0-93-48.6-99.2-62.11-52.63,7-83.39-23.07-83.39-80.58,0-50.35,45.53-61.57,58.22-63.71,11-41.57,34.39-47.88,47.54-47.88a44,44,0,0,1,8.38.81c0.83-14.59,7.29-51.76,49.3-82.32l0.37-.24a140.91,140.91,0,0,1,72.19-20A151.39,151.39,0,0,1,375.69,127c25-23.83,56.64-35.9,94-35.9a197.54,197.54,0,0,1,73.25,14.66h1.32c55.26,0,91.32,55,99.2,68.29a99.29,99.29,0,0,1,11.85-.69c19.68,0,54.81,5.6,69,43.1,17.11,45.11-15.47,70.42-26.52,77.46,3.12,10,9.21,38.91-8.38,75.56-19.35,40.34-74.12,53.29-87.4,55.87C591.89,456.37,548,488.47,453.43,488.47Zm-117.28-62a4.52,4.52,0,0,1,4,2.42c0.26,0.49,27.88,50.59,113.28,50.59,92.36,0,133.52-31.9,140.71-59.21a4.52,4.52,0,0,1,3.66-3.31c0.63-.1,63.94-10.6,83.5-51.37s7-71.56,6.88-71.87a4.53,4.53,0,0,1,2.13-5.82c1.76-.89,43-22.34,25.59-68.22-12.29-32.43-43.23-37.27-60.59-37.27a82.35,82.35,0,0,0-13.41,1,4.48,4.48,0,0,1-4.79-2.28c-0.36-.66-36.76-66.33-92.85-66.33-0.69,0-1.39,0-2.09,0a5.07,5.07,0,0,1-2-.41c-0.32-.14-31.87-14.28-70.48-14.28-36.12,0-66.43,12-90.09,35.67a4.53,4.53,0,0,1-5.57.65c-0.28-.18-28.82-17.53-67.87-17.53a131.94,131.94,0,0,0-67.42,18.63c-48,35-45.59,78.64-45.47,80.48a4.52,4.52,0,0,1-6.24,4.49,32.65,32.65,0,0,0-11.1-1.87c-13.2,0-30.78,7.63-39.52,43.95a4.52,4.52,0,0,1-4,3.44c-2.17.19-53.22,5.3-53.22,55.17,0,33.11,10.32,72.59,59.47,72.59a107.34,107.34,0,0,0,16.95-1.44,4.54,4.54,0,0,1,5,2.92c0.89,2.43,22.53,59.59,92.18,59.59,68.61,0,79-27,79.1-27.26a4.51,4.51,0,0,1,3.9-3.15Z" transform="translate(-70.16 -91.08)"/>
  <path class="cls-1" d="M453.43,488.47c-73.3,0-106.36-34.37-117.12-49-7.74,9.88-28.88,26.43-83.56,26.43-65.88,0-93-48.6-99.2-62.11-52.63,7-83.39-23.07-83.39-80.58,0-50.35,45.53-61.57,58.22-63.71,11-41.57,34.39-47.88,47.54-47.88a44,44,0,0,1,8.38.81c0.83-14.59,7.29-51.76,49.3-82.32l0.37-.24a140.91,140.91,0,0,1,72.19-20A151.39,151.39,0,0,1,375.69,127c25-23.83,56.64-35.9,94-35.9a197.54,197.54,0,0,1,73.25,14.66h1.32c55.26,0,91.32,55,99.2,68.29a99.29,99.29,0,0,1,11.85-.69c19.68,0,54.81,5.6,69,43.1,17.11,45.11-15.47,70.42-26.52,77.46,3.12,10,9.21,38.91-8.38,75.56-19.35,40.34-74.12,53.29-87.4,55.87C591.89,456.37,548,488.47,453.43,488.47Zm-117.28-62a4.52,4.52,0,0,1,4,2.42c0.26,0.49,27.88,50.59,113.28,50.59,92.36,0,133.52-31.9,140.71-59.21a4.52,4.52,0,0,1,3.66-3.31c0.63-.1,63.94-10.6,83.5-51.37s7-71.56,6.88-71.87a4.53,4.53,0,0,1,2.13-5.82c1.76-.89,43-22.34,25.59-68.22-12.29-32.43-43.23-37.27-60.59-37.27a82.35,82.35,0,0,0-13.41,1,4.48,4.48,0,0,1-4.79-2.28c-0.36-.66-36.76-66.33-92.85-66.33-0.69,0-1.39,0-2.09,0a5.07,5.07,0,0,1-2-.41c-0.32-.14-31.87-14.28-70.48-14.28-36.12,0-66.43,12-90.09,35.67a4.53,4.53,0,0,1-5.57.65c-0.28-.18-28.82-17.53-67.87-17.53a131.94,131.94,0,0,0-67.42,18.63c-48,35-45.59,78.64-45.47,80.48a4.52,4.52,0,0,1-6.24,4.49,32.65,32.65,0,0,0-11.1-1.87c-13.2,0-30.78,7.63-39.52,43.95a4.52,4.52,0,0,1-4,3.44c-2.17.19-53.22,5.3-53.22,55.17,0,33.11,10.32,72.59,59.47,72.59a107.34,107.34,0,0,0,16.95-1.44,4.54,4.54,0,0,1,5,2.92c0.89,2.43,22.53,59.59,92.18,59.59,68.61,0,79-27,79.1-27.26a4.51,4.51,0,0,1,3.9-3.15Z" transform="translate(-70.16 -91.08)"/>
  <path class="cls-2" d="M455.27,105.33H455l-1.05.11h-0.81l-1.51.18a2.26,2.26,0,0,0,.29,4.49l0.28,0q1.62-.2,3.25-0.37a2.26,2.26,0,0,0-.22-4.5h0ZM441,107.53a2.14,2.14,0,0,0-.47.05h0l-0.07,0h0l-0.09,0h0c-1,.22-2.07.46-3.09,0.71a2.26,2.26,0,0,0,.53,4.45,2.3,2.3,0,0,0,.53-0.07c1.06-.25,2.11-0.5,3.18-0.72a2.26,2.26,0,0,0-.47-4.47h0Zm-13.86,3.85a2.23,2.23,0,0,0-.72.12c-1.08.37-2.15,0.76-3.21,1.16A2.26,2.26,0,0,0,424,117a2.33,2.33,0,0,0,.8-0.15q1.52-.57,3.06-1.11a2.26,2.26,0,0,0-.73-4.39h0Zm-13.25,5.55a2.28,2.28,0,0,0-1,.23h0l-0.28.14,0,0-0.06,0,0,0,0,0,0,0,0,0-0.05,0h0c-0.8.41-1.62,0.83-2.41,1.26A2.26,2.26,0,0,0,411,123a2.23,2.23,0,0,0,1.07-.27q1.43-.77,2.89-1.49a2.26,2.26,0,0,0-1-4.28h0Zm-12.41,7.23a2.26,2.26,0,0,0-1.25.38l-1.36.93h0l-0.07.05h0l-0.07,0h0l-0.18.13,0,0,0,0-0.05,0,0,0-0.06,0h0l-0.08.06h0l-0.77.55a2.26,2.26,0,1,0,2.63,3.67c0.88-.64,1.77-1.25,2.67-1.86a2.26,2.26,0,0,0-1.27-4.13h0Zm-11.38,8.78a2.25,2.25,0,0,0-1.48.56l0,0,0,0,0,0h0l-0.4.36h0l-0.48.43h0l-0.06.05,0,0-0.05,0,0,0-0.05,0,0,0-0.05,0,0,0,0,0,0,0-0.06.06,0,0,0,0,0,0,0,0,0,0,0,0,0,0,0,0-0.05,0,0,0-0.05,0,0,0-0.23.21,0,0-0.06.05,0,0,0,0,0,0,0,0,0,0,0,0,0,0,0,0,0,0a2.26,2.26,0,0,0,3.07,3.31c0.8-.74,1.61-1.47,2.42-2.18a2.26,2.26,0,0,0-1.49-4h0Zm-16,9.22a2.26,2.26,0,0,0-1.2,4.18l2.46,1.53a4.52,4.52,0,0,0,5.58-.64l0.34-.35a2.26,2.26,0,0,0-3.19-3.19h0l0,0h0l0,0h0l-0.05.05h0l-0.07.07h0l-0.06.06h0l-0.05.05h0l0,0h0l0,0h0l-2.45-1.52a2.26,2.26,0,0,0-1.18-.33h0Zm-12.63-6.82a2.26,2.26,0,0,0-.93,4.32c1.08,0.48,2.06.94,3,1.37a2.19,2.19,0,0,0,1,.23,2.26,2.26,0,0,0,1-4.29c-0.93-.45-2-0.93-3.07-1.43a2.18,2.18,0,0,0-.92-0.2h0ZM348,130.18a2.26,2.26,0,0,0-.7,4.41q1.6,0.52,3.1,1.05a2.31,2.31,0,0,0,.75.13,2.26,2.26,0,0,0,.76-4.39l-0.71-.25h0l0,0h0l-0.9-.31h0l0,0h0l0,0h-0.18l-1.21-.4a2.23,2.23,0,0,0-.69-0.11h0Zm-13.94-3.75a2.26,2.26,0,0,0-.47,4.46c1.08,0.23,2.15.48,3.19,0.73a2.28,2.28,0,0,0,.53.06,2.26,2.26,0,0,0,.53-4.45l-1.94-.45h-0.17l-0.62-.14H335l-0.49-.11a2.16,2.16,0,0,0-.47,0h0Zm-14.24-2.28a2.26,2.26,0,0,0-.23,4.5q1.64,0.18,3.25.39l0.3,0a2.26,2.26,0,0,0,.29-4.49l-2-.25h-0.71l-0.68-.07h-0.23Zm-13.65-.73h-0.76a2.26,2.26,0,0,0,0,4.51h0.74l2.54,0h0a2.26,2.26,0,0,0,0-4.51h-0.18l-2,0h-0.42Zm-11.81.56h-0.7l-2.29.25h-0.6a2.26,2.26,0,0,0,.27,4.5l0.28,0q1.62-.2,3.24-0.35a2.26,2.26,0,0,0-.21-4.51h0Zm-14.23,2.2a2.08,2.08,0,0,0-.46.05l-1.19.26h0l-0.1,0H278.3l-0.08,0h0l-0.09,0h0l-1.75.41a2.26,2.26,0,0,0,.53,4.45,2.1,2.1,0,0,0,.54-0.07q1.59-.39,3.18-0.73a2.26,2.26,0,0,0-.47-4.47h0ZM266.26,130a2.28,2.28,0,0,0-.73.12l-1.29.45h0l-0.1,0h0l-0.09,0h0l-0.09,0h0l-0.19.07h0l-1.39.51a2.26,2.26,0,0,0,.78,4.37,2.3,2.3,0,0,0,.78-0.14c1-.38,2-0.74,3.08-1.09a2.26,2.26,0,0,0-.73-4.4h0Zm-13.35,5.42a2.26,2.26,0,0,0-1,.21l0,0h0l0,0-0.07,0h0l-2.36,1.14h0l-0.07,0,0,0-0.05,0,0,0h0l-0.26.13a2.26,2.26,0,0,0,2,4c1-.49,2-1,2.94-1.43a2.26,2.26,0,0,0-1-4.3h0Zm-12.36,6.93a2.22,2.22,0,0,0-1.36.46l-0.32.24h0l-0.12.09h0l-0.05,0h0l0,0,0,0,0,0,0,0,0,0,0,0,0,0-0.06,0h0l-0.12.09h0l-0.5.39h0l-0.12.1h0l-0.07.05h0l0,0,0,0,0,0,0,0,0,0-0.05,0h0l-0.06.05h0l-0.77.62a2.26,2.26,0,0,0,2.84,3.51c0.84-.67,1.7-1.35,2.58-2a2.26,2.26,0,0,0-1.37-4.05h0Zm-10.95,9.36a2.24,2.24,0,0,0-1.56.62l-1.12,1.09h0l0,0,0,0v0c-0.41.4-.81,0.81-1.21,1.22a2.26,2.26,0,0,0,3.22,3.16q1.12-1.15,2.31-2.29a2.26,2.26,0,0,0-1.56-3.88h0Zm-9.68,10.61a2.25,2.25,0,0,0-1.76.84c-0.56.7-1.1,1.4-1.63,2.1h0l-0.08.1h0l0,0,0,0,0,0,0,0h0l0,0h0l-0.25.33a2.26,2.26,0,1,0,3.62,2.7q1-1.28,2-2.57a2.26,2.26,0,0,0-1.76-3.66h0Zm-8.12,11.81a2.25,2.25,0,0,0-1.95,1.11l-0.35.61v0l0,0,0,0h0l0,0h0l0,0h0l0,0h0l0,0h0q-0.59,1-1.15,2.07a2.26,2.26,0,1,0,4,2.14q0.75-1.4,1.58-2.82a2.26,2.26,0,0,0-.81-3.09,2.23,2.23,0,0,0-1.14-.31h0ZM205.55,187a2.26,2.26,0,0,0-2.1,1.43c-0.42,1.08-.81,2.14-1.18,3.18a2.26,2.26,0,1,0,4.26,1.49c0.35-1,.72-2,1.12-3a2.26,2.26,0,0,0-2.1-3.08h0Zm-4.09,13.68a2.26,2.26,0,0,0-2.21,1.8c-0.21,1-.39,2-0.55,2.93a0,0,0,0,0,0,0,0,0,0,0,1,0,0l-0.06.38a2.26,2.26,0,0,0,1.86,2.58l0.37,0a2.26,2.26,0,0,0,2.23-1.89c0.16-1,.35-2,0.58-3.14a2.26,2.26,0,0,0-1.75-2.67,2.3,2.3,0,0,0-.46,0h0Zm-1.48,14h-0.07a2.22,2.22,0,0,0-2.16,2.26c0,0.24,0,.43,0,0.55s0,0.09,0,.12v0h0a0.09,0.09,0,0,1,0,0l0.18,2.72a2.26,2.26,0,0,0,2.25,2.1h0.15a2.26,2.26,0,0,0,2.1-2.4l-0.19-2.76,0-.45a2.29,2.29,0,0,0-2.28-2.19h0Zm1,14.55h-0.15a2.25,2.25,0,0,0-2.1,2.39l0,0.28h-0.09l-2.81-1.11a2.28,2.28,0,0,0-.82-0.16,2.26,2.26,0,0,0-.83,4.35l2.89,1.15a4.52,4.52,0,0,0,4.32-.55,4.51,4.51,0,0,0,1.84-4l0-.28A2.26,2.26,0,0,0,201,229.3h0Zm-15.62-2.61-0.08.21,0.08-.21h0Zm0,0-1.61,4.21,1.61-4.21h0Zm-0.08.21v0h0Zm0,0,0,0.05,0-.05h0Zm0,0.05h0Zm0,0,0,0a0.14,0.14,0,0,0,0,0h0Zm-3.61-1.24a2.26,2.26,0,0,0-.46,4.47,19.48,19.48,0,0,1,2.57.7l-0.33.87,0.33-.87h0l0.27-.71,1.21-3.17L184,230.18l1.33-3.5a23.3,23.3,0,0,0-3.24-.9,2.13,2.13,0,0,0-.47-0.05h0Zm-10.34-.18a2.14,2.14,0,0,0-.41,0l-0.9.18h-0.1q-1.16.26-2.27,0.62a2.26,2.26,0,0,0,.69,4.4,2.23,2.23,0,0,0,.69-0.11,21.37,21.37,0,0,1,2.71-.68,2.26,2.26,0,0,0-.4-4.48h0Zm-11.9,5.91a2.24,2.24,0,0,0-1.48.55c-0.35.31-.7,0.62-1,0.95h0l0,0h0l0,0h0l0,0,0,0,0,0,0,0,0,0,0,0h0l0,0h0l0,0h0l0,0h0l0,0h0c-0.35.35-.7,0.7-1,1.06a2.26,2.26,0,0,0,1.65,3.8,2.24,2.24,0,0,0,1.65-.72c0.69-.73,1.39-1.42,2.11-2a2.26,2.26,0,0,0-1.49-4h0Zm-8.47,10.93a2.25,2.25,0,0,0-2,1.16q-0.82,1.48-1.57,3a2.25,2.25,0,0,0,1,3,2.23,2.23,0,0,0,1,.23,2.26,2.26,0,0,0,2-1.27q0.69-1.43,1.45-2.79a2.26,2.26,0,0,0-2-3.35h0Zm-5.57,13.09a2.26,2.26,0,0,0-2.14,1.56c-0.35,1.08-.69,2.16-1,3.24a2.26,2.26,0,0,0,1.54,2.8,2.35,2.35,0,0,0,.63.09,2.26,2.26,0,0,0,2.17-1.63q0.45-1.55,1-3.1a2.26,2.26,0,0,0-1.44-2.85,2.3,2.3,0,0,0-.7-0.11h0Zm-3.72,14a2.26,2.26,0,0,0-2.19,1.73l-0.18.74h-0.05l-2.58.22a2.26,2.26,0,0,0,.2,4.51H137l2.62-.23a4.52,4.52,0,0,0,4-3.44l0.17-.74a2.27,2.27,0,0,0-2.2-2.79h0ZM126,273.69a2.34,2.34,0,0,0-.51.06l-0.21.05c-0.62.14-1.27,0.3-1.94,0.48h-0.13l-1,.27a2.26,2.26,0,0,0,.62,4.43,2.43,2.43,0,0,0,.61-0.08c1.09-.31,2.11-0.57,3.07-0.79a2.26,2.26,0,0,0-.51-4.46h0Zm-13.39,4.61a2.22,2.22,0,0,0-.95.21l-1,.5h-0.07l0,0h0l0,0h0l0,0h0l-0.09,0h0l-1.37.71h0l-0.13.07h0l0,0h0l0,0h-0.1a2.26,2.26,0,0,0,2.16,4c0.93-.51,1.87-1,2.79-1.42a2.26,2.26,0,0,0-1-4.3h0Zm-11.78,7.59a2.24,2.24,0,0,0-1.48.55q-1.27,1.1-2.48,2.31a2.26,2.26,0,0,0,3.2,3.19c0.73-.73,1.48-1.42,2.23-2.09a2.25,2.25,0,0,0-1.48-4h0ZM92,296.55a2.24,2.24,0,0,0-2,1.12c-0.24.42-.48,0.84-0.71,1.27h0l0,0h0l0,0v0.13l0,0v0l0,0h0l0,0h0c-0.24.46-.47,0.92-0.69,1.38a2.26,2.26,0,1,0,4.07,2c0.44-.93.92-1.82,1.42-2.68a2.26,2.26,0,0,0-2-3.39h0Zm-4.9,13a2.25,2.25,0,0,0-2.2,1.79c-0.09.43-.18,0.86-0.25,1.3h0v0.05h0a0.29,0.29,0,0,0,0,.05h0a0.25,0.25,0,0,1,0,0h0a0.15,0.15,0,0,0,0,0,0,0,0,0,0,0,0v0h0a0.22,0.22,0,0,1,0,0h0v0.07a0.25,0.25,0,0,1,0,0,0.1,0.1,0,0,0,0,0v0a0.14,0.14,0,0,1,0,0v0.05a0.07,0.07,0,0,0,0,0,0.13,0.13,0,0,1,0,0v0a0.18,0.18,0,0,0,0,0,0,0,0,0,1,0,0s0,0,0,0h0c0,0.09,0,.17,0,0.25h0a0.24,0.24,0,0,1,0,0h0a0.17,0.17,0,0,1,0,0h0a0.36,0.36,0,0,0,0,0h0a0.22,0.22,0,0,0,0,0h0l-0.06.37h0s0,0,0,0h0v0.05h0l0,0.32h0a2.26,2.26,0,0,0,1.92,2.55l0.32,0a2.26,2.26,0,0,0,2.23-1.94q0.22-1.57.53-3a2.26,2.26,0,0,0-1.75-2.67,2.48,2.48,0,0,0-.46,0h0ZM86,323.64h0a2.26,2.26,0,0,0-2.22,2.3c0,0.25,0,.49,0,0.74h0v0.11s0,0.05,0,.08V327s0,0,0,0v0.11a0.28,0.28,0,0,1,0,.06v0a0.48,0.48,0,0,0,0,.06v0a0.49,0.49,0,0,0,0,.07v0.13a0.5,0.5,0,0,1,0,.08v0a0.79,0.79,0,0,1,0,.09h0s0,0.06,0,.09h0c0,0.49,0,1,.05,1.48a2.26,2.26,0,0,0,2.26,2.16h0.1a2.26,2.26,0,0,0,2.16-2.35c0-1.1-.08-2.19-0.1-3.28A2.26,2.26,0,0,0,86,323.64h0ZM87.06,338l-0.31,0a2.26,2.26,0,0,0-1.93,2.54v0.06h0l0,0.18h0a0.15,0.15,0,0,0,0,0h0s0,0,0,0v0s0,0,0,0h0a0.09,0.09,0,0,0,0,0v0a0.13,0.13,0,0,0,0,0h0l0,0.12h0s0,0,0,0h0a0.11,0.11,0,0,0,0,0h0v0h0a0.12,0.12,0,0,1,0,0h0a0.1,0.1,0,0,1,0,0h0s0,0,0,0a0,0,0,0,0,0,0,0.43,0.43,0,0,0,0,.07h0a0.08,0.08,0,0,0,0,0,0.05,0.05,0,0,0,0,0,0.06,0.06,0,0,0,0,0,0.07,0.07,0,0,0,0,0v0a0.08,0.08,0,0,1,0,0,0,0,0,0,1,0,0,0.09,0.09,0,0,1,0,0,0,0,0,0,1,0,0v0a0.07,0.07,0,0,1,0,0s0,0,0,0v0a0.13,0.13,0,0,0,0,0h0a0.34,0.34,0,0,0,0,.05h0a0.17,0.17,0,0,0,0,0h0v0h0s0,0,0,0h0v0h0v0h0c0.09,0.56.18,1.11,0.27,1.67a2.26,2.26,0,0,0,2.22,1.88,2.16,2.16,0,0,0,.39,0,2.26,2.26,0,0,0,1.84-2.6q-0.27-1.6-.49-3.2A2.26,2.26,0,0,0,87.06,338h0Zm3,14a2.24,2.24,0,0,0-.67.1,2.26,2.26,0,0,0-1.49,2.81q0.51,1.63,1.09,3.24a2.25,2.25,0,0,0,2.11,1.47,2.21,2.21,0,0,0,.77-0.14,2.26,2.26,0,0,0,1.35-2.89c-0.36-1-.7-2-1-3A2.26,2.26,0,0,0,90.09,352h0Zm5.65,12.92a2.26,2.26,0,0,0-1.94,3.41c0.32,0.54.66,1.07,1,1.6h0l0,0h0l0,0h0l0.07,0.1h0l0,0v0l0,0v0.06l0,0h0l0.05,0.09h0l0,0h0l0,0h0l0,0h0l0.44,0.65a2.26,2.26,0,1,0,3.71-2.56q-0.88-1.27-1.67-2.6a2.25,2.25,0,0,0-1.94-1.1h0Zm8.85,10.73a2.26,2.26,0,0,0-1.5,4c0.45,0.39.9,0.77,1.37,1.14h0l0,0h0l0,0h0l0,0,0,0h0l0,0h0l0,0h0l0,0h0l0,0h0l0,0h0l0.93,0.71a2.26,2.26,0,1,0,2.69-3.62c-0.81-.6-1.6-1.24-2.36-1.9a2.25,2.25,0,0,0-1.49-.56h0Zm11.83,7.22a2.26,2.26,0,0,0-.87,4.35c1,0.42,2.1.81,3.21,1.17a2.22,2.22,0,0,0,.69.11,2.26,2.26,0,0,0,.7-4.41c-1-.32-2-0.68-2.89-1.06a2.26,2.26,0,0,0-.84-0.17h0Zm13.6,3.41a2.26,2.26,0,0,0-.27,4.5q1.65,0.2,3.37.32h0.16a2.26,2.26,0,0,0,.16-4.51c-1.07-.08-2.12-0.18-3.15-0.3l-0.27,0h0Zm17.54,0.05h-0.22q-1.64.16-3.23,0.26a2.26,2.26,0,0,0,.14,4.51h0.62q1.38-.09,2.79-0.23h0.12a2.26,2.26,0,0,0-.22-4.5h0Zm14.7-2.09a4.09,4.09,0,0,0-.7.06l-3.31.52a2.26,2.26,0,0,0,.35,4.49l0.35,0,3.31-.52a2.26,2.26,0,1,0,4.24-1.56,4.51,4.51,0,0,0-4.23-3h0Zm6.12,11.86a2.26,2.26,0,0,0-2,3.2l0.2,0.42h0v0h0q0.51,1.07,1.18,2.38h0v0h0v0h0l0.08,0.15a2.27,2.27,0,0,0,2,1.21,2.22,2.22,0,0,0,1-.26,2.26,2.26,0,0,0,1-3c-0.56-1.07-1-2-1.41-2.86a2.25,2.25,0,0,0-2-1.3h0Zm7.13,12.38a2.26,2.26,0,0,0-1.86,3.53q0.93,1.35,2,2.77a2.26,2.26,0,0,0,3.63-2.69c-0.66-.9-1.28-1.77-1.87-2.63a2.26,2.26,0,0,0-1.86-1h0Zm9,11.16a2.25,2.25,0,0,0-1.65,3.8l0.59,0.63h0l0,0h0l0,0h0l0,0h0l0,0h0l0,0h0c0.45,0.48.92,0.95,1.39,1.42h0l0,0,0,0,0,0,0,0h0l0.07,0.08a2.26,2.26,0,0,0,3.18-3.21q-1.16-1.15-2.25-2.31a2.25,2.25,0,0,0-1.64-.71h0ZM195,429.22a2.26,2.26,0,0,0-1.39,4l1.37,1h0l0,0h0l0,0h0l0,0h0l0,0h0l0,0,0,0,0,0,0,0h0l0.11,0.08h0l0,0h0l0,0h0l0.17,0.12h0l0,0h0L196,435h0l0,0h0l0,0h0l0,0,0,0h0l0,0h0l0,0h0l0.11,0.08a2.26,2.26,0,0,0,2.62-3.68q-1.33-.95-2.58-1.92a2.24,2.24,0,0,0-1.38-.47h0ZM207,437a2.26,2.26,0,0,0-1.07,4.25c0.62,0.33,1.24.66,1.87,1h0l0,0h0L208,442.3h0l0,0h0l0,0,0,0h0l0,0h0l0,0h0l0.05,0h0l0,0h0l0.05,0h0l0.06,0h0l0,0h0l0.12,0.06h0l0.06,0h0l0.13,0.06h0l0,0a2.29,2.29,0,0,0,1,.22,2.26,2.26,0,0,0,1-4.29q-1.46-.71-2.86-1.46A2.26,2.26,0,0,0,207,437h0Zm13.1,5.69a2.26,2.26,0,0,0-.73,4.39l1.39,0.46h0.12l0,0h0l1.66,0.51a2.17,2.17,0,0,0,.63.09,2.26,2.26,0,0,0,.65-4.42q-1.56-.47-3.07-1a2.29,2.29,0,0,0-.73-0.12h0ZM234,446.22a2.26,2.26,0,0,0-.39,4.48l0.61,0.1h0.23l0.08,0h0.09l2,0.32h0l0.17,0H237l0.32,0a2.26,2.26,0,0,0,.32-4.49q-1.62-.23-3.19-0.51a2.28,2.28,0,0,0-.39,0h0Zm14.27,1.51a2.26,2.26,0,0,0-.09,4.51h0.28c1,0,2.07.06,3.11,0.07h0a2.26,2.26,0,0,0,0-4.52c-1.1,0-2.18,0-3.25-.08h-0.09Zm17.84-.29H266c-1.08.06-2.19,0.12-3.31,0.17a2.26,2.26,0,0,0,.09,4.51h0.08l1.74-.08h0.21l1.45-.08a2.26,2.26,0,0,0-.13-4.51h0Zm14.41-1.4-0.32,0q-1.59.23-3.26,0.42a2.26,2.26,0,0,0,.26,4.5l0.26,0,0.34,0h0.11l2.91-.39a2.26,2.26,0,0,0-.31-4.49h0Zm14.13-2.77a2.25,2.25,0,0,0-.57.07q-1.53.4-3.16,0.77a2.26,2.26,0,0,0,1,4.41l1.46-.34h0.13l1.25-.31h0.19l0.28-.07a2.26,2.26,0,0,0-.57-4.44h0Zm13.49-4.64a2.24,2.24,0,0,0-.92.2q-1.39.63-2.93,1.23a2.26,2.26,0,0,0,.83,4.36,2.22,2.22,0,0,0,.83-0.16l0.44-.18h0l0,0h0l0.11,0h0l0,0h0.09l0,0h0.16l0,0h0.15l0,0h0.15l0,0h0l0,0h0.31l0.07,0h0l0,0h0l1.23-.54a2.26,2.26,0,0,0-.94-4.31h0Zm11.92-7.3a2.25,2.25,0,0,0-1.47.54c-0.74.63-1.53,1.25-2.37,1.86a2.26,2.26,0,0,0,2.64,3.67c1-.72,1.88-1.42,2.68-2.1a2.26,2.26,0,0,0-1.48-4h0Zm6.56-11.08a2.26,2.26,0,0,0-2.19,1.72l-0.8,3.29a2.26,2.26,0,0,0,1.65,2.73,2.29,2.29,0,0,0,.54.06,2.26,2.26,0,0,0,2.19-1.71l0.81-3.3a2.26,2.26,0,0,0-1.66-2.72,2.48,2.48,0,0,0-.54-0.06h0ZM330.12,406a2.26,2.26,0,0,0-2.19,1.72L327.12,411a2.26,2.26,0,0,0,4.38,1.09l0.81-3.31a2.26,2.26,0,0,0-1.66-2.72,2.41,2.41,0,0,0-.54-0.06h0Zm8.87,4.17a2.26,2.26,0,0,0-2,3.32l1.62,3a2.26,2.26,0,0,0,4-2.15l-1.6-3a2.26,2.26,0,0,0-2-1.19h0Zm7,12.92a2.26,2.26,0,0,0-2,3.33l0.16,0.3h0c0.13,0.24.64,1.17,1.6,2.59a2.26,2.26,0,0,0,3.75-2.52c-0.89-1.33-1.32-2.13-1.37-2.22l-0.16-.31a2.26,2.26,0,0,0-2-1.18h0Zm8.46,11.25a2.25,2.25,0,0,0-1.65,3.79c0.33,0.37.68,0.73,1,1.11h0l0,0h0l0,0h0l0.07,0.07,0,0,0,0,0,0h0l0,0h0l0.87,0.89h0l0,0,0,0h0l0,0h0l0.1,0.1a2.26,2.26,0,0,0,3.18-3.2q-1.18-1.19-2.23-2.31a2.23,2.23,0,0,0-1.65-.72h0ZM364.93,444a2.26,2.26,0,0,0-1.4,4l1.73,1.33,0,0h0l0,0h0l0.91,0.68a2.24,2.24,0,0,0,1.32.43,2.26,2.26,0,0,0,1.34-4.08c-0.89-.65-1.75-1.31-2.58-2a2.23,2.23,0,0,0-1.39-.49h0Zm11.87,8.07a2.26,2.26,0,0,0-1.14,4.21l0,0h0l0,0,2,1.13h0l0,0,0.86,0.48a2.26,2.26,0,0,0,2.15-4c-1-.53-1.91-1.06-2.83-1.6a2.23,2.23,0,0,0-1.14-.31h0Zm12.84,6.48a2.26,2.26,0,0,0-.9,4.33l1.82,0.77h0l0.07,0h0l0.07,0h0l0,0h0l0.05,0h0.05l1,0.39a2.26,2.26,0,1,0,1.67-4.2q-1.54-.61-3-1.25a2.23,2.23,0,0,0-.89-0.18h0Zm13.53,4.95a2.26,2.26,0,0,0-.66,4.42c1.07,0.32,2.15.64,3.25,0.95a2.37,2.37,0,0,0,.61.08,2.26,2.26,0,0,0,.6-4.43c-1.07-.29-2.11-0.6-3.15-0.92a2.31,2.31,0,0,0-.66-0.1h0Zm14,3.52a2.26,2.26,0,0,0-.44,4.47q1.64,0.33,3.32.63a2.11,2.11,0,0,0,.4,0,2.26,2.26,0,0,0,.4-4.48q-1.64-.29-3.24-0.61a2.14,2.14,0,0,0-.44,0h0Zm14.29,2.22a2.26,2.26,0,0,0-.26,4.5l3.38,0.34h0.21a2.26,2.26,0,0,0,.21-4.5l-3.29-.34-0.25,0h0Zm14.46,1.06a2.26,2.26,0,0,0-.08,4.51l0.51,0h0.09l2.79,0.07h0a2.26,2.26,0,0,0,0-4.51l-3.31-.09h-0.08Zm17.93,0H463.8l-3.34.07a2.26,2.26,0,0,0,0,4.52h0.2l3.24-.07a2.26,2.26,0,0,0-.07-4.52h0Zm14.55-.7h-0.16l-3.33.22a2.26,2.26,0,0,0,.13,4.51h0.14l2-.12h0.3l1.08-.07a2.26,2.26,0,0,0-.17-4.51h0Zm14.5-1.36-0.27,0-3.31.38a2.26,2.26,0,0,0,.24,4.5h0.23l3.21-.36h0.17a2.26,2.26,0,0,0-.27-4.5h0Zm14.38-2.12a2.28,2.28,0,0,0-.4,0l-3.27.56a2.26,2.26,0,0,0,.36,4.48,2.15,2.15,0,0,0,.36,0l2.22-.37h0l0.2,0h0l0.09,0,0.81-.14a2.26,2.26,0,0,0-.39-4.48h0Zm14.2-3a2.14,2.14,0,0,0-.55.07l-3.22.77a2.26,2.26,0,1,0,1,4.4l2.17-.51h0l0.08,0h0l0.06,0h0.23l0.06,0h0l0.09,0h0l0.09,0h0l0.08,0h0l0.08,0h0l0.08,0h0l0.1,0a2.26,2.26,0,0,0-.54-4.45h0Zm13.9-4a2.26,2.26,0,0,0-.72.12q-1.54.52-3.13,1a2.26,2.26,0,0,0,1.35,4.31l2.54-.82h0.05l0.63-.21a2.26,2.26,0,0,0-.72-4.4h0Zm13.43-5.27a2.26,2.26,0,0,0-.94.2c-1,.45-2,0.88-3,1.32a2.26,2.26,0,0,0,.88,4.34,2.22,2.22,0,0,0,.87-0.18c1.06-.45,2.1-0.91,3.12-1.37a2.26,2.26,0,0,0-1-4.3h0ZM561.5,447a2.23,2.23,0,0,0-1.19.34q-1.35.84-2.77,1.67a2.26,2.26,0,0,0,2.25,3.91l1.63-1h0l0,0h0l0,0h0l0,0h0l0,0h0l0,0,0,0h0l0,0h0l0.07,0h0l0,0h0l0,0,0,0h0l0.1-.07h0l0,0h0l0.56-.35A2.26,2.26,0,0,0,561.5,447h0Zm11.42-8.53a2.24,2.24,0,0,0-1.51.59c-0.77.7-1.58,1.39-2.41,2.08a2.26,2.26,0,0,0,2.87,3.49c0.6-.5,1.19-1,1.76-1.5h0l0,0h0l0,0h0l0,0h0l0,0h0l0,0h0l0,0h0l0,0h0l0,0,0,0,0,0h0l0,0,0,0,0,0,0.05,0h0l0,0h0l0,0h0l0,0h0l0,0h0l0,0h0l0,0h0l0,0h0l0,0h0a2.26,2.26,0,0,0-1.51-3.94h0Zm9.29-10.57a2.25,2.25,0,0,0-1.88,1q-0.84,1.26-1.8,2.51a2.26,2.26,0,0,0,3.58,2.76l0.67-.89h0l0,0h0l0,0h0l0,0h0l0,0h0L583,433h0v0l0,0,0,0v0l0,0v0l0,0v0l0,0,0,0v0l0,0v0l0,0,0,0,0,0h0l0,0,0,0,0,0v0l0,0v0l0,0v0l0,0v0l0,0h0l0.07-.11h0l0,0h0l0,0h0l0,0h0l0,0h0l0.49-.72a2.26,2.26,0,0,0-1.88-3.5h0Zm5.65-12.64a2.25,2.25,0,0,0-2.18,1.68l-0.27,1c-0.17.65-.37,1.3-0.59,2a2.27,2.27,0,0,0,1.43,2.86,2.33,2.33,0,0,0,.71.12,2.26,2.26,0,0,0,2.14-1.54l0-.09h0v0h0v-0.08h0v0h0c0.2-.62.38-1.24,0.55-1.85h0a0.15,0.15,0,0,1,0,0h0v0h0v0a0.09,0.09,0,0,1,0,0h0v0h0l0.26-1a2.26,2.26,0,0,0-1.62-2.75,2.22,2.22,0,0,0-.57-0.07h0Zm12.62-8a2.22,2.22,0,0,0-.47,0c-1.5.32-2.58,0.52-3.17,0.63a2.26,2.26,0,0,0,.39,4.48,2.29,2.29,0,0,0,.4,0h0l1.16-.22H599l1.41-.28,0.59-.12a2.26,2.26,0,0,0-.47-4.46h0Zm14-3.65a2.33,2.33,0,0,0-.66.1q-1.63.5-3.17,0.94a2.26,2.26,0,0,0,.62,4.43,2.23,2.23,0,0,0,.61-0.09l2.1-.62h0.07l1.08-.33a2.26,2.26,0,0,0-.66-4.42h0Zm13.63-4.83a2.26,2.26,0,0,0-.85.16q-1.55.63-3.06,1.2a2.26,2.26,0,1,0,1.6,4.22c1-.4,2.1-0.81,3.16-1.24a2.26,2.26,0,0,0-.85-4.35h0Zm13.08-6.09a2.25,2.25,0,0,0-1.06.26q-1.45.77-2.9,1.5a2.26,2.26,0,0,0,1,4.27,2.3,2.3,0,0,0,1-.24q1.19-.6,2.39-1.23h0l0,0h0l0,0h0l0.49-.26a2.26,2.26,0,0,0-1.07-4.25h0Zm12.21-7.55a2.22,2.22,0,0,0-1.32.42c-0.88.63-1.76,1.25-2.66,1.84a2.26,2.26,0,0,0,1.26,4.13,2.21,2.21,0,0,0,1.25-.38c0.49-.32,1-0.66,1.48-1h0l0,0,0,0,0,0,0,0h0l0,0h0l1.14-.81a2.26,2.26,0,0,0-1.32-4.08h0Zm10.82-9.27a2.26,2.26,0,0,0-1.62.69q-1.1,1.14-2.27,2.23a2.26,2.26,0,0,0,3.09,3.29l0.54-.52h0l0,0h0l0,0,0,0,0,0,0,0h0c0.58-.56,1.15-1.13,1.72-1.71a2.26,2.26,0,0,0-1.62-3.83h0Zm8.65-11.17a2.25,2.25,0,0,0-1.94,1.1q-0.81,1.35-1.68,2.64A2.26,2.26,0,0,0,673,371h0l0,0,0,0h0l0,0h0l0.07-.1h0l0-.05h0c0.57-.85,1.11-1.71,1.64-2.59A2.26,2.26,0,0,0,674,365a2.23,2.23,0,0,0-1.16-.32h0Zm6-12.93a2.27,2.27,0,0,0-2.11,1.45c-0.38,1-.79,2-1.21,3a2.26,2.26,0,0,0,1.21,3,2.22,2.22,0,0,0,.88.17,2.25,2.25,0,0,0,2.07-1.37l0.32-.77h0l0,0v-0.08h0q0.46-1.13.89-2.24a2.26,2.26,0,0,0-1.29-2.92,2.23,2.23,0,0,0-.81-0.15h0Zm4.24-13.71a2.26,2.26,0,0,0-2.2,1.74q-0.36,1.55-.79,3.14a2.26,2.26,0,0,0,1.59,2.77,2.34,2.34,0,0,0,.59.08,2.26,2.26,0,0,0,2.17-1.66c0.3-1.12.58-2.22,0.83-3.3a2.25,2.25,0,0,0-1.68-2.7,2.13,2.13,0,0,0-.52-0.06h0Zm2.21-14.14a2.26,2.26,0,0,0-2.25,2.08c-0.08,1-.18,2.12-0.31,3.2a2.26,2.26,0,0,0,2,2.5h0.26a2.26,2.26,0,0,0,2.24-2c0-.46.1-0.92,0.15-1.38v0s0,0,0,0v0h0c0.06-.65.12-1.29,0.17-1.92a2.25,2.25,0,0,0-2.08-2.42h-0.17Zm-0.08-14.27h-0.21a2.26,2.26,0,0,0-2,2.46c0.09,1,.17,2.08.23,3.19a2.26,2.26,0,0,0,2.25,2.14h0.12a2.26,2.26,0,0,0,2.14-2.36q-0.09-1.73-.24-3.32h0s0,0,0-.07a2.26,2.26,0,0,0-2.25-2h0Zm-2.73-13.87a2.29,2.29,0,0,0-.71.11,2.25,2.25,0,0,0-1.43,2.85c0.25,0.75.55,1.74,0.86,3a2.26,2.26,0,0,0,2.18,1.7,2.19,2.19,0,0,0,.56-0.07,2.26,2.26,0,0,0,1.62-2.75c-0.15-.59-0.29-1.12-0.44-1.61a0,0,0,0,0,0,0h0c-0.18-.62-0.35-1.16-0.5-1.62a2.26,2.26,0,0,0-2.14-1.54h0Zm0.9-14.28a2.28,2.28,0,0,0-1,.25l-3,1.54a2.26,2.26,0,0,0,2,4L684,286l0.54-.27a2.26,2.26,0,0,0-1-4.27h0Zm12-7.49a2.26,2.26,0,0,0-1.43.51c-0.87.71-1.7,1.34-2.48,1.91a2.26,2.26,0,0,0,1.33,4.08,2.24,2.24,0,0,0,1.33-.43c0.84-.61,1.74-1.3,2.68-2.07a2.26,2.26,0,0,0-1.43-4h0Zm9.67-10.19a2.26,2.26,0,0,0-1.83.94q-0.92,1.28-1.89,2.45a2.26,2.26,0,0,0,3.49,2.87l0.36-.44h0l0,0h0l0,0h0l0,0h0l0,0,0,0v0l0,0h0c0.33-.41.65-0.83,1-1.26h0l0.06-.08h0l0,0,0,0v0l0,0h0l0,0h0l0,0h0l0.35-.48a2.26,2.26,0,0,0-.52-3.15,2.23,2.23,0,0,0-1.32-.43h0Zm6.28-12.39a2.26,2.26,0,0,0-2.15,1.58c-0.31,1-.65,1.93-1,2.86a2.25,2.25,0,0,0,1.25,2.94,2.29,2.29,0,0,0,.84.16,2.27,2.27,0,0,0,2.09-1.4c0.42-1,.8-2.11,1.15-3.21a2.25,2.25,0,0,0-1.47-2.82,2.29,2.29,0,0,0-.68-0.11h0Zm1.9-13.73h-0.06a2.25,2.25,0,0,0-2.2,2.31c0,1,0,2.06,0,3.06a2.26,2.26,0,0,0,2.15,2.36h0.11a2.26,2.26,0,0,0,2.25-2.15c0-.14,0-0.28,0-0.41h0v-0.06a0,0,0,0,0,0,0v0h0a0.17,0.17,0,0,1,0,0h0v0h0c0-.9,0-1.82,0-2.75a2.25,2.25,0,0,0-2.25-2.19h0ZM711,223.87a2.26,2.26,0,0,0-2.16,2.92q0.47,1.53.83,3a2.26,2.26,0,0,0,4.39-1.06c-0.27-1.08-.57-2.18-0.91-3.29a2.26,2.26,0,0,0-2.15-1.58h0ZM705.32,211a2.26,2.26,0,0,0-1.93,3.42c0.52,0.87,1,1.77,1.51,2.7a2.26,2.26,0,0,0,4-2.07l-0.44-.83h0l0-.09V214l0-.09h0l0,0h0c-0.34-.62-0.69-1.23-1.05-1.82a2.25,2.25,0,0,0-1.94-1.09h0Zm-8.87-10.74a2.26,2.26,0,0,0-1.5,3.95c0.75,0.67,1.49,1.38,2.21,2.11a2.26,2.26,0,0,0,3.24-3.15l-0.06-.06h0l0,0h0v0l0,0h0l0,0h0l0,0h0q-1.09-1.1-2.22-2.11a2.24,2.24,0,0,0-1.5-.57h0Zm-11.71-7.59a2.26,2.26,0,0,0-.94,4.31q1.4,0.65,2.77,1.38a2.22,2.22,0,0,0,1.07.27,2.26,2.26,0,0,0,1.08-4.24c-0.75-.41-1.52-0.79-2.29-1.16h0l-0.06,0h0l0,0h0l0,0h0l0,0h0l0,0h0l-0.43-.2a2.23,2.23,0,0,0-.94-0.21h0Zm-13.44-4.27a2.26,2.26,0,0,0-.44,4.47c1,0.21,2.06.43,3.09,0.69a2.2,2.2,0,0,0,.54.07,2.26,2.26,0,0,0,.55-4.45l-1.58-.37h0l-0.06,0h-0.28l-1-.22h-0.18l-0.19,0a2,2,0,0,0-.44,0h0Zm-14.18-1.47a2.26,2.26,0,0,0,0,4.52q1.58,0,3.21.12h0.13a2.26,2.26,0,0,0,.12-4.51l-0.63,0h-0.14c-0.88,0-1.76-.07-2.62-0.09h0Zm-11,.47h-0.25c-1.58.17-2.63,0.34-3,.4h0l-0.12,0-0.21,0a2.26,2.26,0,0,0,.41,4.48,2.2,2.2,0,0,0,.42,0l0.17,0c0.13,0,1.14-.2,2.83-0.38a2.26,2.26,0,0,0-.24-4.5h0Zm-15.8-6.72a2.25,2.25,0,0,0-1.94,3.4c0.46,0.78.72,1.25,0.77,1.35l0.79,1.46a2.26,2.26,0,0,0,2,1.18,2.22,2.22,0,0,0,1.07-.28,2.25,2.25,0,0,0,.91-3.06l-0.65-1.2h0v0h0v0h0v0h0l0,0h0l0,0h0l0-.06h0l-0.52-.91h0v0l-0.33-.55a2.25,2.25,0,0,0-1.94-1.11h0Zm-8-12.05a2.26,2.26,0,0,0-1.82,3.59q1,1.4,1.91,2.69a2.26,2.26,0,0,0,3.7-2.59c-0.62-.89-1.28-1.81-2-2.77a2.25,2.25,0,0,0-1.82-.92h0Zm-9-11.35a2.26,2.26,0,0,0-1.71,3.74c0.73,0.84,1.44,1.69,2.13,2.52a2.26,2.26,0,0,0,3.47-2.88c-0.71-.85-1.45-1.72-2.2-2.59a2.25,2.25,0,0,0-1.7-.77h0Zm-9.94-10.49a2.26,2.26,0,0,0-1.56,3.89c0.8,0.76,1.58,1.53,2.34,2.3a2.26,2.26,0,1,0,3.2-3.19l-0.43-.43,0,0h0l-1.46-1.43h0l0,0,0,0v0l-0.41-.4a2.27,2.27,0,0,0-1.56-.63h0Zm-10.93-9.39a2.26,2.26,0,0,0-1.37,4.05q1.3,1,2.56,2a2.26,2.26,0,0,0,2.85-3.5l-0.55-.44h0l0,0,0,0-0.06-.05,0,0,0,0-0.05,0,0,0,0,0,0,0-0.06,0,0,0,0,0,0,0,0,0,0,0,0,0,0,0,0,0-0.09-.06h0l-1.29-1a2.27,2.27,0,0,0-1.36-.46h0Zm-12-7.93a2.26,2.26,0,0,0-1.11,4.23q1.41,0.79,2.79,1.63a2.21,2.21,0,0,0,1.17.33,2.26,2.26,0,0,0,1.18-4.18h0l0,0h0l-1.17-.7h0l0,0h0l-0.08,0h0l0,0,0,0,0,0,0,0h0l0,0h0l-1.36-.78a2.24,2.24,0,0,0-1.1-.29h0Zm-13-6a2.26,2.26,0,0,0-.76,4.38q1.51,0.54,3,1.15a2.29,2.29,0,0,0,.85.17,2.26,2.26,0,0,0,.85-4.35l-0.37-.15,0,0h0l0,0h0l-0.06,0h0l-1.09-.42h0l-0.14-.05h0l-0.06,0h0l-0.05,0h0l-0.05,0h0l0,0H569.4l-0.05,0h0l0,0h0l-0.14-.05h0l-0.79-.29a2.29,2.29,0,0,0-.76-0.13h0ZM553.81,120a2.26,2.26,0,0,0-.33,4.49c1.05,0.16,2.09.33,3.12,0.53a2.09,2.09,0,0,0,.44,0,2.26,2.26,0,0,0,.43-4.47l-0.1,0h0l-0.14,0h-0.08l-0.06,0h-1.3l-0.14,0h-0.23l-0.14,0h0l-1.14-.18-0.32,0h0Zm-15.17-1.1a2.26,2.26,0,0,0-.93,4.32l0.64,0.29a4.51,4.51,0,0,0,1.86.4h0.12l2.1-.05,0.57,0a2.26,2.26,0,0,0,0-4.51h-2.77l0,0h0l0,0H540l-0.42-.19a2.26,2.26,0,0,0-.93-0.2h0Zm-13.48-5.1a2.26,2.26,0,0,0-.7,4.4c1.11,0.36,2.16.71,3.13,1.05a2.33,2.33,0,0,0,.74.13,2.26,2.26,0,0,0,.75-4.39l-0.79-.27h0l-1.58-.53h0l-0.83-.27a2.25,2.25,0,0,0-.69-0.11h0Zm-14-3.95a2.26,2.26,0,0,0-.53,4.45c1.09,0.26,2.16.54,3.21,0.81a2.21,2.21,0,0,0,.57.08,2.26,2.26,0,0,0,.57-4.44h-0.74l-0.09,0h-0.57l-0.07,0h-0.09l-0.1,0H513.3l-0.09,0h-0.05l-0.16,0h0l-1.25-.31a2.29,2.29,0,0,0-.54-0.06h0Zm-14.2-2.9a2.26,2.26,0,0,0-.36,4.49q1.65,0.27,3.26.56a2.42,2.42,0,0,0,.41,0,2.26,2.26,0,0,0,.4-4.48l-0.51-.09h0l-2.28-.39h0l-0.47-.08a2.44,2.44,0,0,0-.37,0h0Zm-14.37-1.77a2.26,2.26,0,0,0-.18,4.51c1.1,0.09,2.19.19,3.28,0.3H486a2.26,2.26,0,0,0,.23-4.5q-1.68-.17-3.39-0.31h-0.17Zm-12.94-.53h-1.91l-1.47,0a2.26,2.26,0,0,0,0,4.51h0.05q1.63,0,3.29,0h1.83a2.26,2.26,0,0,0,0-4.51h-1.86Z" transform="translate(-70.16 -91.08)"/>
</svg>
